NotoAmalgamated-ThinCondensed.ufo
<glyph name="quotedbl" format="2">
  <advance width="293"/>
  <unicode hex="0022"/>
  <note>
quotedbl
</note>
  <outline>
    <contour>
      <point x="97" y="714" type="line"/>
      <point x="65" y="714" type="line"/>
      <point x="70" y="456" type="line"/>
      <point x="92" y="456" type="line"/>
    </contour>
    <contour>
      <point x="228" y="714" type="line"/>
      <point x="196" y="714" type="line"/>
      <point x="201" y="456" type="line"/>
      <point x="223" y="456" type="line"/>
    </contour>
  </outline>
</glyph>
<glyph name="quotesingle" format="2">
  <advance width="161"/>
  <unicode hex="0027"/>
  <note>
quotesingle
</note>
  <outline>
    <contour>
      <point x="97" y="714" type="line"/>
      <point x="65" y="714" type="line"/>
      <point x="71" y="456" type="line"/>
      <point x="93" y="456" type="line"/>
    </contour>
  </outline>
</glyph>
<glyph name="hyphen" format="2">
  <advance width="263"/>
  <unicode hex="002D"/>
  <anchor x="132" y="0" name="bottom"/>
  <anchor x="237" y="0" name="bottomright"/>
  <anchor x="132" y="608" name="top"/>
  <anchor x="237" y="608" name="topright"/>
  <outline>
    <contour>
      <point x="26" y="259" type="line"/>
      <point x="237" y="259" type="line"/>
      <point x="237" y="286" type="line"/>
      <point x="26" y="286" type="line"/>
    </contour>
  </outline>
</glyph>
<glyph name="slash" format="2">
  <advance width="328"/>
  <unicode hex="002F"/>
  <outline>
    <contour>
      <point x="310" y="714" type="line"/>
      <point x="284" y="714" type="line"/>
      <point x="25" y="0" type="line"/>
      <point x="53" y="0" type="line"/>
    </contour>
  </outline>
</glyph>
<glyph name="bracketleft" format="2">
  <advance width="306"/>
  <unicode hex="005B"/>
  <note>
bracketleft
</note>
  <outline>
    <contour>
      <point x="270" y="-134" type="line"/>
      <point x="109" y="-134" type="line"/>
      <point x="109" y="690" type="line"/>
      <point x="270" y="690" type="line"/>
      <point x="270" y="714" type="line"/>
      <point x="84" y="714" type="line"/>
      <point x="84" y="-158" type="line"/>
      <point x="270" y="-158" type="line"/>
    </contour>
  </outline>
</glyph>
<glyph name="bracketright" format="2">
  <advance width="306"/>
  <unicode hex="005D"/>
  <note>
bracketright
</note>
  <outline>
    <contour>
      <point x="36" y="-158" type="line"/>
      <point x="222" y="-158" type="line"/>
      <point x="222" y="714" type="line"/>
      <point x="36" y="714" type="line"/>
      <point x="36" y="690" type="line"/>
      <point x="197" y="690" type="line"/>
      <point x="197" y="-134" type="line"/>
      <point x="36" y="-134" type="line"/>
    </contour>
  </outline>
</glyph>
<glyph name="multiply" format="2">
  <advance width="399"/>
  <unicode hex="00D7"/>
  <anchor x="200" y="0" name="bottom"/>
  <anchor x="351" y="0" name="bottomright"/>
  <anchor x="200" y="608" name="top"/>
  <anchor x="351" y="608" name="topright"/>
  <outline>
    <contour>
      <point x="343" y="514" type="line"/>
      <point x="200" y="370" type="line"/>
      <point x="58" y="514" type="line"/>
      <point x="42" y="498" type="line"/>
      <point x="184" y="354" type="line"/>
      <point x="40" y="209" type="line"/>
      <point x="55" y="193" type="line"/>
      <point x="199" y="338" type="line"/>
      <point x="341" y="194" type="line"/>
      <point x="357" y="210" type="line"/>
      <point x="215" y="354" type="line"/>
      <point x="359" y="499" type="line"/>
    </contour>
  </outline>
</glyph>
<glyph name="apostrophemod" format="2">
  <advance width="140"/>
  <unicode hex="02BC"/>
  <outline>
    <contour>
      <point x="86" y="540" type="curve"/>
      <point x="81" y="548" type="line"/>
      <point x="61" y="548" type="line"/>
      <point x="49" y="476"/>
      <point x="31" y="410"/>
      <point x="7" y="329" type="curve"/>
      <point x="24" y="329" type="line"/>
      <point x="49" y="400"/>
      <point x="72" y="471"/>
    </contour>
  </outline>
</glyph>
<glyph name="minusmod" format="2">
  <advance width="263"/>
  <unicode hex="02D7"/>
  <outline>
    <contour>
      <point x="26" y="233" type="line"/>
      <point x="237" y="233" type="line"/>
      <point x="237" y="260" type="line"/>
      <point x="26" y="260" type="line"/>
    </contour>
  </outline>
</glyph>
<glyph name="tildecomb" format="2">
  <unicode hex="0303"/>
  <anchor x="180" y="548" name="_top"/>
  <anchor x="180" y="732" name="top"/>
  <outline>
    <contour>
      <point x="50" y="643" type="curve"/>
      <point x="73" y="643" type="line"/>
      <point x="76" y="688"/>
      <point x="96" y="708"/>
      <point x="119" y="708" type="curve" smooth="yes"/>
      <point x="161" y="708"/>
      <point x="185" y="643"/>
      <point x="240" y="643" type="curve" smooth="yes"/>
      <point x="277" y="643"/>
      <point x="309" y="671"/>
      <point x="310" y="732" type="curve"/>
      <point x="288" y="732" type="line"/>
      <point x="285" y="690"/>
      <point x="267" y="666"/>
      <point x="240" y="666" type="curve" smooth="yes"/>
      <point x="196" y="666"/>
      <point x="174" y="731"/>
      <point x="119" y="731" type="curve" smooth="yes"/>
      <point x="84" y="731"/>
      <point x="55" y="706"/>
    </contour>
  </outline>
</glyph>
<glyph name="macronbelowcomb" format="2">
  <unicode hex="0331"/>
  <anchor x="191" y="0" name="_bottom"/>
  <outline>
    <contour>
      <point x="332" y="-77" type="line"/>
      <point x="50" y="-77" type="line"/>
      <point x="50" y="-97" type="line"/>
      <point x="332" y="-97" type="line"/>
    </contour>
  </outline>
</glyph>
<glyph name="doublemacroncomb" format="2">
  <unicode hex="035E"/>
  <outline>
    <contour>
      <point x="376" y="715" type="line"/>
      <point x="-355" y="715" type="line"/>
      <point x="-355" y="695" type="line"/>
      <point x="376" y="695" type="line"/>
    </contour>
  </outline>
</glyph>
<glyph name="koKai-thai" format="2">
  <advance width="417"/>
  <unicode hex="0E01"/>
  <note>
uni0E01
</note>
  <anchor x="204" y="0" name="bottom"/>
  <anchor x="341" y="0" name="bottomright"/>
  <anchor x="198" y="548" name="top"/>
  <anchor x="336" y="548" name="topright"/>
  <outline>
    <contour>
      <point x="199" y="556" type="curve" smooth="yes"/>
      <point x="105" y="556"/>
      <point x="54" y="492"/>
      <point x="54" y="400" type="curve" smooth="yes"/>
      <point x="54" y="377" type="line"/>
      <point x="144" y="336" type="line"/>
      <point x="146" y="341" type="line"/>
      <point x="97" y="341"/>
      <point x="66" y="291"/>
      <point x="66" y="215" type="curve" smooth="yes"/>
      <point x="66" y="0" type="line"/>
      <point x="90" y="0" type="line"/>
      <point x="90" y="211" type="line" smooth="yes"/>
      <point x="90" y="281"/>
      <point x="112" y="326"/>
      <point x="166" y="326" type="curve"/>
      <point x="170" y="348" type="line"/>
      <point x="69" y="396" type="line"/>
      <point x="78" y="386" type="line"/>
      <point x="78" y="479"/>
      <point x="115" y="533"/>
      <point x="199" y="533" type="curve" smooth="yes"/>
      <point x="275" y="533"/>
      <point x="317" y="486"/>
      <point x="317" y="382" type="curve" smooth="yes"/>
      <point x="317" y="0" type="line"/>
      <point x="341" y="0" type="line"/>
      <point x="341" y="387" type="line" smooth="yes"/>
      <point x="341" y="500"/>
      <point x="289" y="556"/>
    </contour>
    <contour>
      <point x="133" y="349" type="line"/>
      <point x="133" y="331" type="line"/>
      <point x="140" y="331" type="line"/>
      <point x="140" y="349" type="line"/>
    </contour>
  </outline>
</glyph>
<glyph name="khoKhai-thai" format="2">
  <advance width="400"/>
  <unicode hex="0E02"/>
  <note>
uni0E02
</note>
  <anchor x="203" y="0" name="bottom"/>
  <anchor x="319" y="0" name="bottomright"/>
  <anchor x="203" y="548" name="top"/>
  <anchor x="324" y="548" name="topright"/>
  <outline>
    <contour>
      <point x="204" y="-8" type="curve" smooth="yes"/>
      <point x="282" y="-8"/>
      <point x="324" y="39"/>
      <point x="324" y="140" type="curve" smooth="yes"/>
      <point x="324" y="548" type="line"/>
      <point x="300" y="548" type="line"/>
      <point x="300" y="145" type="line" smooth="yes"/>
      <point x="300" y="60"/>
      <point x="272" y="15"/>
      <point x="204" y="15" type="curve" smooth="yes"/>
      <point x="131" y="15"/>
      <point x="106" y="72"/>
      <point x="106" y="145" type="curve" smooth="yes"/>
      <point x="106" y="218" type="line" smooth="yes"/>
      <point x="106" y="335"/>
      <point x="179" y="333"/>
      <point x="179" y="456" type="curve" smooth="yes"/>
      <point x="179" y="520"/>
      <point x="158" y="553"/>
      <point x="117" y="553" type="curve" smooth="yes"/>
      <point x="79" y="553"/>
      <point x="55" y="519"/>
      <point x="55" y="473" type="curve" smooth="yes"/>
      <point x="55" y="428"/>
      <point x="80" y="394"/>
      <point x="117" y="394" type="curve" smooth="yes"/>
      <point x="154" y="394"/>
      <point x="175" y="431"/>
      <point x="175" y="473" type="curve"/>
      <point x="154" y="425" type="line"/>
      <point x="154" y="351"/>
      <point x="82" y="338"/>
      <point x="82" y="221" type="curve" smooth="yes"/>
      <point x="82" y="139" type="line" smooth="yes"/>
      <point x="82" y="58"/>
      <point x="116" y="-8"/>
    </contour>
    <contour>
      <point x="117" y="414" type="curve" smooth="yes"/>
      <point x="93" y="414"/>
      <point x="77" y="438"/>
      <point x="77" y="473" type="curve" smooth="yes"/>
      <point x="77" y="509"/>
      <point x="93" y="532"/>
      <point x="117" y="532" type="curve" smooth="yes"/>
      <point x="142" y="532"/>
      <point x="155" y="509"/>
      <point x="155" y="473" type="curve" smooth="yes"/>
      <point x="155" y="438"/>
      <point x="142" y="414"/>
    </contour>
  </outline>
</glyph>
<glyph name="khoKhuat-thai" format="2">
  <advance width="409"/>
  <unicode hex="0E03"/>
  <anchor x="209" y="0" name="bottom"/>
  <anchor x="328" y="0" name="bottomright"/>
  <anchor x="209" y="548" name="top"/>
  <anchor x="333" y="548" name="topright"/>
  <outline>
    <contour>
      <point x="209" y="-8" type="curve" smooth="yes"/>
      <point x="288" y="-8"/>
      <point x="333" y="39"/>
      <point x="333" y="140" type="curve" smooth="yes"/>
      <point x="333" y="548" type="line"/>
      <point x="309" y="548" type="line"/>
      <point x="309" y="145" type="line" smooth="yes"/>
      <point x="309" y="58"/>
      <point x="280" y="15"/>
      <point x="209" y="15" type="curve" smooth="yes"/>
      <point x="133" y="15"/>
      <point x="108" y="72"/>
      <point x="108" y="145" type="curve" smooth="yes"/>
      <point x="108" y="215" type="line" smooth="yes"/>
      <point x="108" y="355"/>
      <point x="205" y="340"/>
      <point x="205" y="462" type="curve" smooth="yes"/>
      <point x="205" y="491"/>
      <point x="200" y="523"/>
      <point x="196" y="548" type="curve"/>
      <point x="180" y="548" type="line"/>
      <point x="180" y="491"/>
      <point x="159" y="431"/>
      <point x="122" y="431" type="curve"/>
      <point x="131" y="418" type="line"/>
      <point x="145" y="431"/>
      <point x="149" y="452"/>
      <point x="149" y="475" type="curve" smooth="yes"/>
      <point x="149" y="519"/>
      <point x="127" y="553"/>
      <point x="92" y="553" type="curve" smooth="yes"/>
      <point x="53" y="553"/>
      <point x="33" y="520"/>
      <point x="33" y="474" type="curve" smooth="yes"/>
      <point x="33" y="426"/>
      <point x="58" y="397"/>
      <point x="95" y="397" type="curve" smooth="yes"/>
      <point x="141" y="397"/>
      <point x="188" y="442"/>
      <point x="188" y="495" type="curve"/>
      <point x="181" y="495" type="line"/>
      <point x="183" y="484"/>
      <point x="184" y="475"/>
      <point x="184" y="462" type="curve" smooth="yes"/>
      <point x="184" y="360"/>
      <point x="84" y="361"/>
      <point x="84" y="221" type="curve" smooth="yes"/>
      <point x="84" y="139" type="line" smooth="yes"/>
      <point x="84" y="58"/>
      <point x="121" y="-8"/>
    </contour>
    <contour>
      <point x="90" y="417" type="curve" smooth="yes"/>
      <point x="66" y="417"/>
      <point x="55" y="443"/>
      <point x="55" y="474" type="curve" smooth="yes"/>
      <point x="55" y="507"/>
      <point x="66" y="532"/>
      <point x="90" y="532" type="curve" smooth="yes"/>
      <point x="116" y="532"/>
      <point x="127" y="507"/>
      <point x="127" y="474" type="curve" smooth="yes"/>
      <point x="127" y="441"/>
      <point x="114" y="417"/>
    </contour>
  </outline>
</glyph>
<glyph name="khoKhwai-thai" format="2">
  <advance width="438"/>
  <unicode hex="0E04"/>
  <note>
uni0E04
</note>
  <anchor x="219" y="0" name="bottom"/>
  <anchor x="362" y="0" name="bottomright"/>
  <anchor x="209" y="548" name="top"/>
  <anchor x="357" y="548" name="topright"/>
  <outline>
    <contour>
      <point x="213" y="556" type="curve" smooth="yes"/>
      <point x="102" y="556"/>
      <point x="56" y="484"/>
      <point x="56" y="347" type="curve" smooth="yes"/>
      <point x="56" y="239"/>
      <point x="75" y="218"/>
      <point x="75" y="121" type="curve" smooth="yes"/>
      <point x="75" y="0" type="line"/>
      <point x="99" y="0" type="line"/>
      <point x="99" y="117" type="line" smooth="yes"/>
      <point x="99" y="208"/>
      <point x="145" y="289"/>
      <point x="170" y="302" type="curve"/>
      <point x="167" y="310" type="line"/>
      <point x="161" y="300"/>
      <point x="158" y="285"/>
      <point x="158" y="269" type="curve" smooth="yes"/>
      <point x="158" y="218"/>
      <point x="184" y="188"/>
      <point x="218" y="188" type="curve" smooth="yes"/>
      <point x="254" y="188"/>
      <point x="277" y="225"/>
      <point x="277" y="270" type="curve" smooth="yes"/>
      <point x="277" y="320"/>
      <point x="252" y="352"/>
      <point x="216" y="352" type="curve" smooth="yes"/>
      <point x="155" y="352"/>
      <point x="88" y="251"/>
      <point x="88" y="157" type="curve"/>
      <point x="94" y="157" type="line"/>
      <point x="94" y="229"/>
      <point x="80" y="254"/>
      <point x="80" y="342" type="curve" smooth="yes"/>
      <point x="80" y="474"/>
      <point x="121" y="533"/>
      <point x="213" y="533" type="curve" smooth="yes"/>
      <point x="305" y="533"/>
      <point x="338" y="468"/>
      <point x="338" y="360" type="curve" smooth="yes"/>
      <point x="338" y="0" type="line"/>
      <point x="362" y="0" type="line"/>
      <point x="362" y="365" type="line" smooth="yes"/>
      <point x="362" y="495"/>
      <point x="308" y="556"/>
    </contour>
    <contour>
      <point x="217" y="331" type="curve" smooth="yes"/>
      <point x="240" y="331"/>
      <point x="255" y="305"/>
      <point x="255" y="270" type="curve" smooth="yes"/>
      <point x="255" y="235"/>
      <point x="241" y="209"/>
      <point x="218" y="209" type="curve" smooth="yes"/>
      <point x="195" y="209"/>
      <point x="180" y="234"/>
      <point x="180" y="270" type="curve" smooth="yes"/>
      <point x="180" y="308"/>
      <point x="194" y="331"/>
    </contour>
    <contour>
      <point x="85" y="204" type="line"/>
      <point x="85" y="196" type="line"/>
      <point x="98" y="196" type="line"/>
      <point x="98" y="204" type="line"/>
    </contour>
  </outline>
</glyph>
<glyph name="khoKhon-thai" format="2">
  <advance width="440"/>
  <unicode hex="0E05"/>
  <anchor x="217" y="0" name="bottom"/>
  <anchor x="364" y="0" name="bottomright"/>
  <anchor x="206" y="548" name="top"/>
  <anchor x="359" y="548" name="topright"/>
  <outline>
    <contour>
      <point x="70" y="0" type="line"/>
      <point x="92" y="0" type="line"/>
      <point x="92" y="118" type="line" smooth="yes"/>
      <point x="92" y="204"/>
      <point x="136" y="285"/>
      <point x="163" y="305" type="curve"/>
      <point x="163" y="315" type="line"/>
      <point x="156" y="301"/>
      <point x="153" y="284"/>
      <point x="153" y="269" type="curve" smooth="yes"/>
      <point x="153" y="218"/>
      <point x="178" y="188"/>
      <point x="212" y="188" type="curve" smooth="yes"/>
      <point x="248" y="188"/>
      <point x="269" y="225"/>
      <point x="269" y="270" type="curve" smooth="yes"/>
      <point x="269" y="320"/>
      <point x="244" y="352"/>
      <point x="208" y="352" type="curve" smooth="yes"/>
      <point x="149" y="352"/>
      <point x="80" y="249"/>
      <point x="80" y="157" type="curve"/>
      <point x="86" y="157" type="line"/>
      <point x="86" y="229"/>
      <point x="71" y="257"/>
      <point x="71" y="348" type="curve" smooth="yes"/>
      <point x="71" y="449"/>
      <point x="94" y="498"/>
      <point x="141" y="526" type="curve"/>
      <point x="209" y="447" type="line"/>
      <point x="212" y="447" type="line"/>
      <point x="281" y="526" type="line"/>
      <point x="320" y="513"/>
      <point x="340" y="478"/>
      <point x="340" y="388" type="curve" smooth="yes"/>
      <point x="340" y="0" type="line"/>
      <point x="364" y="0" type="line"/>
      <point x="364" y="386" type="line" smooth="yes"/>
      <point x="364" y="492"/>
      <point x="338" y="537"/>
      <point x="277" y="553" type="curve"/>
      <point x="210" y="476" type="line"/>
      <point x="144" y="553" type="line"/>
      <point x="79" y="525"/>
      <point x="47" y="464"/>
      <point x="47" y="353" type="curve" smooth="yes"/>
      <point x="47" y="242"/>
      <point x="70" y="218"/>
      <point x="70" y="121" type="curve" smooth="yes"/>
    </contour>
    <contour>
      <point x="211" y="209" type="curve" smooth="yes"/>
      <point x="188" y="209"/>
      <point x="175" y="234"/>
      <point x="175" y="270" type="curve" smooth="yes"/>
      <point x="175" y="308"/>
      <point x="188" y="331"/>
      <point x="211" y="331" type="curve" smooth="yes"/>
      <point x="234" y="331"/>
      <point x="247" y="305"/>
      <point x="247" y="270" type="curve" smooth="yes"/>
      <point x="247" y="235"/>
      <point x="234" y="209"/>
    </contour>
    <contour>
      <point x="78" y="203" type="line"/>
      <point x="78" y="195" type="line"/>
      <point x="91" y="195" type="line"/>
      <point x="91" y="203" type="line"/>
    </contour>
  </outline>
</glyph>
<glyph name="khoRakhang-thai" format="2">
  <advance width="448"/>
  <unicode hex="0E06"/>
  <anchor x="236" y="0" name="bottom"/>
  <anchor x="378" y="0" name="bottomright"/>
  <anchor x="263" y="548" name="top"/>
  <anchor x="378" y="548" name="topright"/>
  <outline>
    <contour>
      <point x="117" y="-5" type="curve" smooth="yes"/>
      <point x="158" y="-5"/>
      <point x="180" y="25"/>
      <point x="180" y="81" type="curve" smooth="yes"/>
      <point x="180" y="103"/>
      <point x="179" y="125"/>
      <point x="177" y="144" type="curve"/>
      <point x="167" y="140" type="line"/>
      <point x="233" y="112"/>
      <point x="299" y="57"/>
      <point x="357" y="0" type="curve"/>
      <point x="378" y="0" type="line"/>
      <point x="378" y="548" type="line"/>
      <point x="354" y="548" type="line"/>
      <point x="354" y="18" type="line"/>
      <point x="364" y="27" type="line"/>
      <point x="306" y="84"/>
      <point x="232" y="136"/>
      <point x="165" y="166" type="curve"/>
      <point x="176" y="154" type="line"/>
      <point x="174" y="173"/>
      <point x="172" y="208"/>
      <point x="172" y="231" type="curve" smooth="yes"/>
      <point x="172" y="366"/>
      <point x="217" y="340"/>
      <point x="217" y="462" type="curve" smooth="yes"/>
      <point x="217" y="491"/>
      <point x="212" y="524"/>
      <point x="208" y="548" type="curve"/>
      <point x="192" y="548" type="line"/>
      <point x="192" y="491"/>
      <point x="171" y="431"/>
      <point x="134" y="431" type="curve"/>
      <point x="143" y="418" type="line"/>
      <point x="157" y="431"/>
      <point x="161" y="452"/>
      <point x="161" y="475" type="curve" smooth="yes"/>
      <point x="161" y="519"/>
      <point x="139" y="553"/>
      <point x="104" y="553" type="curve" smooth="yes"/>
      <point x="65" y="553"/>
      <point x="45" y="520"/>
      <point x="45" y="474" type="curve" smooth="yes"/>
      <point x="45" y="426"/>
      <point x="70" y="397"/>
      <point x="107" y="397" type="curve" smooth="yes"/>
      <point x="153" y="397"/>
      <point x="200" y="442"/>
      <point x="200" y="495" type="curve"/>
      <point x="193" y="495" type="line"/>
      <point x="195" y="484"/>
      <point x="196" y="475"/>
      <point x="196" y="462" type="curve" smooth="yes"/>
      <point x="196" y="360"/>
      <point x="148" y="367"/>
      <point x="148" y="241" type="curve" smooth="yes"/>
      <point x="148" y="210"/>
      <point x="149" y="179"/>
      <point x="152" y="164" type="curve"/>
      <point x="157" y="167" type="line"/>
      <point x="142" y="175"/>
      <point x="131" y="176"/>
      <point x="119" y="176" type="curve" smooth="yes"/>
      <point x="81" y="176"/>
      <point x="54" y="148"/>
      <point x="54" y="85" type="curve" smooth="yes"/>
      <point x="54" y="29"/>
      <point x="78" y="-5"/>
    </contour>
    <contour>
      <point x="117" y="17" type="curve" smooth="yes"/>
      <point x="93" y="17"/>
      <point x="77" y="42"/>
      <point x="77" y="85" type="curve" smooth="yes"/>
      <point x="77" y="133"/>
      <point x="95" y="154"/>
      <point x="119" y="154" type="curve" smooth="yes"/>
      <point x="132" y="154"/>
      <point x="140" y="152"/>
      <point x="152" y="145" type="curve"/>
      <point x="154" y="128"/>
      <point x="156" y="104"/>
      <point x="156" y="82" type="curve" smooth="yes"/>
      <point x="156" y="42"/>
      <point x="147" y="17"/>
    </contour>
    <contour>
      <point x="102" y="417" type="curve" smooth="yes"/>
      <point x="78" y="417"/>
      <point x="67" y="443"/>
      <point x="67" y="474" type="curve" smooth="yes"/>
      <point x="67" y="507"/>
      <point x="78" y="532"/>
      <point x="102" y="532" type="curve" smooth="yes"/>
      <point x="128" y="532"/>
      <point x="139" y="507"/>
      <point x="139" y="474" type="curve" smooth="yes"/>
      <point x="139" y="441"/>
      <point x="126" y="417"/>
    </contour>
  </outline>
</glyph>
<glyph name="ngoNgu-thai" format="2">
  <advance width="355"/>
  <unicode hex="0E07"/>
  <note>
uni0E07
</note>
  <anchor x="157" y="0" name="bottom"/>
  <anchor x="275" y="0" name="bottomright"/>
  <anchor x="166" y="548" name="top"/>
  <anchor x="275" y="548" name="topright"/>
  <outline>
    <contour>
      <point x="278" y="104" type="curve" smooth="yes"/>
      <point x="278" y="471" type="line" smooth="yes"/>
      <point x="278" y="521"/>
      <point x="254" y="553"/>
      <point x="217" y="553" type="curve" smooth="yes"/>
      <point x="179" y="553"/>
      <point x="155" y="522"/>
      <point x="155" y="474" type="curve" smooth="yes"/>
      <point x="155" y="426"/>
      <point x="179" y="395"/>
      <point x="213" y="395" type="curve" smooth="yes"/>
      <point x="249" y="395"/>
      <point x="271" y="426"/>
      <point x="271" y="474" type="curve"/>
      <point x="266" y="474" type="line"/>
      <point x="266" y="455"/>
      <point x="259" y="434"/>
      <point x="254" y="434" type="curve"/>
      <point x="254" y="109" type="line" smooth="yes"/>
      <point x="254" y="42"/>
      <point x="238" y="23"/>
      <point x="198" y="23" type="curve" smooth="yes"/>
      <point x="142" y="23" type="line"/>
      <point x="159" y="17" type="line"/>
      <point x="139" y="143"/>
      <point x="95" y="291"/>
      <point x="54" y="398" type="curve"/>
      <point x="31" y="388" type="line"/>
      <point x="80" y="262"/>
      <point x="114" y="130"/>
      <point x="137" y="0" type="curve"/>
      <point x="196" y="0" type="line" smooth="yes"/>
      <point x="262" y="0"/>
      <point x="278" y="39"/>
    </contour>
    <contour>
      <point x="215" y="416" type="curve" smooth="yes"/>
      <point x="192" y="416"/>
      <point x="177" y="436"/>
      <point x="177" y="474" type="curve" smooth="yes"/>
      <point x="177" y="512"/>
      <point x="192" y="532"/>
      <point x="216" y="532" type="curve" smooth="yes"/>
      <point x="239" y="532"/>
      <point x="254" y="512"/>
      <point x="254" y="474" type="curve" smooth="yes"/>
      <point x="254" y="436"/>
      <point x="239" y="416"/>
    </contour>
  </outline>
</glyph>
<glyph name="choChan-thai" format="2">
  <advance width="385"/>
  <unicode hex="0E08"/>
  <anchor x="191" y="0" name="bottom"/>
  <anchor x="327" y="0" name="bottomright"/>
  <anchor x="191" y="548" name="top"/>
  <anchor x="337" y="548" name="topright"/>
  <outline>
    <contour>
      <point x="164" y="0" type="line"/>
      <point x="221" y="0" type="line" smooth="yes"/>
      <point x="312" y="0"/>
      <point x="347" y="87"/>
      <point x="347" y="284" type="curve" smooth="yes"/>
      <point x="347" y="451"/>
      <point x="307" y="556"/>
      <point x="183" y="556" type="curve" smooth="yes"/>
      <point x="129" y="556"/>
      <point x="87" y="542"/>
      <point x="51" y="522" type="curve"/>
      <point x="58" y="499" type="line"/>
      <point x="92" y="519"/>
      <point x="133" y="533"/>
      <point x="180" y="533" type="curve" smooth="yes"/>
      <point x="290" y="533"/>
      <point x="323" y="438"/>
      <point x="323" y="284" type="curve" smooth="yes"/>
      <point x="323" y="108"/>
      <point x="300" y="23"/>
      <point x="216" y="23" type="curve" smooth="yes"/>
      <point x="179" y="23" type="line"/>
      <point x="188" y="10" type="line"/>
      <point x="188" y="270" type="line" smooth="yes"/>
      <point x="188" y="319"/>
      <point x="164" y="352"/>
      <point x="127" y="352" type="curve" smooth="yes"/>
      <point x="89" y="352"/>
      <point x="65" y="320"/>
      <point x="65" y="273" type="curve" smooth="yes"/>
      <point x="65" y="226"/>
      <point x="89" y="194"/>
      <point x="123" y="194" type="curve" smooth="yes"/>
      <point x="158" y="194"/>
      <point x="181" y="225"/>
      <point x="181" y="273" type="curve"/>
      <point x="176" y="273" type="line"/>
      <point x="176" y="254"/>
      <point x="169" y="233"/>
      <point x="164" y="233" type="curve"/>
    </contour>
    <contour>
      <point x="125" y="215" type="curve" smooth="yes"/>
      <point x="102" y="215"/>
      <point x="87" y="236"/>
      <point x="87" y="273" type="curve" smooth="yes"/>
      <point x="87" y="310"/>
      <point x="102" y="331"/>
      <point x="126" y="331" type="curve" smooth="yes"/>
      <point x="149" y="331"/>
      <point x="164" y="310"/>
      <point x="164" y="273" type="curve" smooth="yes"/>
      <point x="164" y="236"/>
      <point x="149" y="215"/>
    </contour>
  </outline>
</glyph>
<glyph name="choChing-thai" format="2">
  <advance width="416"/>
  <unicode hex="0E09"/>
  <anchor x="239" y="0" name="bottom"/>
  <anchor x="368" y="0" name="bottomright"/>
  <anchor x="202" y="548" name="top"/>
  <anchor x="339" y="548" name="topright"/>
  <outline>
    <contour>
      <point x="150" y="65" type="line"/>
      <point x="150" y="58" type="line"/>
      <point x="166" y="58" type="line"/>
      <point x="166" y="65" type="line"/>
    </contour>
    <contour>
      <point x="157" y="38" type="line"/>
      <point x="157" y="269" type="line" smooth="yes"/>
      <point x="157" y="319"/>
      <point x="133" y="351"/>
      <point x="96" y="351" type="curve" smooth="yes"/>
      <point x="58" y="351"/>
      <point x="34" y="320"/>
      <point x="34" y="272" type="curve" smooth="yes"/>
      <point x="34" y="224"/>
      <point x="58" y="193"/>
      <point x="92" y="193" type="curve" smooth="yes"/>
      <point x="128" y="193"/>
      <point x="150" y="224"/>
      <point x="150" y="272" type="curve"/>
      <point x="145" y="272" type="line"/>
      <point x="145" y="253"/>
      <point x="138" y="232"/>
      <point x="133" y="232" type="curve"/>
      <point x="133" y="0" type="line"/>
      <point x="154" y="0" type="line"/>
      <point x="189" y="90"/>
      <point x="215" y="125"/>
      <point x="288" y="144" type="curve"/>
      <point x="286" y="147" type="line"/>
      <point x="270" y="130"/>
      <point x="263" y="103"/>
      <point x="263" y="78" type="curve" smooth="yes"/>
      <point x="263" y="26"/>
      <point x="288" y="-5"/>
      <point x="326" y="-5" type="curve" smooth="yes"/>
      <point x="363" y="-5"/>
      <point x="388" y="26"/>
      <point x="388" y="78" type="curve" smooth="yes"/>
      <point x="388" y="123"/>
      <point x="365" y="163"/>
      <point x="324" y="163" type="curve"/>
      <point x="328" y="159" type="line"/>
      <point x="339" y="167"/>
      <point x="344" y="186"/>
      <point x="344" y="207" type="curve" smooth="yes"/>
      <point x="344" y="399" type="line" smooth="yes"/>
      <point x="344" y="503"/>
      <point x="290" y="556"/>
      <point x="203" y="556" type="curve" smooth="yes"/>
      <point x="143" y="556"/>
      <point x="99" y="537"/>
      <point x="59" y="513" type="curve"/>
      <point x="67" y="490" type="line"/>
      <point x="108" y="515"/>
      <point x="150" y="533"/>
      <point x="202" y="533" type="curve" smooth="yes"/>
      <point x="275" y="533"/>
      <point x="320" y="494"/>
      <point x="320" y="394" type="curve" smooth="yes"/>
      <point x="320" y="212" type="line" smooth="yes"/>
      <point x="320" y="183"/>
      <point x="313" y="173"/>
      <point x="292" y="168" type="curve" smooth="yes"/>
      <point x="238" y="156"/>
      <point x="181" y="131"/>
      <point x="148" y="40" type="curve"/>
    </contour>
    <contour>
      <point x="94" y="214" type="curve" smooth="yes"/>
      <point x="71" y="214"/>
      <point x="56" y="234"/>
      <point x="56" y="272" type="curve" smooth="yes"/>
      <point x="56" y="310"/>
      <point x="71" y="330"/>
      <point x="95" y="330" type="curve" smooth="yes"/>
      <point x="118" y="330"/>
      <point x="133" y="310"/>
      <point x="133" y="272" type="curve" smooth="yes"/>
      <point x="133" y="234"/>
      <point x="118" y="214"/>
    </contour>
    <contour>
      <point x="326" y="16" type="curve" smooth="yes"/>
      <point x="299" y="16"/>
      <point x="285" y="38"/>
      <point x="285" y="78" type="curve" smooth="yes"/>
      <point x="285" y="103"/>
      <point x="291" y="125"/>
      <point x="301" y="139" type="curve"/>
      <point x="307" y="142"/>
      <point x="315" y="143"/>
      <point x="324" y="143" type="curve" smooth="yes"/>
      <point x="352" y="143"/>
      <point x="366" y="115"/>
      <point x="366" y="78" type="curve" smooth="yes"/>
      <point x="366" y="38"/>
      <point x="351" y="16"/>
    </contour>
  </outline>
</glyph>
<glyph name="choChang-thai" format="2">
  <advance width="418"/>
  <unicode hex="0E0A"/>
  <anchor x="212" y="0" name="bottom"/>
  <anchor x="337" y="0" name="bottomright"/>
  <anchor x="212" y="548" name="top"/>
  <anchor x="341" y="548" name="topright"/>
  <outline>
    <contour>
      <point x="212" y="-8" type="curve" smooth="yes"/>
      <point x="298" y="-8"/>
      <point x="342" y="48"/>
      <point x="342" y="139" type="curve" smooth="yes"/>
      <point x="342" y="277" type="line" smooth="yes"/>
      <point x="342" y="348"/>
      <point x="318" y="386"/>
      <point x="257" y="386" type="curve"/>
      <point x="257" y="375" type="line"/>
      <point x="305" y="375"/>
      <point x="336" y="403"/>
      <point x="336" y="467" type="curve" smooth="yes"/>
      <point x="336" y="548" type="line"/>
      <point x="312" y="548" type="line"/>
      <point x="312" y="471" type="line" smooth="yes"/>
      <point x="312" y="428"/>
      <point x="302" y="392"/>
      <point x="244" y="392" type="curve"/>
      <point x="244" y="368" type="line"/>
      <point x="304" y="368"/>
      <point x="318" y="333"/>
      <point x="318" y="280" type="curve" smooth="yes"/>
      <point x="318" y="145" type="line" smooth="yes"/>
      <point x="318" y="62"/>
      <point x="284" y="15"/>
      <point x="212" y="15" type="curve" smooth="yes"/>
      <point x="140" y="15"/>
      <point x="106" y="62"/>
      <point x="106" y="145" type="curve" smooth="yes"/>
      <point x="106" y="218" type="line" smooth="yes"/>
      <point x="106" y="335"/>
      <point x="179" y="333"/>
      <point x="179" y="456" type="curve" smooth="yes"/>
      <point x="179" y="520"/>
      <point x="158" y="553"/>
      <point x="117" y="553" type="curve" smooth="yes"/>
      <point x="79" y="553"/>
      <point x="55" y="519"/>
      <point x="55" y="473" type="curve" smooth="yes"/>
      <point x="55" y="428"/>
      <point x="80" y="394"/>
      <point x="117" y="394" type="curve" smooth="yes"/>
      <point x="154" y="394"/>
      <point x="175" y="431"/>
      <point x="175" y="473" type="curve"/>
      <point x="154" y="425" type="line"/>
      <point x="154" y="351"/>
      <point x="82" y="338"/>
      <point x="82" y="221" type="curve" smooth="yes"/>
      <point x="82" y="139" type="line" smooth="yes"/>
      <point x="82" y="48"/>
      <point x="126" y="-8"/>
    </contour>
    <contour>
      <point x="117" y="414" type="curve" smooth="yes"/>
      <point x="93" y="414"/>
      <point x="77" y="438"/>
      <point x="77" y="473" type="curve" smooth="yes"/>
      <point x="77" y="509"/>
      <point x="93" y="532"/>
      <point x="117" y="532" type="curve" smooth="yes"/>
      <point x="142" y="532"/>
      <point x="155" y="509"/>
      <point x="155" y="473" type="curve" smooth="yes"/>
      <point x="155" y="438"/>
      <point x="142" y="414"/>
    </contour>
    <contour>
      <point x="286" y="389" type="line"/>
      <point x="286" y="372" type="line"/>
      <point x="293" y="372" type="line"/>
      <point x="293" y="389" type="line"/>
    </contour>
  </outline>
</glyph>
<glyph name="soSo-thai" format="2">
  <advance width="416"/>
  <unicode hex="0E0B"/>
  <note>
uni0E0B
</note>
  <anchor x="212" y="0" name="bottom"/>
  <anchor x="335" y="0" name="bottomright"/>
  <anchor x="212" y="548" name="top"/>
  <anchor x="334" y="548" name="topright"/>
  <outline>
    <contour>
      <point x="212" y="-8" type="curve" smooth="yes"/>
      <point x="306" y="-8"/>
      <point x="340" y="58"/>
      <point x="340" y="139" type="curve" smooth="yes"/>
      <point x="340" y="277" type="line" smooth="yes"/>
      <point x="340" y="348"/>
      <point x="316" y="386"/>
      <point x="255" y="386" type="curve"/>
      <point x="255" y="375" type="line"/>
      <point x="303" y="375"/>
      <point x="334" y="403"/>
      <point x="334" y="467" type="curve" smooth="yes"/>
      <point x="334" y="548" type="line"/>
      <point x="310" y="548" type="line"/>
      <point x="310" y="471" type="line" smooth="yes"/>
      <point x="310" y="428"/>
      <point x="300" y="392"/>
      <point x="242" y="392" type="curve"/>
      <point x="242" y="368" type="line"/>
      <point x="302" y="368"/>
      <point x="316" y="333"/>
      <point x="316" y="280" type="curve" smooth="yes"/>
      <point x="316" y="145" type="line" smooth="yes"/>
      <point x="316" y="72"/>
      <point x="290" y="15"/>
      <point x="212" y="15" type="curve" smooth="yes"/>
      <point x="134" y="15"/>
      <point x="108" y="72"/>
      <point x="108" y="145" type="curve" smooth="yes"/>
      <point x="108" y="215" type="line" smooth="yes"/>
      <point x="108" y="355"/>
      <point x="205" y="340"/>
      <point x="205" y="462" type="curve" smooth="yes"/>
      <point x="205" y="491"/>
      <point x="200" y="524"/>
      <point x="196" y="548" type="curve"/>
      <point x="180" y="548" type="line"/>
      <point x="180" y="491"/>
      <point x="159" y="431"/>
      <point x="122" y="431" type="curve"/>
      <point x="131" y="418" type="line"/>
      <point x="145" y="431"/>
      <point x="149" y="452"/>
      <point x="149" y="475" type="curve" smooth="yes"/>
      <point x="149" y="519"/>
      <point x="127" y="553"/>
      <point x="92" y="553" type="curve" smooth="yes"/>
      <point x="53" y="553"/>
      <point x="33" y="520"/>
      <point x="33" y="474" type="curve" smooth="yes"/>
      <point x="33" y="426"/>
      <point x="58" y="397"/>
      <point x="95" y="397" type="curve" smooth="yes"/>
      <point x="141" y="397"/>
      <point x="188" y="442"/>
      <point x="188" y="495" type="curve"/>
      <point x="181" y="495" type="line"/>
      <point x="183" y="484"/>
      <point x="184" y="475"/>
      <point x="184" y="462" type="curve" smooth="yes"/>
      <point x="184" y="360"/>
      <point x="84" y="361"/>
      <point x="84" y="221" type="curve" smooth="yes"/>
      <point x="84" y="139" type="line" smooth="yes"/>
      <point x="84" y="58"/>
      <point x="122" y="-8"/>
    </contour>
    <contour>
      <point x="90" y="417" type="curve" smooth="yes"/>
      <point x="66" y="417"/>
      <point x="55" y="443"/>
      <point x="55" y="474" type="curve" smooth="yes"/>
      <point x="55" y="507"/>
      <point x="66" y="532"/>
      <point x="90" y="532" type="curve" smooth="yes"/>
      <point x="116" y="532"/>
      <point x="127" y="507"/>
      <point x="127" y="474" type="curve" smooth="yes"/>
      <point x="127" y="441"/>
      <point x="114" y="417"/>
    </contour>
    <contour>
      <point x="284" y="389" type="line"/>
      <point x="284" y="372" type="line"/>
      <point x="291" y="372" type="line"/>
      <point x="291" y="389" type="line"/>
    </contour>
  </outline>
</glyph>
<glyph name="choChoe-thai" format="2">
  <advance width="608"/>
  <unicode hex="0E0C"/>
  <anchor x="297" y="0" name="bottom"/>
  <anchor x="538" y="0" name="bottomright"/>
  <anchor x="296" y="548" name="top"/>
  <anchor x="538" y="548" name="topright"/>
  <outline>
    <contour>
      <point x="127" y="-5" type="curve" smooth="yes"/>
      <point x="165" y="-5"/>
      <point x="189" y="26"/>
      <point x="189" y="74" type="curve" smooth="yes"/>
      <point x="189" y="121"/>
      <point x="165" y="153"/>
      <point x="131" y="153" type="curve" smooth="yes"/>
      <point x="96" y="153"/>
      <point x="73" y="122"/>
      <point x="73" y="74" type="curve"/>
      <point x="78" y="74" type="line"/>
      <point x="78" y="93"/>
      <point x="85" y="114"/>
      <point x="90" y="114" type="curve"/>
      <point x="90" y="212" type="line" smooth="yes"/>
      <point x="90" y="282"/>
      <point x="112" y="327"/>
      <point x="166" y="327" type="curve"/>
      <point x="170" y="349" type="line"/>
      <point x="69" y="397" type="line"/>
      <point x="78" y="387" type="line"/>
      <point x="78" y="480"/>
      <point x="117" y="533"/>
      <point x="207" y="533" type="curve" smooth="yes"/>
      <point x="287" y="533"/>
      <point x="333" y="488"/>
      <point x="333" y="384" type="curve" smooth="yes"/>
      <point x="333" y="241" type="line" smooth="yes"/>
      <point x="333" y="210"/>
      <point x="334" y="179"/>
      <point x="337" y="164" type="curve"/>
      <point x="342" y="167" type="line"/>
      <point x="327" y="175"/>
      <point x="316" y="176"/>
      <point x="304" y="176" type="curve" smooth="yes"/>
      <point x="266" y="176"/>
      <point x="239" y="148"/>
      <point x="239" y="85" type="curve" smooth="yes"/>
      <point x="239" y="29"/>
      <point x="263" y="-5"/>
      <point x="302" y="-5" type="curve" smooth="yes"/>
      <point x="343" y="-5"/>
      <point x="365" y="25"/>
      <point x="365" y="81" type="curve" smooth="yes"/>
      <point x="365" y="103"/>
      <point x="364" y="125"/>
      <point x="362" y="143" type="curve"/>
      <point x="352" y="140" type="line"/>
      <point x="407" y="115"/>
      <point x="470" y="62"/>
      <point x="517" y="0" type="curve"/>
      <point x="538" y="0" type="line"/>
      <point x="538" y="548" type="line"/>
      <point x="514" y="548" type="line"/>
      <point x="514" y="18" type="line"/>
      <point x="524" y="27" type="line"/>
      <point x="476" y="86"/>
      <point x="408" y="139"/>
      <point x="350" y="166" type="curve"/>
      <point x="361" y="154" type="line"/>
      <point x="359" y="173"/>
      <point x="357" y="208"/>
      <point x="357" y="231" type="curve" smooth="yes"/>
      <point x="357" y="389" type="line" smooth="yes"/>
      <point x="357" y="502"/>
      <point x="301" y="556"/>
      <point x="207" y="556" type="curve" smooth="yes"/>
      <point x="107" y="556"/>
      <point x="54" y="493"/>
      <point x="54" y="401" type="curve" smooth="yes"/>
      <point x="54" y="378" type="line"/>
      <point x="144" y="337" type="line"/>
      <point x="146" y="342" type="line"/>
      <point x="97" y="342"/>
      <point x="66" y="292"/>
      <point x="66" y="216" type="curve" smooth="yes"/>
      <point x="66" y="77" type="line" smooth="yes"/>
      <point x="66" y="27"/>
      <point x="90" y="-5"/>
    </contour>
    <contour>
      <point x="128" y="16" type="curve" smooth="yes"/>
      <point x="105" y="16"/>
      <point x="90" y="36"/>
      <point x="90" y="74" type="curve" smooth="yes"/>
      <point x="90" y="111"/>
      <point x="105" y="132"/>
      <point x="129" y="132" type="curve" smooth="yes"/>
      <point x="152" y="132"/>
      <point x="167" y="111"/>
      <point x="167" y="74" type="curve" smooth="yes"/>
      <point x="167" y="36"/>
      <point x="152" y="16"/>
    </contour>
    <contour>
      <point x="302" y="17" type="curve" smooth="yes"/>
      <point x="278" y="17"/>
      <point x="262" y="42"/>
      <point x="262" y="85" type="curve" smooth="yes"/>
      <point x="262" y="133"/>
      <point x="280" y="154"/>
      <point x="304" y="154" type="curve" smooth="yes"/>
      <point x="317" y="154"/>
      <point x="325" y="152"/>
      <point x="337" y="145" type="curve"/>
      <point x="339" y="128"/>
      <point x="341" y="104"/>
      <point x="341" y="82" type="curve" smooth="yes"/>
      <point x="341" y="42"/>
      <point x="332" y="17"/>
    </contour>
    <contour>
      <point x="133" y="349" type="line"/>
      <point x="133" y="331" type="line"/>
      <point x="140" y="331" type="line"/>
      <point x="140" y="349" type="line"/>
    </contour>
  </outline>
</glyph>
<glyph name="yoYing-thai" format="2">
  <advance width="623"/>
  <unicode hex="0E0D"/>
  <anchor x="323" y="-220" name="bottom"/>
  <anchor x="545" y="-220" name="bottomright"/>
  <outline>
    <contour>
      <point x="421" y="-220" type="curve" smooth="yes"/>
      <point x="492" y="-220"/>
      <point x="532" y="-179"/>
      <point x="564" y="-106" type="curve"/>
      <point x="545" y="-94" type="line"/>
      <point x="516" y="-163"/>
      <point x="479" y="-199"/>
      <point x="421" y="-199" type="curve" smooth="yes"/>
      <point x="407" y="-199"/>
      <point x="389" y="-197"/>
      <point x="376" y="-192" type="curve"/>
      <point x="379" y="-196" type="line"/>
      <point x="409" y="-194"/>
      <point x="425" y="-163"/>
      <point x="425" y="-131" type="curve" smooth="yes"/>
      <point x="425" y="-89"/>
      <point x="401" y="-61"/>
      <point x="370" y="-61" type="curve" smooth="yes"/>
      <point x="339" y="-61"/>
      <point x="315" y="-87"/>
      <point x="315" y="-131" type="curve" smooth="yes"/>
      <point x="315" y="-189"/>
      <point x="358" y="-220"/>
    </contour>
    <contour>
      <point x="370" y="-178" type="curve" smooth="yes"/>
      <point x="349" y="-178"/>
      <point x="337" y="-158"/>
      <point x="337" y="-131" type="curve" smooth="yes"/>
      <point x="337" y="-102"/>
      <point x="349" y="-82"/>
      <point x="370" y="-82" type="curve" smooth="yes"/>
      <point x="391" y="-82"/>
      <point x="403" y="-102"/>
      <point x="403" y="-131" type="curve" smooth="yes"/>
      <point x="403" y="-158"/>
      <point x="391" y="-178"/>
    </contour>
    <component base="yoYing-thai.less"/>
  </outline>
</glyph>
<glyph name="doChada-thai" format="2">
  <advance width="457"/>
  <unicode hex="0E0E"/>
  <anchor x="203" y="-275" name="bottom"/>
  <anchor x="381" y="-270" name="bottomright"/>
  <anchor x="239" y="548" name="top"/>
  <anchor x="376" y="548" name="topright"/>
  <outline>
    <contour>
      <point x="175" y="-275" type="curve" smooth="yes"/>
      <point x="228" y="-275"/>
      <point x="249" y="-217"/>
      <point x="249" y="-160" type="curve" smooth="yes"/>
      <point x="249" y="-151"/>
      <point x="248" y="-140"/>
      <point x="247" y="-130" type="curve"/>
      <point x="241" y="-143" type="line"/>
      <point x="279" y="-165"/>
      <point x="325" y="-216"/>
      <point x="359" y="-270" type="curve"/>
      <point x="381" y="-270" type="line"/>
      <point x="381" y="389" type="line" smooth="yes"/>
      <point x="381" y="502"/>
      <point x="323" y="556"/>
      <point x="236" y="556" type="curve" smooth="yes"/>
      <point x="145" y="556"/>
      <point x="96" y="493"/>
      <point x="96" y="401" type="curve" smooth="yes"/>
      <point x="96" y="380" type="line"/>
      <point x="192" y="337" type="line"/>
      <point x="189" y="343" type="line"/>
      <point x="141" y="331"/>
      <point x="124" y="292"/>
      <point x="124" y="216" type="curve" smooth="yes"/>
      <point x="124" y="114" type="line"/>
      <point x="129" y="114"/>
      <point x="136" y="93"/>
      <point x="136" y="74" type="curve"/>
      <point x="141" y="74" type="line"/>
      <point x="141" y="122"/>
      <point x="118" y="153"/>
      <point x="83" y="153" type="curve" smooth="yes"/>
      <point x="49" y="153"/>
      <point x="25" y="121"/>
      <point x="25" y="74" type="curve" smooth="yes"/>
      <point x="25" y="26"/>
      <point x="49" y="-5"/>
      <point x="87" y="-5" type="curve" smooth="yes"/>
      <point x="124" y="-5"/>
      <point x="148" y="27"/>
      <point x="148" y="77" type="curve" smooth="yes"/>
      <point x="148" y="212" type="line" smooth="yes"/>
      <point x="148" y="282"/>
      <point x="157" y="315"/>
      <point x="214" y="327" type="curve"/>
      <point x="218" y="349" type="line"/>
      <point x="111" y="399" type="line"/>
      <point x="118" y="384" type="line"/>
      <point x="118" y="478"/>
      <point x="154" y="533"/>
      <point x="236" y="533" type="curve" smooth="yes"/>
      <point x="309" y="533"/>
      <point x="357" y="488"/>
      <point x="357" y="384" type="curve" smooth="yes"/>
      <point x="357" y="-258" type="line"/>
      <point x="375" y="-248" type="line"/>
      <point x="328" y="-179"/>
      <point x="247" y="-100"/>
      <point x="182" y="-100" type="curve" smooth="yes"/>
      <point x="131" y="-100"/>
      <point x="104" y="-137"/>
      <point x="104" y="-189" type="curve" smooth="yes"/>
      <point x="104" y="-241"/>
      <point x="132" y="-275"/>
    </contour>
    <contour>
      <point x="175" y="-253" type="curve" smooth="yes"/>
      <point x="146" y="-253"/>
      <point x="127" y="-231"/>
      <point x="127" y="-189" type="curve" smooth="yes"/>
      <point x="127" y="-150"/>
      <point x="147" y="-123"/>
      <point x="178" y="-123" type="curve" smooth="yes"/>
      <point x="194" y="-123"/>
      <point x="206" y="-125"/>
      <point x="226" y="-135" type="curve"/>
      <point x="228" y="-195"/>
      <point x="217" y="-253"/>
    </contour>
    <contour>
      <point x="86" y="16" type="curve" smooth="yes"/>
      <point x="62" y="16"/>
      <point x="47" y="36"/>
      <point x="47" y="74" type="curve" smooth="yes"/>
      <point x="47" y="111"/>
      <point x="62" y="132"/>
      <point x="85" y="132" type="curve" smooth="yes"/>
      <point x="109" y="132"/>
      <point x="124" y="111"/>
      <point x="124" y="74" type="curve" smooth="yes"/>
      <point x="124" y="36"/>
      <point x="109" y="16"/>
    </contour>
    <contour>
      <point x="181" y="350" type="line"/>
      <point x="181" y="332" type="line"/>
      <point x="188" y="332" type="line"/>
      <point x="188" y="350" type="line"/>
    </contour>
  </outline>
</glyph>
<glyph name="toPatak-thai" format="2">
  <advance width="457"/>
  <unicode hex="0E0F"/>
  <anchor x="203" y="-275" name="bottom"/>
  <anchor x="378" y="-275" name="bottomright"/>
  <anchor x="239" y="548" name="top"/>
  <anchor x="376" y="548" name="topright"/>
  <outline>
    <contour>
      <point x="126" y="-275" type="curve" smooth="yes"/>
      <point x="165" y="-275"/>
      <point x="185" y="-238"/>
      <point x="191" y="-192" type="curve"/>
      <point x="186" y="-192" type="line"/>
      <point x="223" y="-270" type="line"/>
      <point x="236" y="-270" type="line"/>
      <point x="274" y="-166" type="line"/>
      <point x="267" y="-166" type="line"/>
      <point x="268" y="-222"/>
      <point x="291" y="-275"/>
      <point x="331" y="-275" type="curve" smooth="yes"/>
      <point x="374" y="-275"/>
      <point x="381" y="-232"/>
      <point x="381" y="-188" type="curve" smooth="yes"/>
      <point x="381" y="389" type="line" smooth="yes"/>
      <point x="381" y="502"/>
      <point x="323" y="556"/>
      <point x="236" y="556" type="curve" smooth="yes"/>
      <point x="145" y="556"/>
      <point x="96" y="493"/>
      <point x="96" y="401" type="curve" smooth="yes"/>
      <point x="96" y="380" type="line"/>
      <point x="192" y="337" type="line"/>
      <point x="189" y="343" type="line"/>
      <point x="141" y="331"/>
      <point x="124" y="292"/>
      <point x="124" y="216" type="curve" smooth="yes"/>
      <point x="124" y="114" type="line"/>
      <point x="129" y="114"/>
      <point x="136" y="93"/>
      <point x="136" y="74" type="curve"/>
      <point x="141" y="74" type="line"/>
      <point x="141" y="122"/>
      <point x="118" y="153"/>
      <point x="83" y="153" type="curve" smooth="yes"/>
      <point x="49" y="153"/>
      <point x="25" y="121"/>
      <point x="25" y="74" type="curve" smooth="yes"/>
      <point x="25" y="26"/>
      <point x="49" y="-5"/>
      <point x="87" y="-5" type="curve" smooth="yes"/>
      <point x="124" y="-5"/>
      <point x="148" y="27"/>
      <point x="148" y="77" type="curve" smooth="yes"/>
      <point x="148" y="212" type="line" smooth="yes"/>
      <point x="148" y="282"/>
      <point x="157" y="315"/>
      <point x="214" y="327" type="curve"/>
      <point x="218" y="349" type="line"/>
      <point x="111" y="399" type="line"/>
      <point x="118" y="384" type="line"/>
      <point x="118" y="478"/>
      <point x="154" y="533"/>
      <point x="236" y="533" type="curve" smooth="yes"/>
      <point x="309" y="533"/>
      <point x="357" y="488"/>
      <point x="357" y="384" type="curve" smooth="yes"/>
      <point x="357" y="-179" type="line" smooth="yes"/>
      <point x="357" y="-219"/>
      <point x="357" y="-252"/>
      <point x="331" y="-252" type="curve" smooth="yes"/>
      <point x="304" y="-252"/>
      <point x="287" y="-216"/>
      <point x="285" y="-121" type="curve"/>
      <point x="266" y="-121" type="line"/>
      <point x="225" y="-243" type="line"/>
      <point x="233" y="-243" type="line"/>
      <point x="204" y="-179" type="line" smooth="yes"/>
      <point x="189" y="-146"/>
      <point x="170" y="-109"/>
      <point x="127" y="-109" type="curve" smooth="yes"/>
      <point x="86" y="-109"/>
      <point x="62" y="-140"/>
      <point x="62" y="-192" type="curve" smooth="yes"/>
      <point x="62" y="-239"/>
      <point x="86" y="-275"/>
    </contour>
    <contour>
      <point x="127" y="-253" type="curve" smooth="yes"/>
      <point x="100" y="-253"/>
      <point x="85" y="-229"/>
      <point x="85" y="-192" type="curve" smooth="yes"/>
      <point x="85" y="-158"/>
      <point x="98" y="-131"/>
      <point x="126" y="-131" type="curve" smooth="yes"/>
      <point x="145" y="-131"/>
      <point x="160" y="-144"/>
      <point x="172" y="-165" type="curve"/>
      <point x="172" y="-212"/>
      <point x="159" y="-253"/>
    </contour>
    <contour>
      <point x="86" y="16" type="curve" smooth="yes"/>
      <point x="62" y="16"/>
      <point x="47" y="36"/>
      <point x="47" y="74" type="curve" smooth="yes"/>
      <point x="47" y="111"/>
      <point x="62" y="132"/>
      <point x="85" y="132" type="curve" smooth="yes"/>
      <point x="109" y="132"/>
      <point x="124" y="111"/>
      <point x="124" y="74" type="curve" smooth="yes"/>
      <point x="124" y="36"/>
      <point x="109" y="16"/>
    </contour>
    <contour>
      <point x="181" y="350" type="line"/>
      <point x="181" y="332" type="line"/>
      <point x="188" y="332" type="line"/>
      <point x="188" y="350" type="line"/>
    </contour>
  </outline>
</glyph>
<glyph name="thoThan-thai" format="2">
  <advance width="422"/>
  <unicode hex="0E10"/>
  <anchor x="188" y="-275" name="bottom"/>
  <anchor x="370" y="-275" name="bottomright"/>
  <outline>
    <contour>
      <point x="89" y="-275" type="curve" smooth="yes"/>
      <point x="128" y="-275"/>
      <point x="148" y="-238"/>
      <point x="154" y="-192" type="curve"/>
      <point x="150" y="-192" type="line"/>
      <point x="186" y="-270" type="line"/>
      <point x="199" y="-270" type="line"/>
      <point x="229" y="-160" type="line"/>
      <point x="220" y="-160" type="line"/>
      <point x="226" y="-224"/>
      <point x="255" y="-275"/>
      <point x="303" y="-275" type="curve" smooth="yes"/>
      <point x="346" y="-275"/>
      <point x="373" y="-237"/>
      <point x="373" y="-158" type="curve" smooth="yes"/>
      <point x="373" y="-118" type="line" smooth="yes"/>
      <point x="373" y="-68"/>
      <point x="355" y="-33"/>
      <point x="316" y="-33" type="curve" smooth="yes"/>
      <point x="281" y="-33"/>
      <point x="261" y="-66"/>
      <point x="261" y="-106" type="curve" smooth="yes"/>
      <point x="261" y="-149"/>
      <point x="283" y="-178"/>
      <point x="317" y="-178" type="curve" smooth="yes"/>
      <point x="350" y="-178"/>
      <point x="367" y="-152"/>
      <point x="367" y="-106" type="curve"/>
      <point x="362" y="-106" type="line"/>
      <point x="362" y="-127"/>
      <point x="358" y="-146"/>
      <point x="350" y="-146" type="curve"/>
      <point x="350" y="-168" type="line" smooth="yes"/>
      <point x="350" y="-217"/>
      <point x="337" y="-252"/>
      <point x="302" y="-252" type="curve" smooth="yes"/>
      <point x="268" y="-252"/>
      <point x="243" y="-214"/>
      <point x="237" y="-121" type="curve"/>
      <point x="219" y="-121" type="line"/>
      <point x="187" y="-243" type="line"/>
      <point x="197" y="-243" type="line"/>
      <point x="167" y="-179" type="line" smooth="yes"/>
      <point x="152" y="-148"/>
      <point x="133" y="-109"/>
      <point x="90" y="-109" type="curve" smooth="yes"/>
      <point x="49" y="-109"/>
      <point x="25" y="-140"/>
      <point x="25" y="-192" type="curve" smooth="yes"/>
      <point x="25" y="-239"/>
      <point x="49" y="-275"/>
    </contour>
    <contour>
      <point x="317" y="-157" type="curve" smooth="yes"/>
      <point x="293" y="-157"/>
      <point x="283" y="-134"/>
      <point x="283" y="-106" type="curve" smooth="yes"/>
      <point x="283" y="-77"/>
      <point x="293" y="-54"/>
      <point x="317" y="-54" type="curve" smooth="yes"/>
      <point x="341" y="-54"/>
      <point x="350" y="-78"/>
      <point x="350" y="-106" type="curve" smooth="yes"/>
      <point x="350" y="-135"/>
      <point x="341" y="-157"/>
    </contour>
    <contour>
      <point x="90" y="-253" type="curve" smooth="yes"/>
      <point x="63" y="-253"/>
      <point x="48" y="-229"/>
      <point x="48" y="-192" type="curve" smooth="yes"/>
      <point x="48" y="-158"/>
      <point x="61" y="-131"/>
      <point x="89" y="-131" type="curve" smooth="yes"/>
      <point x="110" y="-131"/>
      <point x="125" y="-145"/>
      <point x="136" y="-168" type="curve"/>
      <point x="135" y="-214"/>
      <point x="121" y="-253"/>
    </contour>
    <component base="thoThan-thai.less"/>
  </outline>
</glyph>
<glyph name="thoNangmontho-thai" format="2">
  <advance width="443"/>
  <unicode hex="0E11"/>
  <anchor x="234" y="0" name="bottom"/>
  <anchor x="370" y="0" name="bottomright"/>
  <anchor x="227" y="548" name="top"/>
  <anchor x="365" y="548" name="topright"/>
  <outline>
    <contour>
      <point x="96" y="0" type="line"/>
      <point x="120" y="0" type="line"/>
      <point x="120" y="197" type="line" smooth="yes"/>
      <point x="120" y="352"/>
      <point x="221" y="533"/>
      <point x="289" y="533" type="curve" smooth="yes"/>
      <point x="337" y="533"/>
      <point x="346" y="492"/>
      <point x="346" y="427" type="curve" smooth="yes"/>
      <point x="346" y="0" type="line"/>
      <point x="370" y="0" type="line"/>
      <point x="370" y="432" type="line" smooth="yes"/>
      <point x="370" y="502"/>
      <point x="354" y="556"/>
      <point x="292" y="556" type="curve" smooth="yes"/>
      <point x="239" y="556"/>
      <point x="196" y="502"/>
      <point x="164" y="438" type="curve"/>
      <point x="174" y="436" type="line"/>
      <point x="175" y="450"/>
      <point x="176" y="465"/>
      <point x="176" y="478" type="curve" smooth="yes"/>
      <point x="176" y="501"/>
      <point x="174" y="524"/>
      <point x="172" y="548" type="curve"/>
      <point x="156" y="548" type="line"/>
      <point x="153" y="491"/>
      <point x="137" y="431"/>
      <point x="101" y="431" type="curve"/>
      <point x="108" y="414" type="line"/>
      <point x="123" y="428"/>
      <point x="128" y="451"/>
      <point x="128" y="475" type="curve" smooth="yes"/>
      <point x="128" y="519"/>
      <point x="107" y="553"/>
      <point x="72" y="553" type="curve" smooth="yes"/>
      <point x="33" y="553"/>
      <point x="12" y="520"/>
      <point x="12" y="474" type="curve" smooth="yes"/>
      <point x="12" y="426"/>
      <point x="38" y="397"/>
      <point x="75" y="397" type="curve" smooth="yes"/>
      <point x="114" y="397"/>
      <point x="164" y="432"/>
      <point x="164" y="490" type="curve"/>
      <point x="160" y="490" type="line"/>
      <point x="160" y="388"/>
      <point x="96" y="356"/>
      <point x="96" y="202" type="curve" smooth="yes"/>
    </contour>
    <contour>
      <point x="70" y="417" type="curve" smooth="yes"/>
      <point x="46" y="417"/>
      <point x="34" y="443"/>
      <point x="34" y="474" type="curve" smooth="yes"/>
      <point x="34" y="507"/>
      <point x="46" y="532"/>
      <point x="70" y="532" type="curve" smooth="yes"/>
      <point x="96" y="532"/>
      <point x="106" y="507"/>
      <point x="106" y="474" type="curve" smooth="yes"/>
      <point x="106" y="441"/>
      <point x="94" y="417"/>
    </contour>
    <contour>
      <point x="170" y="464" type="line"/>
      <point x="170" y="459" type="line"/>
      <point x="182" y="455" type="line"/>
      <point x="182" y="460" type="line"/>
    </contour>
  </outline>
</glyph>
<glyph name="thoPhuthao-thai" format="2">
  <advance width="628"/>
  <unicode hex="0E12"/>
  <anchor x="307" y="0" name="bottom"/>
  <anchor x="558" y="0" name="bottomright"/>
  <anchor x="307" y="548" name="top"/>
  <anchor x="558" y="548" name="topright"/>
  <outline>
    <contour>
      <point x="328" y="-5" type="curve" smooth="yes"/>
      <point x="369" y="-5"/>
      <point x="391" y="25"/>
      <point x="391" y="81" type="curve" smooth="yes"/>
      <point x="391" y="103"/>
      <point x="390" y="125"/>
      <point x="388" y="144" type="curve"/>
      <point x="379" y="140" type="line"/>
      <point x="435" y="113"/>
      <point x="494" y="60"/>
      <point x="537" y="0" type="curve"/>
      <point x="558" y="0" type="line"/>
      <point x="558" y="548" type="line"/>
      <point x="534" y="548" type="line"/>
      <point x="534" y="19" type="line"/>
      <point x="543" y="27" type="line"/>
      <point x="497" y="84"/>
      <point x="439" y="135"/>
      <point x="377" y="165" type="curve"/>
      <point x="387" y="154" type="line"/>
      <point x="385" y="173"/>
      <point x="383" y="208"/>
      <point x="383" y="231" type="curve" smooth="yes"/>
      <point x="383" y="383" type="line" smooth="yes"/>
      <point x="383" y="488"/>
      <point x="348" y="536"/>
      <point x="285" y="553" type="curve"/>
      <point x="220" y="476" type="line"/>
      <point x="155" y="553" type="line"/>
      <point x="90" y="525"/>
      <point x="56" y="469"/>
      <point x="56" y="344" type="curve" smooth="yes"/>
      <point x="56" y="228"/>
      <point x="72" y="192"/>
      <point x="72" y="79" type="curve" smooth="yes"/>
      <point x="72" y="0" type="line"/>
      <point x="94" y="0" type="line"/>
      <point x="226" y="170" type="line" smooth="yes"/>
      <point x="249" y="199"/>
      <point x="272" y="228"/>
      <point x="272" y="269" type="curve" smooth="yes"/>
      <point x="272" y="320"/>
      <point x="249" y="352"/>
      <point x="213" y="352" type="curve" smooth="yes"/>
      <point x="175" y="352"/>
      <point x="153" y="315"/>
      <point x="153" y="270" type="curve" smooth="yes"/>
      <point x="153" y="220"/>
      <point x="180" y="189"/>
      <point x="213" y="189" type="curve" smooth="yes"/>
      <point x="247" y="189"/>
      <point x="266" y="225"/>
      <point x="266" y="269" type="curve"/>
      <point x="258" y="269" type="line"/>
      <point x="258" y="231"/>
      <point x="240" y="199"/>
      <point x="220" y="199" type="curve"/>
      <point x="83" y="23" type="line"/>
      <point x="96" y="22" type="line"/>
      <point x="96" y="90" type="line" smooth="yes"/>
      <point x="96" y="199"/>
      <point x="80" y="239"/>
      <point x="80" y="337" type="curve" smooth="yes"/>
      <point x="80" y="455"/>
      <point x="103" y="496"/>
      <point x="149" y="525" type="curve"/>
      <point x="217" y="445" type="line"/>
      <point x="222" y="445" type="line"/>
      <point x="291" y="525" type="line"/>
      <point x="330" y="509"/>
      <point x="359" y="478"/>
      <point x="359" y="385" type="curve" smooth="yes"/>
      <point x="359" y="241" type="line" smooth="yes"/>
      <point x="359" y="210"/>
      <point x="360" y="179"/>
      <point x="363" y="164" type="curve"/>
      <point x="368" y="167" type="line"/>
      <point x="353" y="175"/>
      <point x="342" y="176"/>
      <point x="330" y="176" type="curve" smooth="yes"/>
      <point x="292" y="176"/>
      <point x="265" y="148"/>
      <point x="265" y="85" type="curve" smooth="yes"/>
      <point x="265" y="29"/>
      <point x="289" y="-5"/>
    </contour>
    <contour>
      <point x="328" y="17" type="curve" smooth="yes"/>
      <point x="304" y="17"/>
      <point x="288" y="42"/>
      <point x="288" y="85" type="curve" smooth="yes"/>
      <point x="288" y="133"/>
      <point x="306" y="154"/>
      <point x="330" y="154" type="curve" smooth="yes"/>
      <point x="343" y="154"/>
      <point x="351" y="152"/>
      <point x="363" y="145" type="curve"/>
      <point x="365" y="128"/>
      <point x="367" y="104"/>
      <point x="367" y="82" type="curve" smooth="yes"/>
      <point x="367" y="42"/>
      <point x="358" y="17"/>
    </contour>
    <contour>
      <point x="213" y="210" type="curve" smooth="yes"/>
      <point x="190" y="210"/>
      <point x="175" y="235"/>
      <point x="175" y="270" type="curve" smooth="yes"/>
      <point x="175" y="305"/>
      <point x="190" y="331"/>
      <point x="213" y="331" type="curve" smooth="yes"/>
      <point x="236" y="331"/>
      <point x="250" y="306"/>
      <point x="250" y="270" type="curve" smooth="yes"/>
      <point x="250" y="232"/>
      <point x="236" y="210"/>
    </contour>
  </outline>
</glyph>
<glyph name="noNen-thai" format="2">
  <advance width="618"/>
  <unicode hex="0E13"/>
  <anchor x="330" y="0" name="bottom"/>
  <anchor x="564" y="0" name="bottomright"/>
  <anchor x="297" y="548" name="top"/>
  <anchor x="539" y="548" name="topright"/>
  <outline>
    <contour>
      <point x="127" y="-5" type="curve" smooth="yes"/>
      <point x="165" y="-5"/>
      <point x="189" y="26"/>
      <point x="189" y="74" type="curve" smooth="yes"/>
      <point x="189" y="121"/>
      <point x="165" y="153"/>
      <point x="131" y="153" type="curve" smooth="yes"/>
      <point x="96" y="153"/>
      <point x="73" y="122"/>
      <point x="73" y="74" type="curve"/>
      <point x="78" y="74" type="line"/>
      <point x="78" y="93"/>
      <point x="85" y="114"/>
      <point x="90" y="114" type="curve"/>
      <point x="90" y="212" type="line" smooth="yes"/>
      <point x="90" y="282"/>
      <point x="112" y="327"/>
      <point x="166" y="327" type="curve"/>
      <point x="170" y="349" type="line"/>
      <point x="69" y="397" type="line"/>
      <point x="78" y="387" type="line"/>
      <point x="78" y="480"/>
      <point x="112" y="533"/>
      <point x="199" y="533" type="curve" smooth="yes"/>
      <point x="276" y="533"/>
      <point x="318" y="488"/>
      <point x="318" y="384" type="curve" smooth="yes"/>
      <point x="318" y="0" type="line"/>
      <point x="341" y="0" type="line"/>
      <point x="374" y="86"/>
      <point x="420" y="126"/>
      <point x="484" y="144" type="curve"/>
      <point x="482" y="147" type="line"/>
      <point x="466" y="130"/>
      <point x="459" y="103"/>
      <point x="459" y="78" type="curve" smooth="yes"/>
      <point x="459" y="26"/>
      <point x="484" y="-5"/>
      <point x="522" y="-5" type="curve" smooth="yes"/>
      <point x="559" y="-5"/>
      <point x="584" y="26"/>
      <point x="584" y="78" type="curve" smooth="yes"/>
      <point x="584" y="124"/>
      <point x="561" y="163"/>
      <point x="520" y="163" type="curve"/>
      <point x="524" y="159" type="line"/>
      <point x="535" y="167"/>
      <point x="540" y="185"/>
      <point x="540" y="207" type="curve" smooth="yes"/>
      <point x="540" y="548" type="line"/>
      <point x="516" y="548" type="line"/>
      <point x="516" y="212" type="line" smooth="yes"/>
      <point x="516" y="183"/>
      <point x="509" y="174"/>
      <point x="486" y="168" type="curve" smooth="yes"/>
      <point x="446" y="158"/>
      <point x="371" y="124"/>
      <point x="338" y="44" type="curve"/>
      <point x="342" y="42" type="line"/>
      <point x="342" y="389" type="line" smooth="yes"/>
      <point x="342" y="502"/>
      <point x="290" y="556"/>
      <point x="199" y="556" type="curve" smooth="yes"/>
      <point x="102" y="556"/>
      <point x="54" y="493"/>
      <point x="54" y="401" type="curve" smooth="yes"/>
      <point x="54" y="378" type="line"/>
      <point x="144" y="337" type="line"/>
      <point x="146" y="342" type="line"/>
      <point x="97" y="342"/>
      <point x="66" y="292"/>
      <point x="66" y="216" type="curve" smooth="yes"/>
      <point x="66" y="77" type="line" smooth="yes"/>
      <point x="66" y="27"/>
      <point x="90" y="-5"/>
    </contour>
    <contour>
      <point x="128" y="16" type="curve" smooth="yes"/>
      <point x="105" y="16"/>
      <point x="90" y="36"/>
      <point x="90" y="74" type="curve" smooth="yes"/>
      <point x="90" y="111"/>
      <point x="105" y="132"/>
      <point x="129" y="132" type="curve" smooth="yes"/>
      <point x="152" y="132"/>
      <point x="167" y="111"/>
      <point x="167" y="74" type="curve" smooth="yes"/>
      <point x="167" y="36"/>
      <point x="152" y="16"/>
    </contour>
    <contour>
      <point x="133" y="331" type="line"/>
      <point x="140" y="331" type="line"/>
      <point x="140" y="349" type="line"/>
      <point x="133" y="349" type="line"/>
    </contour>
    <contour>
      <point x="334" y="49" type="line"/>
      <point x="350" y="49" type="line"/>
      <point x="350" y="57" type="line"/>
      <point x="334" y="57" type="line"/>
    </contour>
    <contour>
      <point x="522" y="16" type="curve" smooth="yes"/>
      <point x="495" y="16"/>
      <point x="481" y="38"/>
      <point x="481" y="78" type="curve" smooth="yes"/>
      <point x="481" y="103"/>
      <point x="487" y="125"/>
      <point x="497" y="139" type="curve"/>
      <point x="503" y="142"/>
      <point x="511" y="143"/>
      <point x="520" y="143" type="curve" smooth="yes"/>
      <point x="548" y="143"/>
      <point x="562" y="115"/>
      <point x="562" y="78" type="curve" smooth="yes"/>
      <point x="562" y="38"/>
      <point x="547" y="16"/>
    </contour>
  </outline>
</glyph>
<glyph name="doDek-thai" format="2">
  <advance width="443"/>
  <unicode hex="0E14"/>
  <anchor x="218" y="0" name="bottom"/>
  <anchor x="367" y="0" name="bottomright"/>
  <anchor x="212" y="548" name="top"/>
  <anchor x="362" y="548" name="topright"/>
  <outline>
    <contour>
      <point x="69" y="0" type="line"/>
      <point x="91" y="0" type="line"/>
      <point x="223" y="170" type="line" smooth="yes"/>
      <point x="247" y="201"/>
      <point x="268" y="228"/>
      <point x="268" y="269" type="curve" smooth="yes"/>
      <point x="268" y="320"/>
      <point x="246" y="352"/>
      <point x="210" y="352" type="curve" smooth="yes"/>
      <point x="172" y="352"/>
      <point x="151" y="315"/>
      <point x="151" y="270" type="curve" smooth="yes"/>
      <point x="151" y="220"/>
      <point x="177" y="189"/>
      <point x="210" y="189" type="curve" smooth="yes"/>
      <point x="243" y="189"/>
      <point x="262" y="223"/>
      <point x="262" y="269" type="curve"/>
      <point x="255" y="269" type="line"/>
      <point x="255" y="230"/>
      <point x="236" y="199"/>
      <point x="215" y="199" type="curve"/>
      <point x="82" y="26" type="line"/>
      <point x="93" y="15" type="line"/>
      <point x="93" y="85" type="line" smooth="yes"/>
      <point x="93" y="194"/>
      <point x="80" y="233"/>
      <point x="80" y="330" type="curve" smooth="yes"/>
      <point x="80" y="476"/>
      <point x="135" y="533"/>
      <point x="212" y="533" type="curve" smooth="yes"/>
      <point x="297" y="533"/>
      <point x="343" y="476"/>
      <point x="343" y="343" type="curve" smooth="yes"/>
      <point x="343" y="0" type="line"/>
      <point x="367" y="0" type="line"/>
      <point x="367" y="348" type="line" smooth="yes"/>
      <point x="367" y="485"/>
      <point x="313" y="556"/>
      <point x="213" y="556" type="curve" smooth="yes"/>
      <point x="122" y="556"/>
      <point x="56" y="492"/>
      <point x="56" y="340" type="curve" smooth="yes"/>
      <point x="56" y="223"/>
      <point x="69" y="187"/>
      <point x="69" y="74" type="curve" smooth="yes"/>
    </contour>
    <contour>
      <point x="210" y="210" type="curve" smooth="yes"/>
      <point x="187" y="210"/>
      <point x="173" y="235"/>
      <point x="173" y="270" type="curve" smooth="yes"/>
      <point x="173" y="305"/>
      <point x="187" y="331"/>
      <point x="210" y="331" type="curve" smooth="yes"/>
      <point x="233" y="331"/>
      <point x="246" y="306"/>
      <point x="246" y="270" type="curve" smooth="yes"/>
      <point x="246" y="232"/>
      <point x="233" y="210"/>
    </contour>
  </outline>
</glyph>
<glyph name="toTao-thai" format="2">
  <advance width="448"/>
  <unicode hex="0E15"/>
  <note>
uni0E15
</note>
  <anchor x="221" y="0" name="bottom"/>
  <anchor x="372" y="0" name="bottomright"/>
  <anchor x="217" y="548" name="top"/>
  <anchor x="367" y="548" name="topright"/>
  <outline>
    <contour>
      <point x="69" y="0" type="line"/>
      <point x="90" y="0" type="line"/>
      <point x="228" y="171" type="line" smooth="yes"/>
      <point x="252" y="200"/>
      <point x="273" y="227"/>
      <point x="273" y="269" type="curve" smooth="yes"/>
      <point x="273" y="320"/>
      <point x="251" y="352"/>
      <point x="215" y="352" type="curve" smooth="yes"/>
      <point x="177" y="352"/>
      <point x="156" y="315"/>
      <point x="156" y="270" type="curve" smooth="yes"/>
      <point x="156" y="220"/>
      <point x="182" y="189"/>
      <point x="215" y="189" type="curve" smooth="yes"/>
      <point x="248" y="189"/>
      <point x="267" y="223"/>
      <point x="267" y="269" type="curve"/>
      <point x="260" y="269" type="line"/>
      <point x="260" y="230"/>
      <point x="241" y="199"/>
      <point x="220" y="199" type="curve"/>
      <point x="83" y="28" type="line"/>
      <point x="93" y="16" type="line"/>
      <point x="93" y="85" type="line" smooth="yes"/>
      <point x="93" y="194"/>
      <point x="80" y="227"/>
      <point x="80" y="329" type="curve" smooth="yes"/>
      <point x="80" y="447"/>
      <point x="103" y="497"/>
      <point x="146" y="525" type="curve"/>
      <point x="214" y="445" type="line"/>
      <point x="219" y="445" type="line"/>
      <point x="288" y="525" type="line"/>
      <point x="321" y="515"/>
      <point x="348" y="481"/>
      <point x="348" y="385" type="curve" smooth="yes"/>
      <point x="348" y="0" type="line"/>
      <point x="372" y="0" type="line"/>
      <point x="372" y="383" type="line" smooth="yes"/>
      <point x="372" y="491"/>
      <point x="343" y="537"/>
      <point x="281" y="553" type="curve"/>
      <point x="217" y="476" type="line"/>
      <point x="152" y="553" type="line"/>
      <point x="87" y="525"/>
      <point x="56" y="461"/>
      <point x="56" y="337" type="curve" smooth="yes"/>
      <point x="56" y="220"/>
      <point x="69" y="187"/>
      <point x="69" y="74" type="curve" smooth="yes"/>
    </contour>
    <contour>
      <point x="215" y="210" type="curve" smooth="yes"/>
      <point x="192" y="210"/>
      <point x="178" y="235"/>
      <point x="178" y="270" type="curve" smooth="yes"/>
      <point x="178" y="305"/>
      <point x="192" y="331"/>
      <point x="215" y="331" type="curve" smooth="yes"/>
      <point x="238" y="331"/>
      <point x="251" y="306"/>
      <point x="251" y="270" type="curve" smooth="yes"/>
      <point x="251" y="232"/>
      <point x="238" y="210"/>
    </contour>
  </outline>
</glyph>
<glyph name="thoThahan-thai" format="2">
  <advance width="474"/>
  <unicode hex="0E17"/>
  <anchor x="267" y="0" name="bottom"/>
  <anchor x="401" y="0" name="bottomright"/>
  <anchor x="267" y="548" name="top"/>
  <anchor x="396" y="548" name="topright"/>
  <outline>
    <contour>
      <point x="132" y="0" type="line"/>
      <point x="156" y="0" type="line"/>
      <point x="156" y="257" type="line" smooth="yes"/>
      <point x="156" y="401"/>
      <point x="210" y="533"/>
      <point x="292" y="533" type="curve" smooth="yes"/>
      <point x="359" y="533"/>
      <point x="377" y="476"/>
      <point x="377" y="396" type="curve" smooth="yes"/>
      <point x="377" y="0" type="line"/>
      <point x="401" y="0" type="line"/>
      <point x="401" y="401" type="line" smooth="yes"/>
      <point x="401" y="496"/>
      <point x="369" y="556"/>
      <point x="294" y="556" type="curve" smooth="yes"/>
      <point x="204" y="556"/>
      <point x="160" y="451"/>
      <point x="142" y="346" type="curve"/>
      <point x="156" y="339" type="line"/>
      <point x="156" y="471" type="line" smooth="yes"/>
      <point x="156" y="521"/>
      <point x="132" y="553"/>
      <point x="95" y="553" type="curve" smooth="yes"/>
      <point x="57" y="553"/>
      <point x="33" y="522"/>
      <point x="33" y="474" type="curve" smooth="yes"/>
      <point x="33" y="427"/>
      <point x="57" y="396"/>
      <point x="91" y="396" type="curve" smooth="yes"/>
      <point x="126" y="396"/>
      <point x="149" y="426"/>
      <point x="149" y="474" type="curve"/>
      <point x="144" y="474" type="line"/>
      <point x="144" y="455"/>
      <point x="137" y="434"/>
      <point x="132" y="434" type="curve"/>
    </contour>
    <contour>
      <point x="93" y="416" type="curve" smooth="yes"/>
      <point x="70" y="416"/>
      <point x="55" y="437"/>
      <point x="55" y="474" type="curve" smooth="yes"/>
      <point x="55" y="512"/>
      <point x="70" y="532"/>
      <point x="94" y="532" type="curve" smooth="yes"/>
      <point x="117" y="532"/>
      <point x="132" y="512"/>
      <point x="132" y="474" type="curve" smooth="yes"/>
      <point x="132" y="437"/>
      <point x="117" y="416"/>
    </contour>
    <contour>
      <point x="150" y="415" type="line"/>
      <point x="150" y="406" type="line"/>
      <point x="164" y="406" type="line"/>
      <point x="164" y="415" type="line"/>
    </contour>
  </outline>
</glyph>
<glyph name="thoThong-thai" format="2">
  <advance width="367"/>
  <unicode hex="0E18"/>
  <anchor x="189" y="0" name="bottom"/>
  <anchor x="317" y="0" name="bottomright"/>
  <anchor x="183" y="548" name="top"/>
  <anchor x="311" y="547" name="topright"/>
  <outline>
    <contour>
      <point x="58" y="0" type="line"/>
      <point x="235" y="0" type="line" smooth="yes"/>
      <point x="299" y="0"/>
      <point x="320" y="37"/>
      <point x="320" y="100" type="curve" smooth="yes"/>
      <point x="320" y="223" type="line" smooth="yes"/>
      <point x="320" y="303"/>
      <point x="295" y="325"/>
      <point x="231" y="338" type="curve" smooth="yes"/>
      <point x="79" y="370" type="line"/>
      <point x="79" y="415" type="line" smooth="yes"/>
      <point x="79" y="488"/>
      <point x="98" y="532"/>
      <point x="158" y="532" type="curve" smooth="yes"/>
      <point x="200" y="532"/>
      <point x="233" y="520"/>
      <point x="266" y="520" type="curve" smooth="yes"/>
      <point x="280" y="520"/>
      <point x="298" y="522"/>
      <point x="313" y="528" type="curve"/>
      <point x="310" y="551" type="line"/>
      <point x="295" y="544"/>
      <point x="278" y="543"/>
      <point x="261" y="543" type="curve" smooth="yes"/>
      <point x="231" y="543"/>
      <point x="196" y="555"/>
      <point x="161" y="555" type="curve" smooth="yes"/>
      <point x="80" y="555"/>
      <point x="55" y="499"/>
      <point x="55" y="413" type="curve" smooth="yes"/>
      <point x="55" y="351" type="line"/>
      <point x="230" y="314" type="line" smooth="yes"/>
      <point x="286" y="302"/>
      <point x="296" y="281"/>
      <point x="296" y="219" type="curve" smooth="yes"/>
      <point x="296" y="107" type="line" smooth="yes"/>
      <point x="296" y="38"/>
      <point x="272" y="23"/>
      <point x="235" y="23" type="curve" smooth="yes"/>
      <point x="82" y="23" type="line"/>
      <point x="82" y="242" type="line"/>
      <point x="58" y="242" type="line"/>
    </contour>
  </outline>
</glyph>
<glyph name="noNu-thai" format="2">
  <advance width="454"/>
  <unicode hex="0E19"/>
  <note>
uni0E19
</note>
  <anchor x="232" y="0" name="bottom"/>
  <anchor x="400" y="0" name="bottomright"/>
  <anchor x="242" y="548" name="top"/>
  <anchor x="376" y="548" name="topright"/>
  <outline>
    <contour>
      <point x="358" y="-5" type="curve" smooth="yes"/>
      <point x="395" y="-5"/>
      <point x="420" y="26"/>
      <point x="420" y="78" type="curve" smooth="yes"/>
      <point x="420" y="124"/>
      <point x="397" y="163"/>
      <point x="356" y="163" type="curve"/>
      <point x="360" y="159" type="line"/>
      <point x="371" y="167"/>
      <point x="376" y="185"/>
      <point x="376" y="207" type="curve" smooth="yes"/>
      <point x="376" y="548" type="line"/>
      <point x="352" y="548" type="line"/>
      <point x="352" y="212" type="line" smooth="yes"/>
      <point x="352" y="186"/>
      <point x="347" y="174"/>
      <point x="324" y="169" type="curve" smooth="yes"/>
      <point x="272" y="158"/>
      <point x="181" y="126"/>
      <point x="148" y="35" type="curve"/>
      <point x="156" y="47" type="line"/>
      <point x="156" y="471" type="line" smooth="yes"/>
      <point x="156" y="521"/>
      <point x="132" y="553"/>
      <point x="95" y="553" type="curve" smooth="yes"/>
      <point x="57" y="553"/>
      <point x="33" y="522"/>
      <point x="33" y="474" type="curve" smooth="yes"/>
      <point x="33" y="426"/>
      <point x="57" y="395"/>
      <point x="91" y="395" type="curve" smooth="yes"/>
      <point x="127" y="395"/>
      <point x="149" y="426"/>
      <point x="149" y="474" type="curve"/>
      <point x="144" y="474" type="line"/>
      <point x="144" y="455"/>
      <point x="137" y="434"/>
      <point x="132" y="434" type="curve"/>
      <point x="132" y="0" type="line"/>
      <point x="154" y="0" type="line"/>
      <point x="189" y="90"/>
      <point x="246" y="126"/>
      <point x="320" y="144" type="curve"/>
      <point x="318" y="147" type="line"/>
      <point x="302" y="130"/>
      <point x="295" y="103"/>
      <point x="295" y="78" type="curve" smooth="yes"/>
      <point x="295" y="26"/>
      <point x="320" y="-5"/>
    </contour>
    <contour>
      <point x="153" y="51" type="line"/>
      <point x="163" y="51" type="line"/>
      <point x="163" y="56" type="line"/>
      <point x="153" y="56" type="line"/>
    </contour>
    <contour>
      <point x="93" y="416" type="curve" smooth="yes"/>
      <point x="70" y="416"/>
      <point x="55" y="436"/>
      <point x="55" y="474" type="curve" smooth="yes"/>
      <point x="55" y="512"/>
      <point x="70" y="532"/>
      <point x="94" y="532" type="curve" smooth="yes"/>
      <point x="117" y="532"/>
      <point x="132" y="512"/>
      <point x="132" y="474" type="curve" smooth="yes"/>
      <point x="132" y="436"/>
      <point x="117" y="416"/>
    </contour>
    <contour>
      <point x="358" y="16" type="curve" smooth="yes"/>
      <point x="331" y="16"/>
      <point x="317" y="38"/>
      <point x="317" y="78" type="curve" smooth="yes"/>
      <point x="317" y="103"/>
      <point x="323" y="125"/>
      <point x="333" y="139" type="curve"/>
      <point x="339" y="142"/>
      <point x="347" y="143"/>
      <point x="356" y="143" type="curve" smooth="yes"/>
      <point x="384" y="143"/>
      <point x="398" y="115"/>
      <point x="398" y="78" type="curve" smooth="yes"/>
      <point x="398" y="38"/>
      <point x="383" y="16"/>
    </contour>
  </outline>
</glyph>
<glyph name="boBaimai-thai" format="2">
  <advance width="462"/>
  <unicode hex="0E1A"/>
  <note>
uni0E1A
</note>
  <anchor x="239" y="0" name="bottom"/>
  <anchor x="379" y="0" name="bottomright"/>
  <anchor x="248" y="548" name="top"/>
  <anchor x="384" y="548" name="topright"/>
  <outline>
    <contour>
      <point x="156" y="23" type="line"/>
      <point x="156" y="471" type="line" smooth="yes"/>
      <point x="156" y="521"/>
      <point x="132" y="553"/>
      <point x="95" y="553" type="curve" smooth="yes"/>
      <point x="57" y="553"/>
      <point x="33" y="522"/>
      <point x="33" y="474" type="curve" smooth="yes"/>
      <point x="33" y="426"/>
      <point x="57" y="395"/>
      <point x="91" y="395" type="curve" smooth="yes"/>
      <point x="127" y="395"/>
      <point x="149" y="426"/>
      <point x="149" y="474" type="curve"/>
      <point x="144" y="474" type="line"/>
      <point x="144" y="455"/>
      <point x="137" y="434"/>
      <point x="132" y="434" type="curve"/>
      <point x="132" y="0" type="line"/>
      <point x="301" y="0" type="line" smooth="yes"/>
      <point x="368" y="0"/>
      <point x="384" y="33"/>
      <point x="384" y="97" type="curve" smooth="yes"/>
      <point x="384" y="548" type="line"/>
      <point x="360" y="548" type="line"/>
      <point x="360" y="104" type="line" smooth="yes"/>
      <point x="360" y="37"/>
      <point x="342" y="23"/>
      <point x="300" y="23" type="curve" smooth="yes"/>
    </contour>
    <contour>
      <point x="93" y="416" type="curve" smooth="yes"/>
      <point x="70" y="416"/>
      <point x="55" y="436"/>
      <point x="55" y="474" type="curve" smooth="yes"/>
      <point x="55" y="512"/>
      <point x="70" y="532"/>
      <point x="94" y="532" type="curve" smooth="yes"/>
      <point x="117" y="532"/>
      <point x="132" y="512"/>
      <point x="132" y="474" type="curve" smooth="yes"/>
      <point x="132" y="436"/>
      <point x="117" y="416"/>
    </contour>
  </outline>
</glyph>
<glyph name="foFa-thai" format="2">
  <advance width="432"/>
  <unicode hex="0E1D"/>
  <anchor x="218" y="0" name="bottom"/>
  <anchor x="362" y="0" name="bottomright"/>
  <anchor x="187" y="549" name="top"/>
  <anchor x="293" y="549" name="topright"/>
  <outline>
    <contour>
      <point x="73" y="471" type="curve" smooth="yes"/>
      <point x="73" y="0" type="line"/>
      <point x="98" y="0" type="line"/>
      <point x="217" y="203" type="line"/>
      <point x="336" y="0" type="line"/>
      <point x="362" y="0" type="line"/>
      <point x="362" y="740" type="line"/>
      <point x="338" y="740" type="line"/>
      <point x="338" y="18" type="line"/>
      <point x="351" y="20" type="line"/>
      <point x="224" y="237" type="line"/>
      <point x="210" y="237" type="line"/>
      <point x="83" y="20" type="line"/>
      <point x="97" y="18" type="line"/>
      <point x="97" y="434" type="line"/>
      <point x="92" y="434"/>
      <point x="85" y="455"/>
      <point x="85" y="474" type="curve"/>
      <point x="80" y="474" type="line"/>
      <point x="80" y="426"/>
      <point x="102" y="395"/>
      <point x="138" y="395" type="curve" smooth="yes"/>
      <point x="172" y="395"/>
      <point x="196" y="426"/>
      <point x="196" y="474" type="curve" smooth="yes"/>
      <point x="196" y="522"/>
      <point x="172" y="553"/>
      <point x="134" y="553" type="curve" smooth="yes"/>
      <point x="97" y="553"/>
      <point x="73" y="521"/>
    </contour>
    <contour>
      <point x="136" y="416" type="curve" smooth="yes"/>
      <point x="112" y="416"/>
      <point x="97" y="436"/>
      <point x="97" y="474" type="curve" smooth="yes"/>
      <point x="97" y="512"/>
      <point x="112" y="532"/>
      <point x="135" y="532" type="curve" smooth="yes"/>
      <point x="159" y="532"/>
      <point x="174" y="512"/>
      <point x="174" y="474" type="curve" smooth="yes"/>
      <point x="174" y="436"/>
      <point x="159" y="416"/>
    </contour>
    <contour>
      <point x="90" y="40" type="line"/>
      <point x="104" y="40" type="line"/>
      <point x="104" y="48" type="line"/>
      <point x="90" y="48" type="line"/>
    </contour>
    <contour>
      <point x="210" y="201" type="line"/>
      <point x="224" y="201" type="line"/>
      <point x="224" y="209" type="line"/>
      <point x="210" y="209" type="line"/>
    </contour>
    <contour>
      <point x="331" y="39" type="line"/>
      <point x="345" y="39" type="line"/>
      <point x="345" y="47" type="line"/>
      <point x="331" y="47" type="line"/>
    </contour>
  </outline>
</glyph>
<glyph name="phoPhan-thai" format="2">
  <advance width="494"/>
  <unicode hex="0E1E"/>
  <note>
uni0E1E
</note>
  <anchor x="280" y="0" name="bottom"/>
  <anchor x="424" y="0" name="bottomright"/>
  <anchor x="269" y="548" name="top"/>
  <anchor x="424" y="548" name="topright"/>
  <outline>
    <contour>
      <point x="132" y="0" type="line"/>
      <point x="163" y="0" type="line"/>
      <point x="271" y="488" type="line"/>
      <point x="267" y="488" type="line"/>
      <point x="396" y="0" type="line"/>
      <point x="424" y="0" type="line"/>
      <point x="424" y="548" type="line"/>
      <point x="400" y="548" type="line"/>
      <point x="400" y="201" type="line" smooth="yes"/>
      <point x="400" y="139"/>
      <point x="402" y="91"/>
      <point x="404" y="38" type="curve"/>
      <point x="410" y="38" type="line"/>
      <point x="279" y="531" type="line"/>
      <point x="259" y="531" type="line"/>
      <point x="149" y="45" type="line"/>
      <point x="152" y="45" type="line"/>
      <point x="154" y="96"/>
      <point x="156" y="142"/>
      <point x="156" y="201" type="curve" smooth="yes"/>
      <point x="156" y="471" type="line" smooth="yes"/>
      <point x="156" y="521"/>
      <point x="132" y="553"/>
      <point x="95" y="553" type="curve" smooth="yes"/>
      <point x="57" y="553"/>
      <point x="33" y="522"/>
      <point x="33" y="474" type="curve" smooth="yes"/>
      <point x="33" y="427"/>
      <point x="57" y="396"/>
      <point x="91" y="396" type="curve" smooth="yes"/>
      <point x="126" y="396"/>
      <point x="149" y="426"/>
      <point x="149" y="474" type="curve"/>
      <point x="144" y="474" type="line"/>
      <point x="144" y="455"/>
      <point x="137" y="434"/>
      <point x="132" y="434" type="curve"/>
    </contour>
    <contour>
      <point x="93" y="416" type="curve" smooth="yes"/>
      <point x="70" y="416"/>
      <point x="55" y="437"/>
      <point x="55" y="474" type="curve" smooth="yes"/>
      <point x="55" y="512"/>
      <point x="70" y="532"/>
      <point x="94" y="532" type="curve" smooth="yes"/>
      <point x="117" y="532"/>
      <point x="132" y="512"/>
      <point x="132" y="474" type="curve" smooth="yes"/>
      <point x="132" y="437"/>
      <point x="117" y="416"/>
    </contour>
    <contour>
      <point x="146" y="73" type="line"/>
      <point x="146" y="56" type="line"/>
      <point x="165" y="56" type="line"/>
      <point x="165" y="73" type="line"/>
    </contour>
    <contour>
      <point x="261" y="489" type="line"/>
      <point x="261" y="477" type="line"/>
      <point x="279" y="477" type="line"/>
      <point x="279" y="489" type="line"/>
    </contour>
    <contour>
      <point x="393" y="73" type="line"/>
      <point x="393" y="56" type="line"/>
      <point x="412" y="56" type="line"/>
      <point x="412" y="73" type="line"/>
    </contour>
  </outline>
</glyph>
<glyph name="foFan-thai" format="2">
  <advance width="494"/>
  <unicode hex="0E1F"/>
  <anchor x="280" y="0" name="bottom"/>
  <anchor x="424" y="0" name="bottomright"/>
  <anchor x="235" y="549" name="top"/>
  <anchor x="355" y="549" name="topright"/>
  <outline>
    <contour>
      <point x="132" y="0" type="line"/>
      <point x="163" y="0" type="line"/>
      <point x="271" y="488" type="line"/>
      <point x="267" y="488" type="line"/>
      <point x="396" y="0" type="line"/>
      <point x="424" y="0" type="line"/>
      <point x="424" y="740" type="line"/>
      <point x="400" y="740" type="line"/>
      <point x="400" y="202" type="line" smooth="yes"/>
      <point x="400" y="139"/>
      <point x="402" y="91"/>
      <point x="404" y="38" type="curve"/>
      <point x="410" y="38" type="line"/>
      <point x="279" y="531" type="line"/>
      <point x="259" y="531" type="line"/>
      <point x="149" y="45" type="line"/>
      <point x="152" y="45" type="line"/>
      <point x="154" y="96"/>
      <point x="156" y="142"/>
      <point x="156" y="202" type="curve" smooth="yes"/>
      <point x="156" y="471" type="line" smooth="yes"/>
      <point x="156" y="520"/>
      <point x="132" y="553"/>
      <point x="95" y="553" type="curve" smooth="yes"/>
      <point x="57" y="553"/>
      <point x="33" y="521"/>
      <point x="33" y="474" type="curve" smooth="yes"/>
      <point x="33" y="426"/>
      <point x="57" y="395"/>
      <point x="91" y="395" type="curve" smooth="yes"/>
      <point x="127" y="395"/>
      <point x="149" y="426"/>
      <point x="149" y="474" type="curve"/>
      <point x="144" y="474" type="line"/>
      <point x="144" y="455"/>
      <point x="137" y="434"/>
      <point x="132" y="434" type="curve"/>
    </contour>
    <contour>
      <point x="93" y="416" type="curve" smooth="yes"/>
      <point x="70" y="416"/>
      <point x="55" y="436"/>
      <point x="55" y="474" type="curve" smooth="yes"/>
      <point x="55" y="511"/>
      <point x="70" y="532"/>
      <point x="94" y="532" type="curve" smooth="yes"/>
      <point x="117" y="532"/>
      <point x="132" y="511"/>
      <point x="132" y="474" type="curve" smooth="yes"/>
      <point x="132" y="436"/>
      <point x="117" y="416"/>
    </contour>
    <contour>
      <point x="146" y="73" type="line"/>
      <point x="146" y="56" type="line"/>
      <point x="165" y="56" type="line"/>
      <point x="165" y="73" type="line"/>
    </contour>
    <contour>
      <point x="261" y="488" type="line"/>
      <point x="261" y="476" type="line"/>
      <point x="279" y="476" type="line"/>
      <point x="279" y="488" type="line"/>
    </contour>
    <contour>
      <point x="393" y="73" type="line"/>
      <point x="393" y="56" type="line"/>
      <point x="412" y="56" type="line"/>
      <point x="412" y="73" type="line"/>
    </contour>
  </outline>
</glyph>
<glyph name="phoSamphao-thai" format="2">
  <advance width="455"/>
  <unicode hex="0E20"/>
  <anchor x="252" y="0" name="bottom"/>
  <anchor x="379" y="0" name="bottomright"/>
  <anchor x="238" y="548" name="top"/>
  <anchor x="374" y="548" name="topright"/>
  <outline>
    <contour>
      <point x="87" y="-5" type="curve" smooth="yes"/>
      <point x="124" y="-5"/>
      <point x="148" y="27"/>
      <point x="148" y="77" type="curve" smooth="yes"/>
      <point x="148" y="212" type="line" smooth="yes"/>
      <point x="148" y="282"/>
      <point x="157" y="315"/>
      <point x="214" y="327" type="curve"/>
      <point x="218" y="349" type="line"/>
      <point x="111" y="399" type="line"/>
      <point x="118" y="384" type="line"/>
      <point x="118" y="478"/>
      <point x="154" y="533"/>
      <point x="236" y="533" type="curve" smooth="yes"/>
      <point x="309" y="533"/>
      <point x="355" y="488"/>
      <point x="355" y="384" type="curve" smooth="yes"/>
      <point x="355" y="0" type="line"/>
      <point x="379" y="0" type="line"/>
      <point x="379" y="389" type="line" smooth="yes"/>
      <point x="379" y="502"/>
      <point x="323" y="556"/>
      <point x="236" y="556" type="curve" smooth="yes"/>
      <point x="145" y="556"/>
      <point x="96" y="493"/>
      <point x="96" y="401" type="curve" smooth="yes"/>
      <point x="96" y="380" type="line"/>
      <point x="192" y="337" type="line"/>
      <point x="189" y="343" type="line"/>
      <point x="141" y="331"/>
      <point x="124" y="292"/>
      <point x="124" y="216" type="curve" smooth="yes"/>
      <point x="124" y="114" type="line"/>
      <point x="129" y="114"/>
      <point x="136" y="93"/>
      <point x="136" y="74" type="curve"/>
      <point x="141" y="74" type="line"/>
      <point x="141" y="122"/>
      <point x="118" y="153"/>
      <point x="83" y="153" type="curve" smooth="yes"/>
      <point x="49" y="153"/>
      <point x="25" y="121"/>
      <point x="25" y="74" type="curve" smooth="yes"/>
      <point x="25" y="26"/>
      <point x="49" y="-5"/>
    </contour>
    <contour>
      <point x="86" y="16" type="curve" smooth="yes"/>
      <point x="62" y="16"/>
      <point x="47" y="36"/>
      <point x="47" y="74" type="curve" smooth="yes"/>
      <point x="47" y="111"/>
      <point x="62" y="132"/>
      <point x="85" y="132" type="curve" smooth="yes"/>
      <point x="109" y="132"/>
      <point x="124" y="111"/>
      <point x="124" y="74" type="curve" smooth="yes"/>
      <point x="124" y="36"/>
      <point x="109" y="16"/>
    </contour>
    <contour>
      <point x="181" y="350" type="line"/>
      <point x="181" y="332" type="line"/>
      <point x="188" y="332" type="line"/>
      <point x="188" y="350" type="line"/>
    </contour>
  </outline>
</glyph>
<glyph name="moMa-thai" format="2">
  <advance width="448"/>
  <unicode hex="0E21"/>
  <note>
uni0E21
</note>
  <anchor x="240" y="0" name="bottom"/>
  <anchor x="378" y="0" name="bottomright"/>
  <anchor x="247" y="548" name="top"/>
  <anchor x="378" y="548" name="topright"/>
  <outline>
    <contour>
      <point x="155" y="434" type="curve"/>
      <point x="155" y="241" type="line" smooth="yes"/>
      <point x="155" y="210"/>
      <point x="156" y="179"/>
      <point x="159" y="164" type="curve"/>
      <point x="164" y="167" type="line"/>
      <point x="149" y="175"/>
      <point x="138" y="176"/>
      <point x="126" y="176" type="curve" smooth="yes"/>
      <point x="88" y="176"/>
      <point x="61" y="148"/>
      <point x="61" y="85" type="curve" smooth="yes"/>
      <point x="61" y="29"/>
      <point x="85" y="-5"/>
      <point x="124" y="-5" type="curve" smooth="yes"/>
      <point x="165" y="-5"/>
      <point x="187" y="25"/>
      <point x="187" y="81" type="curve" smooth="yes"/>
      <point x="187" y="103"/>
      <point x="186" y="125"/>
      <point x="184" y="143" type="curve"/>
      <point x="174" y="140" type="line"/>
      <point x="235" y="112"/>
      <point x="299" y="59"/>
      <point x="357" y="0" type="curve"/>
      <point x="378" y="0" type="line"/>
      <point x="378" y="548" type="line"/>
      <point x="354" y="548" type="line"/>
      <point x="354" y="18" type="line"/>
      <point x="364" y="27" type="line"/>
      <point x="307" y="85"/>
      <point x="236" y="136"/>
      <point x="172" y="166" type="curve"/>
      <point x="183" y="154" type="line"/>
      <point x="181" y="173"/>
      <point x="179" y="208"/>
      <point x="179" y="231" type="curve" smooth="yes"/>
      <point x="179" y="471" type="line" smooth="yes"/>
      <point x="179" y="521"/>
      <point x="155" y="553"/>
      <point x="118" y="553" type="curve" smooth="yes"/>
      <point x="80" y="553"/>
      <point x="56" y="522"/>
      <point x="56" y="474" type="curve" smooth="yes"/>
      <point x="56" y="426"/>
      <point x="80" y="395"/>
      <point x="114" y="395" type="curve" smooth="yes"/>
      <point x="150" y="395"/>
      <point x="172" y="426"/>
      <point x="172" y="474" type="curve"/>
      <point x="167" y="474" type="line"/>
      <point x="167" y="455"/>
      <point x="160" y="434"/>
    </contour>
    <contour>
      <point x="116" y="416" type="curve" smooth="yes"/>
      <point x="93" y="416"/>
      <point x="78" y="436"/>
      <point x="78" y="474" type="curve" smooth="yes"/>
      <point x="78" y="512"/>
      <point x="93" y="532"/>
      <point x="117" y="532" type="curve" smooth="yes"/>
      <point x="140" y="532"/>
      <point x="155" y="512"/>
      <point x="155" y="474" type="curve" smooth="yes"/>
      <point x="155" y="436"/>
      <point x="140" y="416"/>
    </contour>
    <contour>
      <point x="124" y="17" type="curve" smooth="yes"/>
      <point x="100" y="17"/>
      <point x="84" y="42"/>
      <point x="84" y="85" type="curve" smooth="yes"/>
      <point x="84" y="133"/>
      <point x="102" y="154"/>
      <point x="126" y="154" type="curve" smooth="yes"/>
      <point x="139" y="154"/>
      <point x="147" y="152"/>
      <point x="159" y="145" type="curve"/>
      <point x="161" y="128"/>
      <point x="163" y="104"/>
      <point x="163" y="82" type="curve" smooth="yes"/>
      <point x="163" y="42"/>
      <point x="154" y="17"/>
    </contour>
    <contour>
      <point x="349" y="37" type="line"/>
      <point x="349" y="29" type="line"/>
      <point x="362" y="33" type="line"/>
      <point x="362" y="41" type="line"/>
    </contour>
  </outline>
</glyph>
<glyph name="yoYak-thai" format="2">
  <advance width="416"/>
  <unicode hex="0E22"/>
  <note>
uni0E22
</note>
  <anchor x="220" y="0" name="bottom"/>
  <anchor x="333" y="0" name="bottomright"/>
  <anchor x="202" y="548" name="top"/>
  <anchor x="338" y="548" name="topright"/>
  <outline>
    <contour>
      <point x="74" y="0" type="line"/>
      <point x="240" y="0" type="line" smooth="yes"/>
      <point x="316" y="0"/>
      <point x="338" y="42"/>
      <point x="338" y="114" type="curve" smooth="yes"/>
      <point x="338" y="548" type="line"/>
      <point x="314" y="548" type="line"/>
      <point x="314" y="118" type="line" smooth="yes"/>
      <point x="314" y="43"/>
      <point x="289" y="23"/>
      <point x="242" y="23" type="curve" smooth="yes"/>
      <point x="88" y="23" type="line"/>
      <point x="98" y="13" type="line"/>
      <point x="98" y="152" type="line" smooth="yes"/>
      <point x="98" y="233"/>
      <point x="125" y="257"/>
      <point x="169" y="257" type="curve" smooth="yes"/>
      <point x="211" y="257" type="line"/>
      <point x="211" y="280" type="line"/>
      <point x="169" y="280" type="line" smooth="yes"/>
      <point x="130" y="280"/>
      <point x="90" y="296"/>
      <point x="90" y="403" type="curve" smooth="yes"/>
      <point x="90" y="416"/>
      <point x="91" y="429"/>
      <point x="92" y="442" type="curve"/>
      <point x="89" y="442"/>
      <point x="86" y="459"/>
      <point x="86" y="473" type="curve"/>
      <point x="84" y="473" type="line"/>
      <point x="84" y="426"/>
      <point x="106" y="394"/>
      <point x="141" y="394" type="curve" smooth="yes"/>
      <point x="181" y="394"/>
      <point x="200" y="427"/>
      <point x="200" y="473" type="curve" smooth="yes"/>
      <point x="200" y="520"/>
      <point x="181" y="553"/>
      <point x="141" y="553" type="curve" smooth="yes"/>
      <point x="93" y="553"/>
      <point x="66" y="495"/>
      <point x="66" y="408" type="curve" smooth="yes"/>
      <point x="66" y="308"/>
      <point x="96" y="265"/>
      <point x="148" y="265" type="curve"/>
      <point x="148" y="269" type="line"/>
      <point x="86" y="269"/>
      <point x="74" y="216"/>
      <point x="74" y="152" type="curve" smooth="yes"/>
    </contour>
    <contour>
      <point x="141" y="414" type="curve" smooth="yes"/>
      <point x="117" y="414"/>
      <point x="101" y="438"/>
      <point x="101" y="473" type="curve" smooth="yes"/>
      <point x="101" y="506"/>
      <point x="116" y="532"/>
      <point x="141" y="532" type="curve" smooth="yes"/>
      <point x="169" y="532"/>
      <point x="178" y="507"/>
      <point x="178" y="473" type="curve" smooth="yes"/>
      <point x="178" y="440"/>
      <point x="169" y="414"/>
    </contour>
    <contour>
      <point x="126" y="277" type="line"/>
      <point x="126" y="258" type="line"/>
      <point x="138" y="258" type="line"/>
      <point x="138" y="277" type="line"/>
    </contour>
  </outline>
</glyph>
<glyph name="roRua-thai" format="2">
  <advance width="343"/>
  <unicode hex="0E23"/>
  <note>
uni0E23
</note>
  <anchor x="147" y="0" name="bottom"/>
  <anchor x="257" y="0" name="bottomright"/>
  <anchor x="178" y="548" name="top"/>
  <anchor x="282" y="547" name="topright"/>
  <outline>
    <contour>
      <point x="260" y="259" type="line" smooth="yes"/>
      <point x="260" y="331"/>
      <point x="230" y="346"/>
      <point x="174" y="352" type="curve" smooth="yes"/>
      <point x="58" y="365" type="line"/>
      <point x="58" y="415" type="line" smooth="yes"/>
      <point x="58" y="491"/>
      <point x="82" y="532"/>
      <point x="133" y="532" type="curve" smooth="yes"/>
      <point x="175" y="532"/>
      <point x="205" y="520"/>
      <point x="238" y="520" type="curve" smooth="yes"/>
      <point x="252" y="520"/>
      <point x="270" y="522"/>
      <point x="285" y="528" type="curve"/>
      <point x="282" y="551" type="line"/>
      <point x="267" y="544"/>
      <point x="250" y="543"/>
      <point x="233" y="543" type="curve" smooth="yes"/>
      <point x="203" y="543"/>
      <point x="171" y="555"/>
      <point x="136" y="555" type="curve" smooth="yes"/>
      <point x="65" y="555"/>
      <point x="34" y="503"/>
      <point x="34" y="413" type="curve" smooth="yes"/>
      <point x="34" y="345" type="line"/>
      <point x="174" y="330" type="line" smooth="yes"/>
      <point x="222" y="325"/>
      <point x="236" y="309"/>
      <point x="236" y="255" type="curve" smooth="yes"/>
      <point x="236" y="112" type="line"/>
      <point x="241" y="112"/>
      <point x="248" y="91"/>
      <point x="248" y="72" type="curve"/>
      <point x="253" y="72" type="line"/>
      <point x="253" y="120"/>
      <point x="231" y="151"/>
      <point x="195" y="151" type="curve" smooth="yes"/>
      <point x="161" y="151"/>
      <point x="137" y="120"/>
      <point x="137" y="72" type="curve" smooth="yes"/>
      <point x="137" y="24"/>
      <point x="161" y="-7"/>
      <point x="199" y="-7" type="curve" smooth="yes"/>
      <point x="236" y="-7"/>
      <point x="260" y="25"/>
      <point x="260" y="75" type="curve" smooth="yes"/>
    </contour>
    <contour>
      <point x="197" y="130" type="curve" smooth="yes"/>
      <point x="221" y="130"/>
      <point x="236" y="110"/>
      <point x="236" y="72" type="curve" smooth="yes"/>
      <point x="236" y="34"/>
      <point x="221" y="14"/>
      <point x="198" y="14" type="curve" smooth="yes"/>
      <point x="174" y="14"/>
      <point x="159" y="34"/>
      <point x="159" y="72" type="curve" smooth="yes"/>
      <point x="159" y="110"/>
      <point x="174" y="130"/>
    </contour>
  </outline>
</glyph>
<glyph name="ru-thai" format="2">
  <advance width="422"/>
  <unicode hex="0E24"/>
  <anchor x="194" y="0" name="bottom"/>
  <anchor x="277" y="0" name="bottomright"/>
  <anchor x="200" y="548" name="top"/>
  <anchor x="341" y="548" name="topright"/>
  <outline>
    <contour>
      <point x="322" y="-260" type="line"/>
      <point x="346" y="-260" type="line"/>
      <point x="346" y="389" type="line" smooth="yes"/>
      <point x="346" y="502"/>
      <point x="293" y="556"/>
      <point x="201" y="556" type="curve" smooth="yes"/>
      <point x="103" y="556"/>
      <point x="54" y="493"/>
      <point x="54" y="401" type="curve" smooth="yes"/>
      <point x="54" y="378" type="line"/>
      <point x="144" y="337" type="line"/>
      <point x="146" y="342" type="line"/>
      <point x="97" y="342"/>
      <point x="66" y="292"/>
      <point x="66" y="216" type="curve" smooth="yes"/>
      <point x="66" y="77" type="line" smooth="yes"/>
      <point x="66" y="27"/>
      <point x="90" y="-5"/>
      <point x="127" y="-5" type="curve" smooth="yes"/>
      <point x="165" y="-5"/>
      <point x="189" y="26"/>
      <point x="189" y="74" type="curve" smooth="yes"/>
      <point x="189" y="121"/>
      <point x="165" y="153"/>
      <point x="131" y="153" type="curve" smooth="yes"/>
      <point x="96" y="153"/>
      <point x="73" y="122"/>
      <point x="73" y="74" type="curve"/>
      <point x="78" y="74" type="line"/>
      <point x="78" y="93"/>
      <point x="85" y="114"/>
      <point x="90" y="114" type="curve"/>
      <point x="90" y="212" type="line" smooth="yes"/>
      <point x="90" y="282"/>
      <point x="112" y="327"/>
      <point x="166" y="327" type="curve"/>
      <point x="170" y="349" type="line"/>
      <point x="69" y="397" type="line"/>
      <point x="78" y="387" type="line"/>
      <point x="78" y="480"/>
      <point x="113" y="533"/>
      <point x="201" y="533" type="curve" smooth="yes"/>
      <point x="279" y="533"/>
      <point x="322" y="488"/>
      <point x="322" y="384" type="curve" smooth="yes"/>
    </contour>
    <contour>
      <point x="128" y="16" type="curve" smooth="yes"/>
      <point x="105" y="16"/>
      <point x="90" y="36"/>
      <point x="90" y="74" type="curve" smooth="yes"/>
      <point x="90" y="111"/>
      <point x="105" y="132"/>
      <point x="129" y="132" type="curve" smooth="yes"/>
      <point x="152" y="132"/>
      <point x="167" y="111"/>
      <point x="167" y="74" type="curve" smooth="yes"/>
      <point x="167" y="36"/>
      <point x="152" y="16"/>
    </contour>
    <contour>
      <point x="133" y="349" type="line"/>
      <point x="133" y="331" type="line"/>
      <point x="140" y="331" type="line"/>
      <point x="140" y="349" type="line"/>
    </contour>
  </outline>
</glyph>
<glyph name="loLing-thai" format="2">
  <advance width="402"/>
  <unicode hex="0E25"/>
  <anchor x="192" y="0" name="bottom"/>
  <anchor x="326" y="0" name="bottomright"/>
  <anchor x="192" y="548" name="top"/>
  <anchor x="321" y="548" name="topright"/>
  <outline>
    <contour>
      <point x="119" y="-5" type="curve" smooth="yes"/>
      <point x="157" y="-5"/>
      <point x="181" y="26"/>
      <point x="181" y="74" type="curve" smooth="yes"/>
      <point x="181" y="121"/>
      <point x="157" y="153"/>
      <point x="123" y="153" type="curve" smooth="yes"/>
      <point x="88" y="153"/>
      <point x="65" y="122"/>
      <point x="65" y="74" type="curve"/>
      <point x="70" y="74" type="line"/>
      <point x="70" y="93"/>
      <point x="77" y="114"/>
      <point x="82" y="114" type="curve"/>
      <point x="82" y="193" type="line" smooth="yes"/>
      <point x="82" y="283"/>
      <point x="125" y="312"/>
      <point x="183" y="312" type="curve" smooth="yes"/>
      <point x="249" y="312"/>
      <point x="302" y="253"/>
      <point x="302" y="201" type="curve" smooth="yes"/>
      <point x="302" y="0" type="line"/>
      <point x="326" y="0" type="line"/>
      <point x="326" y="386" type="line" smooth="yes"/>
      <point x="326" y="501"/>
      <point x="282" y="556"/>
      <point x="194" y="556" type="curve" smooth="yes"/>
      <point x="143" y="556"/>
      <point x="97" y="538"/>
      <point x="58" y="512" type="curve"/>
      <point x="65" y="486" type="line"/>
      <point x="97" y="512"/>
      <point x="147" y="533"/>
      <point x="189" y="533" type="curve" smooth="yes"/>
      <point x="280" y="533"/>
      <point x="302" y="468"/>
      <point x="302" y="381" type="curve" smooth="yes"/>
      <point x="302" y="226" type="line"/>
      <point x="320" y="201" type="line"/>
      <point x="320" y="281"/>
      <point x="251" y="335"/>
      <point x="184" y="335" type="curve" smooth="yes"/>
      <point x="117" y="335"/>
      <point x="58" y="301"/>
      <point x="58" y="196" type="curve" smooth="yes"/>
      <point x="58" y="77" type="line" smooth="yes"/>
      <point x="58" y="27"/>
      <point x="82" y="-5"/>
    </contour>
    <contour>
      <point x="120" y="16" type="curve" smooth="yes"/>
      <point x="97" y="16"/>
      <point x="82" y="36"/>
      <point x="82" y="74" type="curve" smooth="yes"/>
      <point x="82" y="111"/>
      <point x="97" y="132"/>
      <point x="121" y="132" type="curve" smooth="yes"/>
      <point x="144" y="132"/>
      <point x="159" y="111"/>
      <point x="159" y="74" type="curve" smooth="yes"/>
      <point x="159" y="36"/>
      <point x="144" y="16"/>
    </contour>
    <contour>
      <point x="294" y="270" type="line"/>
      <point x="294" y="259" type="line"/>
      <point x="313" y="259" type="line"/>
      <point x="313" y="270" type="line"/>
    </contour>
  </outline>
</glyph>
<glyph name="woWaen-thai" format="2">
  <advance width="339"/>
  <unicode hex="0E27"/>
  <anchor x="132" y="0" name="bottom"/>
  <anchor x="260" y="0" name="bottomright"/>
  <anchor x="154" y="548" name="top"/>
  <anchor x="258" y="548" name="topright"/>
  <outline>
    <contour>
      <point x="263" y="400" type="line" smooth="yes"/>
      <point x="263" y="514"/>
      <point x="209" y="556"/>
      <point x="137" y="556" type="curve" smooth="yes"/>
      <point x="91" y="556"/>
      <point x="55" y="541"/>
      <point x="24" y="520" type="curve"/>
      <point x="30" y="498" type="line"/>
      <point x="63" y="520"/>
      <point x="96" y="533"/>
      <point x="137" y="533" type="curve" smooth="yes"/>
      <point x="201" y="533"/>
      <point x="239" y="489"/>
      <point x="239" y="395" type="curve" smooth="yes"/>
      <point x="239" y="114" type="line"/>
      <point x="244" y="114"/>
      <point x="251" y="93"/>
      <point x="251" y="74" type="curve"/>
      <point x="256" y="74" type="line"/>
      <point x="256" y="122"/>
      <point x="234" y="153"/>
      <point x="198" y="153" type="curve" smooth="yes"/>
      <point x="164" y="153"/>
      <point x="140" y="122"/>
      <point x="140" y="74" type="curve" smooth="yes"/>
      <point x="140" y="26"/>
      <point x="164" y="-5"/>
      <point x="202" y="-5" type="curve" smooth="yes"/>
      <point x="239" y="-5"/>
      <point x="263" y="27"/>
      <point x="263" y="77" type="curve" smooth="yes"/>
    </contour>
    <contour>
      <point x="200" y="132" type="curve" smooth="yes"/>
      <point x="224" y="132"/>
      <point x="239" y="112"/>
      <point x="239" y="74" type="curve" smooth="yes"/>
      <point x="239" y="36"/>
      <point x="224" y="16"/>
      <point x="201" y="16" type="curve" smooth="yes"/>
      <point x="177" y="16"/>
      <point x="162" y="36"/>
      <point x="162" y="74" type="curve" smooth="yes"/>
      <point x="162" y="112"/>
      <point x="177" y="132"/>
    </contour>
  </outline>
</glyph>
<glyph name="soSala-thai" format="2">
  <advance width="436"/>
  <unicode hex="0E28"/>
  <anchor x="219" y="0" name="bottom"/>
  <anchor x="362" y="0" name="bottomright"/>
  <anchor x="209" y="548" name="top"/>
  <anchor x="358" y="546" name="topright"/>
  <outline>
    <contour>
      <point x="75" y="0" type="line"/>
      <point x="99" y="0" type="line"/>
      <point x="99" y="117" type="line" smooth="yes"/>
      <point x="99" y="208"/>
      <point x="145" y="289"/>
      <point x="170" y="302" type="curve"/>
      <point x="167" y="310" type="line"/>
      <point x="161" y="300"/>
      <point x="158" y="283"/>
      <point x="158" y="269" type="curve" smooth="yes"/>
      <point x="158" y="218"/>
      <point x="184" y="188"/>
      <point x="218" y="188" type="curve" smooth="yes"/>
      <point x="254" y="188"/>
      <point x="277" y="225"/>
      <point x="277" y="270" type="curve" smooth="yes"/>
      <point x="277" y="320"/>
      <point x="252" y="352"/>
      <point x="216" y="352" type="curve" smooth="yes"/>
      <point x="155" y="352"/>
      <point x="88" y="251"/>
      <point x="88" y="157" type="curve"/>
      <point x="94" y="157" type="line"/>
      <point x="94" y="229"/>
      <point x="80" y="254"/>
      <point x="80" y="342" type="curve" smooth="yes"/>
      <point x="80" y="474"/>
      <point x="121" y="533"/>
      <point x="213" y="533" type="curve" smooth="yes"/>
      <point x="305" y="533"/>
      <point x="338" y="468"/>
      <point x="338" y="360" type="curve" smooth="yes"/>
      <point x="338" y="0" type="line"/>
      <point x="362" y="0" type="line"/>
      <point x="362" y="365" type="line" smooth="yes"/>
      <point x="362" y="445"/>
      <point x="343" y="489"/>
      <point x="312" y="521" type="curve"/>
      <point x="285" y="533" type="line"/>
      <point x="285" y="525"/>
      <point x="303" y="517"/>
      <point x="318" y="517" type="curve" smooth="yes"/>
      <point x="346" y="517"/>
      <point x="378" y="526"/>
      <point x="399" y="541" type="curve"/>
      <point x="393" y="568" type="line"/>
      <point x="363" y="546"/>
      <point x="331" y="540"/>
      <point x="304" y="540" type="curve" smooth="yes"/>
      <point x="284" y="540"/>
      <point x="265" y="556"/>
      <point x="213" y="556" type="curve" smooth="yes"/>
      <point x="102" y="556"/>
      <point x="56" y="484"/>
      <point x="56" y="347" type="curve" smooth="yes"/>
      <point x="56" y="239"/>
      <point x="75" y="218"/>
      <point x="75" y="121" type="curve" smooth="yes"/>
    </contour>
    <contour>
      <point x="218" y="209" type="curve" smooth="yes"/>
      <point x="195" y="209"/>
      <point x="180" y="234"/>
      <point x="180" y="270" type="curve" smooth="yes"/>
      <point x="180" y="308"/>
      <point x="194" y="331"/>
      <point x="217" y="331" type="curve" smooth="yes"/>
      <point x="240" y="331"/>
      <point x="255" y="305"/>
      <point x="255" y="270" type="curve" smooth="yes"/>
      <point x="255" y="235"/>
      <point x="241" y="209"/>
    </contour>
    <contour>
      <point x="85" y="204" type="line"/>
      <point x="85" y="196" type="line"/>
      <point x="98" y="196" type="line"/>
      <point x="98" y="204" type="line"/>
    </contour>
    <contour>
      <point x="312" y="528" type="line"/>
      <point x="309" y="510" type="line"/>
      <point x="316" y="510" type="line"/>
      <point x="319" y="528" type="line"/>
    </contour>
  </outline>
</glyph>
<glyph name="soRusi-thai" format="2">
  <advance width="477"/>
  <unicode hex="0E29"/>
  <anchor x="264" y="0" name="bottom"/>
  <anchor x="392" y="0" name="bottomright"/>
  <anchor x="254" y="548" name="top"/>
  <anchor x="396" y="548" name="topright"/>
  <outline>
    <contour>
      <point x="156" y="11" type="line"/>
      <point x="156" y="471" type="line" smooth="yes"/>
      <point x="156" y="521"/>
      <point x="132" y="553"/>
      <point x="95" y="553" type="curve" smooth="yes"/>
      <point x="57" y="553"/>
      <point x="33" y="522"/>
      <point x="33" y="474" type="curve" smooth="yes"/>
      <point x="33" y="426"/>
      <point x="57" y="395"/>
      <point x="91" y="395" type="curve" smooth="yes"/>
      <point x="127" y="395"/>
      <point x="148" y="426"/>
      <point x="149" y="474" type="curve"/>
      <point x="144" y="474" type="line"/>
      <point x="144" y="455"/>
      <point x="137" y="434"/>
      <point x="132" y="434" type="curve"/>
      <point x="132" y="0" type="line"/>
      <point x="313" y="0" type="line" smooth="yes"/>
      <point x="380" y="0"/>
      <point x="396" y="33"/>
      <point x="396" y="97" type="curve" smooth="yes"/>
      <point x="396" y="548" type="line"/>
      <point x="372" y="548" type="line"/>
      <point x="372" y="102" type="line"/>
      <point x="372" y="35"/>
      <point x="356" y="23"/>
      <point x="314" y="23" type="curve" smooth="yes"/>
      <point x="144" y="23" type="line"/>
    </contour>
    <contour>
      <point x="93" y="416" type="curve" smooth="yes"/>
      <point x="70" y="416"/>
      <point x="55" y="436"/>
      <point x="55" y="474" type="curve" smooth="yes"/>
      <point x="55" y="512"/>
      <point x="70" y="532"/>
      <point x="94" y="532" type="curve" smooth="yes"/>
      <point x="117" y="532"/>
      <point x="132" y="512"/>
      <point x="132" y="474" type="curve" smooth="yes"/>
      <point x="132" y="436"/>
      <point x="117" y="416"/>
    </contour>
    <contour>
      <point x="327" y="224" type="curve" smooth="yes"/>
      <point x="400" y="224"/>
      <point x="448" y="264"/>
      <point x="484" y="339" type="curve"/>
      <point x="466" y="355" type="line"/>
      <point x="434" y="280"/>
      <point x="385" y="247"/>
      <point x="327" y="247" type="curve" smooth="yes"/>
      <point x="312" y="247"/>
      <point x="297" y="248"/>
      <point x="284" y="253" type="curve"/>
      <point x="284" y="245" type="line"/>
      <point x="311" y="245"/>
      <point x="328" y="277"/>
      <point x="328" y="313" type="curve" smooth="yes"/>
      <point x="328" y="358"/>
      <point x="304" y="385"/>
      <point x="273" y="385" type="curve" smooth="yes"/>
      <point x="243" y="385"/>
      <point x="218" y="358"/>
      <point x="218" y="313" type="curve" smooth="yes"/>
      <point x="218" y="254"/>
      <point x="264" y="224"/>
    </contour>
    <contour>
      <point x="273" y="265" type="curve" smooth="yes"/>
      <point x="253" y="265"/>
      <point x="240" y="283"/>
      <point x="240" y="313" type="curve" smooth="yes"/>
      <point x="240" y="343"/>
      <point x="253" y="364"/>
      <point x="273" y="364" type="curve" smooth="yes"/>
      <point x="294" y="364"/>
      <point x="306" y="343"/>
      <point x="306" y="313" type="curve" smooth="yes"/>
      <point x="306" y="283"/>
      <point x="295" y="265"/>
    </contour>
  </outline>
</glyph>
<glyph name="soSua-thai" format="2">
  <advance width="410"/>
  <unicode hex="0E2A"/>
  <note>
uni0E2A
</note>
  <anchor x="192" y="0" name="bottom"/>
  <anchor x="326" y="0" name="bottomright"/>
  <anchor x="192" y="548" name="top"/>
  <anchor x="326" y="548" name="topright"/>
  <outline>
    <contour>
      <point x="119" y="-5" type="curve" smooth="yes"/>
      <point x="157" y="-5"/>
      <point x="181" y="26"/>
      <point x="181" y="74" type="curve" smooth="yes"/>
      <point x="181" y="121"/>
      <point x="157" y="153"/>
      <point x="123" y="153" type="curve" smooth="yes"/>
      <point x="87" y="153"/>
      <point x="65" y="122"/>
      <point x="65" y="74" type="curve"/>
      <point x="70" y="74" type="line"/>
      <point x="70" y="93"/>
      <point x="77" y="114"/>
      <point x="82" y="114" type="curve"/>
      <point x="82" y="193" type="line" smooth="yes"/>
      <point x="82" y="283"/>
      <point x="125" y="312"/>
      <point x="183" y="312" type="curve" smooth="yes"/>
      <point x="249" y="312"/>
      <point x="302" y="253"/>
      <point x="302" y="201" type="curve" smooth="yes"/>
      <point x="302" y="0" type="line"/>
      <point x="326" y="0" type="line"/>
      <point x="326" y="386" type="line" smooth="yes"/>
      <point x="326" y="451"/>
      <point x="312" y="498"/>
      <point x="283" y="526" type="curve"/>
      <point x="265" y="533" type="line"/>
      <point x="265" y="523"/>
      <point x="289" y="517"/>
      <point x="299" y="517" type="curve" smooth="yes"/>
      <point x="328" y="517"/>
      <point x="358" y="526"/>
      <point x="379" y="541" type="curve"/>
      <point x="373" y="568" type="line"/>
      <point x="344" y="546"/>
      <point x="311" y="540"/>
      <point x="284" y="540" type="curve" smooth="yes"/>
      <point x="263" y="540"/>
      <point x="235" y="556"/>
      <point x="194" y="556" type="curve" smooth="yes"/>
      <point x="143" y="556"/>
      <point x="97" y="538"/>
      <point x="58" y="512" type="curve"/>
      <point x="65" y="486" type="line"/>
      <point x="97" y="512"/>
      <point x="147" y="533"/>
      <point x="189" y="533" type="curve" smooth="yes"/>
      <point x="280" y="533"/>
      <point x="302" y="468"/>
      <point x="302" y="381" type="curve" smooth="yes"/>
      <point x="302" y="226" type="line"/>
      <point x="320" y="201" type="line"/>
      <point x="320" y="281"/>
      <point x="251" y="335"/>
      <point x="184" y="335" type="curve" smooth="yes"/>
      <point x="118" y="335"/>
      <point x="58" y="302"/>
      <point x="58" y="196" type="curve" smooth="yes"/>
      <point x="58" y="77" type="line" smooth="yes"/>
      <point x="58" y="27"/>
      <point x="82" y="-5"/>
    </contour>
    <contour>
      <point x="120" y="16" type="curve" smooth="yes"/>
      <point x="97" y="16"/>
      <point x="82" y="36"/>
      <point x="82" y="74" type="curve" smooth="yes"/>
      <point x="82" y="111"/>
      <point x="97" y="132"/>
      <point x="121" y="132" type="curve" smooth="yes"/>
      <point x="144" y="132"/>
      <point x="159" y="111"/>
      <point x="159" y="74" type="curve" smooth="yes"/>
      <point x="159" y="36"/>
      <point x="144" y="16"/>
    </contour>
    <contour>
      <point x="294" y="270" type="line"/>
      <point x="294" y="259" type="line"/>
      <point x="313" y="259" type="line"/>
      <point x="313" y="270" type="line"/>
    </contour>
    <contour>
      <point x="287" y="528" type="line"/>
      <point x="284" y="510" type="line"/>
      <point x="291" y="510" type="line"/>
      <point x="294" y="528" type="line"/>
    </contour>
  </outline>
</glyph>
<glyph name="hoHip-thai" format="2">
  <advance width="460"/>
  <unicode hex="0E2B"/>
  <note>
uni0E2B
</note>
  <anchor x="260" y="0" name="bottom"/>
  <anchor x="388" y="0" name="bottomright"/>
  <anchor x="238" y="548" name="top"/>
  <anchor x="388" y="548" name="topright"/>
  <outline>
    <contour>
      <point x="148" y="114" type="line"/>
      <point x="148" y="103" type="line"/>
      <point x="165" y="103" type="line"/>
      <point x="165" y="114" type="line"/>
    </contour>
    <contour>
      <point x="156" y="201" type="curve" smooth="yes"/>
      <point x="156" y="471" type="line" smooth="yes"/>
      <point x="156" y="521"/>
      <point x="132" y="553"/>
      <point x="95" y="553" type="curve" smooth="yes"/>
      <point x="57" y="553"/>
      <point x="33" y="522"/>
      <point x="33" y="474" type="curve" smooth="yes"/>
      <point x="33" y="426"/>
      <point x="57" y="395"/>
      <point x="91" y="395" type="curve" smooth="yes"/>
      <point x="127" y="395"/>
      <point x="149" y="426"/>
      <point x="149" y="474" type="curve"/>
      <point x="144" y="474" type="line"/>
      <point x="144" y="455"/>
      <point x="137" y="434"/>
      <point x="132" y="434" type="curve"/>
      <point x="132" y="0" type="line"/>
      <point x="156" y="0" type="line"/>
      <point x="196" y="235"/>
      <point x="255" y="381"/>
      <point x="329" y="381" type="curve" smooth="yes"/>
      <point x="358" y="381"/>
      <point x="364" y="353"/>
      <point x="364" y="319" type="curve" smooth="yes"/>
      <point x="364" y="0" type="line"/>
      <point x="388" y="0" type="line"/>
      <point x="388" y="322" type="line" smooth="yes"/>
      <point x="388" y="364"/>
      <point x="376" y="401"/>
      <point x="337" y="401" type="curve"/>
      <point x="337" y="391" type="line"/>
      <point x="371" y="391"/>
      <point x="393" y="439"/>
      <point x="393" y="475" type="curve" smooth="yes"/>
      <point x="393" y="523"/>
      <point x="368" y="553"/>
      <point x="333" y="553" type="curve" smooth="yes"/>
      <point x="298" y="553"/>
      <point x="273" y="523"/>
      <point x="273" y="475" type="curve" smooth="yes"/>
      <point x="273" y="440"/>
      <point x="293" y="394"/>
      <point x="325" y="394" type="curve"/>
      <point x="325" y="402" type="line"/>
      <point x="246" y="402"/>
      <point x="173" y="256"/>
      <point x="145" y="45" type="curve"/>
      <point x="152" y="45" type="line"/>
      <point x="154" y="96"/>
      <point x="156" y="142"/>
    </contour>
    <contour>
      <point x="93" y="416" type="curve" smooth="yes"/>
      <point x="70" y="416"/>
      <point x="55" y="436"/>
      <point x="55" y="474" type="curve" smooth="yes"/>
      <point x="55" y="512"/>
      <point x="70" y="532"/>
      <point x="94" y="532" type="curve" smooth="yes"/>
      <point x="117" y="532"/>
      <point x="132" y="512"/>
      <point x="132" y="474" type="curve" smooth="yes"/>
      <point x="132" y="436"/>
      <point x="117" y="416"/>
    </contour>
    <contour>
      <point x="296" y="475" type="curve" smooth="yes"/>
      <point x="296" y="508"/>
      <point x="307" y="532"/>
      <point x="333" y="532" type="curve" smooth="yes"/>
      <point x="359" y="532"/>
      <point x="370" y="508"/>
      <point x="370" y="475" type="curve" smooth="yes"/>
      <point x="370" y="444"/>
      <point x="358" y="417"/>
      <point x="333" y="406" type="curve"/>
      <point x="308" y="417"/>
      <point x="296" y="444"/>
    </contour>
  </outline>
</glyph>
<glyph name="loChula-thai" format="2">
  <advance width="496"/>
  <unicode hex="0E2C"/>
  <anchor x="285" y="0" name="bottom"/>
  <anchor x="438" y="0" name="bottomright"/>
  <outline>
    <contour>
      <point x="132" y="0" type="line"/>
      <point x="162" y="0" type="line"/>
      <point x="286" y="412" type="line"/>
      <point x="280" y="412" type="line"/>
      <point x="410" y="0" type="line"/>
      <point x="438" y="0" type="line"/>
      <point x="438" y="550" type="line" smooth="yes"/>
      <point x="438" y="559"/>
      <point x="438" y="567"/>
      <point x="438" y="575" type="curve"/>
      <point x="469" y="617"/>
      <point x="492" y="690"/>
      <point x="504" y="766" type="curve"/>
      <point x="480" y="773" type="line"/>
      <point x="469" y="703"/>
      <point x="452" y="633"/>
      <point x="421" y="589" type="curve"/>
      <point x="435" y="589" type="line"/>
      <point x="435" y="655"/>
      <point x="405" y="699"/>
      <point x="354" y="699" type="curve" smooth="yes"/>
      <point x="313" y="699"/>
      <point x="282" y="667"/>
      <point x="282" y="615" type="curve" smooth="yes"/>
      <point x="282" y="563"/>
      <point x="312" y="531"/>
      <point x="356" y="531" type="curve" smooth="yes"/>
      <point x="384" y="531"/>
      <point x="425" y="546"/>
      <point x="425" y="575" type="curve"/>
      <point x="414" y="568" type="line"/>
      <point x="414" y="198" type="line" smooth="yes"/>
      <point x="414" y="136"/>
      <point x="415" y="85"/>
      <point x="417" y="32" type="curve"/>
      <point x="423" y="32" type="line"/>
      <point x="293" y="446" type="line"/>
      <point x="273" y="446" type="line"/>
      <point x="149" y="39" type="line"/>
      <point x="153" y="39" type="line"/>
      <point x="155" y="90"/>
      <point x="156" y="139"/>
      <point x="156" y="198" type="curve" smooth="yes"/>
      <point x="156" y="471" type="line" smooth="yes"/>
      <point x="156" y="520"/>
      <point x="132" y="553"/>
      <point x="95" y="553" type="curve" smooth="yes"/>
      <point x="57" y="553"/>
      <point x="33" y="521"/>
      <point x="33" y="474" type="curve" smooth="yes"/>
      <point x="33" y="426"/>
      <point x="57" y="395"/>
      <point x="91" y="395" type="curve" smooth="yes"/>
      <point x="127" y="395"/>
      <point x="149" y="426"/>
      <point x="149" y="474" type="curve"/>
      <point x="144" y="474" type="line"/>
      <point x="144" y="455"/>
      <point x="137" y="434"/>
      <point x="132" y="434" type="curve"/>
    </contour>
    <contour>
      <point x="93" y="416" type="curve" smooth="yes"/>
      <point x="70" y="416"/>
      <point x="55" y="436"/>
      <point x="55" y="474" type="curve" smooth="yes"/>
      <point x="55" y="511"/>
      <point x="70" y="532"/>
      <point x="94" y="532" type="curve" smooth="yes"/>
      <point x="117" y="532"/>
      <point x="132" y="511"/>
      <point x="132" y="474" type="curve" smooth="yes"/>
      <point x="132" y="436"/>
      <point x="117" y="416"/>
    </contour>
    <contour>
      <point x="356" y="553" type="curve" smooth="yes"/>
      <point x="321" y="553"/>
      <point x="305" y="578"/>
      <point x="305" y="615" type="curve" smooth="yes"/>
      <point x="305" y="652"/>
      <point x="323" y="677"/>
      <point x="354" y="677" type="curve" smooth="yes"/>
      <point x="396" y="677"/>
      <point x="414" y="637"/>
      <point x="414" y="579" type="curve"/>
      <point x="400" y="564"/>
      <point x="383" y="553"/>
    </contour>
    <contour>
      <point x="146" y="63" type="line"/>
      <point x="146" y="45" type="line"/>
      <point x="164" y="45" type="line"/>
      <point x="164" y="63" type="line"/>
    </contour>
    <contour>
      <point x="276" y="417" type="line"/>
      <point x="276" y="399" type="line"/>
      <point x="290" y="399" type="line"/>
      <point x="290" y="417" type="line"/>
    </contour>
    <contour>
      <point x="407" y="63" type="line"/>
      <point x="407" y="45" type="line"/>
      <point x="425" y="45" type="line"/>
      <point x="425" y="63" type="line"/>
    </contour>
  </outline>
</glyph>
<glyph name="oAng-thai" format="2">
  <advance width="411"/>
  <unicode hex="0E2D"/>
  <note>
uni0E2D
</note>
  <anchor x="206" y="0" name="bottom"/>
  <anchor x="335" y="0" name="bottomright"/>
  <anchor x="206" y="548" name="top"/>
  <anchor x="335" y="548" name="topright"/>
  <outline>
    <contour>
      <point x="340" y="402" type="line" smooth="yes"/>
      <point x="340" y="496"/>
      <point x="305" y="556"/>
      <point x="204" y="556" type="curve" smooth="yes"/>
      <point x="149" y="556"/>
      <point x="111" y="538"/>
      <point x="71" y="514" type="curve"/>
      <point x="78" y="491" type="line"/>
      <point x="119" y="518"/>
      <point x="157" y="533"/>
      <point x="203" y="533" type="curve" smooth="yes"/>
      <point x="289" y="533"/>
      <point x="316" y="484"/>
      <point x="316" y="397" type="curve" smooth="yes"/>
      <point x="316" y="118" type="line" smooth="yes"/>
      <point x="316" y="41"/>
      <point x="294" y="23"/>
      <point x="243" y="23" type="curve" smooth="yes"/>
      <point x="95" y="23" type="line"/>
      <point x="95" y="246" type="line"/>
      <point x="90" y="246"/>
      <point x="83" y="267"/>
      <point x="83" y="286" type="curve"/>
      <point x="78" y="286" type="line"/>
      <point x="78" y="238"/>
      <point x="100" y="207"/>
      <point x="136" y="207" type="curve" smooth="yes"/>
      <point x="170" y="207"/>
      <point x="194" y="238"/>
      <point x="194" y="286" type="curve" smooth="yes"/>
      <point x="194" y="334"/>
      <point x="170" y="365"/>
      <point x="132" y="365" type="curve" smooth="yes"/>
      <point x="95" y="365"/>
      <point x="71" y="333"/>
      <point x="71" y="283" type="curve" smooth="yes"/>
      <point x="71" y="0" type="line"/>
      <point x="242" y="0" type="line" smooth="yes"/>
      <point x="317" y="0"/>
      <point x="340" y="42"/>
      <point x="340" y="114" type="curve" smooth="yes"/>
    </contour>
    <contour>
      <point x="134" y="228" type="curve" smooth="yes"/>
      <point x="110" y="228"/>
      <point x="95" y="248"/>
      <point x="95" y="286" type="curve" smooth="yes"/>
      <point x="95" y="324"/>
      <point x="110" y="344"/>
      <point x="133" y="344" type="curve" smooth="yes"/>
      <point x="157" y="344"/>
      <point x="172" y="324"/>
      <point x="172" y="286" type="curve" smooth="yes"/>
      <point x="172" y="248"/>
      <point x="157" y="228"/>
    </contour>
  </outline>
</glyph>
<glyph name="hoNokhuk-thai" format="2">
  <advance width="419"/>
  <unicode hex="0E2E"/>
  <anchor x="206" y="0" name="bottom"/>
  <anchor x="335" y="0" name="bottomright"/>
  <anchor x="206" y="548" name="top"/>
  <anchor x="340" y="548" name="topright"/>
  <outline>
    <contour>
      <point x="340" y="402" type="line" smooth="yes"/>
      <point x="340" y="458"/>
      <point x="327" y="499"/>
      <point x="301" y="525" type="curve"/>
      <point x="289" y="531" type="line"/>
      <point x="289" y="520"/>
      <point x="307" y="517"/>
      <point x="315" y="517" type="curve" smooth="yes"/>
      <point x="344" y="517"/>
      <point x="372" y="526"/>
      <point x="393" y="541" type="curve"/>
      <point x="387" y="568" type="line"/>
      <point x="358" y="546"/>
      <point x="328" y="540"/>
      <point x="301" y="540" type="curve" smooth="yes"/>
      <point x="280" y="540"/>
      <point x="251" y="556"/>
      <point x="204" y="556" type="curve" smooth="yes"/>
      <point x="149" y="556"/>
      <point x="111" y="538"/>
      <point x="71" y="514" type="curve"/>
      <point x="78" y="491" type="line"/>
      <point x="119" y="518"/>
      <point x="157" y="533"/>
      <point x="203" y="533" type="curve" smooth="yes"/>
      <point x="289" y="533"/>
      <point x="316" y="484"/>
      <point x="316" y="397" type="curve" smooth="yes"/>
      <point x="316" y="118" type="line" smooth="yes"/>
      <point x="316" y="41"/>
      <point x="294" y="23"/>
      <point x="243" y="23" type="curve" smooth="yes"/>
      <point x="95" y="23" type="line"/>
      <point x="95" y="246" type="line"/>
      <point x="90" y="246"/>
      <point x="83" y="267"/>
      <point x="83" y="286" type="curve"/>
      <point x="78" y="286" type="line"/>
      <point x="78" y="238"/>
      <point x="100" y="207"/>
      <point x="136" y="207" type="curve" smooth="yes"/>
      <point x="170" y="207"/>
      <point x="194" y="238"/>
      <point x="194" y="286" type="curve" smooth="yes"/>
      <point x="194" y="334"/>
      <point x="170" y="365"/>
      <point x="132" y="365" type="curve" smooth="yes"/>
      <point x="95" y="365"/>
      <point x="71" y="333"/>
      <point x="71" y="283" type="curve" smooth="yes"/>
      <point x="71" y="0" type="line"/>
      <point x="242" y="0" type="line" smooth="yes"/>
      <point x="317" y="0"/>
      <point x="340" y="42"/>
      <point x="340" y="114" type="curve" smooth="yes"/>
    </contour>
    <contour>
      <point x="134" y="228" type="curve" smooth="yes"/>
      <point x="110" y="228"/>
      <point x="95" y="248"/>
      <point x="95" y="286" type="curve" smooth="yes"/>
      <point x="95" y="324"/>
      <point x="110" y="344"/>
      <point x="133" y="344" type="curve" smooth="yes"/>
      <point x="157" y="344"/>
      <point x="172" y="324"/>
      <point x="172" y="286" type="curve" smooth="yes"/>
      <point x="172" y="248"/>
      <point x="157" y="228"/>
    </contour>
    <contour>
      <point x="305" y="528" type="line"/>
      <point x="302" y="510" type="line"/>
      <point x="309" y="510" type="line"/>
      <point x="312" y="528" type="line"/>
    </contour>
  </outline>
</glyph>
<glyph name="saraA-thai" format="2">
  <advance width="306"/>
  <unicode hex="0E30"/>
  <anchor x="200" y="0" name="bottomright"/>
  <anchor x="168" y="548" name="topright"/>
  <outline>
    <contour>
      <point x="132" y="377" type="curve" smooth="yes"/>
      <point x="202" y="377"/>
      <point x="245" y="416"/>
      <point x="277" y="492" type="curve"/>
      <point x="255" y="504" type="line"/>
      <point x="229" y="430"/>
      <point x="185" y="400"/>
      <point x="132" y="400" type="curve" smooth="yes"/>
      <point x="120" y="400"/>
      <point x="104" y="401"/>
      <point x="93" y="406" type="curve"/>
      <point x="93" y="398" type="line"/>
      <point x="120" y="399"/>
      <point x="137" y="430"/>
      <point x="137" y="463" type="curve" smooth="yes"/>
      <point x="137" y="505"/>
      <point x="115" y="533"/>
      <point x="84" y="533" type="curve" smooth="yes"/>
      <point x="53" y="533"/>
      <point x="31" y="505"/>
      <point x="31" y="463" type="curve" smooth="yes"/>
      <point x="31" y="407"/>
      <point x="72" y="377"/>
    </contour>
    <contour>
      <point x="84" y="415" type="curve" smooth="yes"/>
      <point x="64" y="415"/>
      <point x="53" y="436"/>
      <point x="53" y="463" type="curve" smooth="yes"/>
      <point x="53" y="492"/>
      <point x="64" y="512"/>
      <point x="84" y="512" type="curve" smooth="yes"/>
      <point x="104" y="512"/>
      <point x="116" y="492"/>
      <point x="116" y="463" type="curve" smooth="yes"/>
      <point x="116" y="436"/>
      <point x="105" y="415"/>
    </contour>
    <contour>
      <point x="132" y="42" type="curve" smooth="yes"/>
      <point x="203" y="42"/>
      <point x="245" y="82"/>
      <point x="277" y="157" type="curve"/>
      <point x="255" y="169" type="line"/>
      <point x="229" y="96"/>
      <point x="186" y="65"/>
      <point x="132" y="65" type="curve" smooth="yes"/>
      <point x="116" y="65"/>
      <point x="103" y="67"/>
      <point x="93" y="71" type="curve"/>
      <point x="93" y="63" type="line"/>
      <point x="120" y="64"/>
      <point x="137" y="96"/>
      <point x="137" y="129" type="curve" smooth="yes"/>
      <point x="137" y="170"/>
      <point x="115" y="198"/>
      <point x="84" y="198" type="curve" smooth="yes"/>
      <point x="53" y="198"/>
      <point x="31" y="170"/>
      <point x="31" y="129" type="curve" smooth="yes"/>
      <point x="31" y="72"/>
      <point x="72" y="42"/>
    </contour>
    <contour>
      <point x="84" y="81" type="curve" smooth="yes"/>
      <point x="64" y="81"/>
      <point x="53" y="101"/>
      <point x="53" y="129" type="curve" smooth="yes"/>
      <point x="53" y="157"/>
      <point x="64" y="177"/>
      <point x="84" y="177" type="curve" smooth="yes"/>
      <point x="104" y="177"/>
      <point x="116" y="157"/>
      <point x="116" y="129" type="curve" smooth="yes"/>
      <point x="116" y="101"/>
      <point x="105" y="81"/>
    </contour>
  </outline>
</glyph>
<glyph name="maiHanaKat-thai" format="2">
  <unicode hex="0E31"/>
  <anchor x="230" y="548" name="_topright"/>
  <anchor x="221" y="796" name="topright"/>
  <outline>
    <contour>
      <point x="157" y="640" type="curve" smooth="yes"/>
      <point x="231" y="640"/>
      <point x="277" y="677"/>
      <point x="313" y="753" type="curve"/>
      <point x="292" y="769" type="line"/>
      <point x="261" y="694"/>
      <point x="216" y="663"/>
      <point x="157" y="663" type="curve" smooth="yes"/>
      <point x="144" y="663"/>
      <point x="122" y="665"/>
      <point x="111" y="669" type="curve"/>
      <point x="111" y="661" type="line"/>
      <point x="139" y="663"/>
      <point x="156" y="694"/>
      <point x="156" y="729" type="curve" smooth="yes"/>
      <point x="156" y="773"/>
      <point x="136" y="801"/>
      <point x="103" y="801" type="curve" smooth="yes"/>
      <point x="70" y="801"/>
      <point x="50" y="773"/>
      <point x="50" y="729" type="curve" smooth="yes"/>
      <point x="50" y="670"/>
      <point x="87" y="640"/>
    </contour>
    <contour>
      <point x="103" y="680" type="curve" smooth="yes"/>
      <point x="82" y="680"/>
      <point x="72" y="699"/>
      <point x="72" y="729" type="curve" smooth="yes"/>
      <point x="72" y="760"/>
      <point x="82" y="780"/>
      <point x="103" y="780" type="curve" smooth="yes"/>
      <point x="124" y="780"/>
      <point x="134" y="760"/>
      <point x="134" y="729" type="curve" smooth="yes"/>
      <point x="134" y="699"/>
      <point x="124" y="680"/>
    </contour>
  </outline>
</glyph>
<glyph name="saraI-thai" format="2">
  <unicode hex="0E34"/>
  <anchor x="315" y="548" name="_topright"/>
  <anchor x="315" y="769" name="topright"/>
  <outline>
    <contour>
      <point x="52" y="645" type="line"/>
      <point x="311" y="645" type="line"/>
      <point x="315" y="672" type="line"/>
      <point x="273" y="735"/>
      <point x="214" y="774"/>
      <point x="152" y="774" type="curve" smooth="yes"/>
      <point x="90" y="774"/>
      <point x="50" y="737"/>
      <point x="50" y="660" type="curve"/>
    </contour>
    <contour>
      <point x="75" y="667" type="line"/>
      <point x="75" y="722"/>
      <point x="102" y="752"/>
      <point x="152" y="752" type="curve" smooth="yes"/>
      <point x="202" y="752"/>
      <point x="253" y="719"/>
      <point x="290" y="667" type="curve"/>
    </contour>
  </outline>
</glyph>
<glyph name="saraIi-thai" format="2">
  <unicode hex="0E35"/>
  <anchor x="319" y="548" name="_topright"/>
  <anchor x="319" y="774" name="topright"/>
  <outline>
    <contour>
      <point x="52" y="645" type="line"/>
      <point x="319" y="645" type="line"/>
      <point x="319" y="774" type="line"/>
      <point x="295" y="774" type="line"/>
      <point x="295" y="668" type="line"/>
      <point x="304" y="677" type="line"/>
      <point x="262" y="733"/>
      <point x="210" y="774"/>
      <point x="148" y="774" type="curve" smooth="yes"/>
      <point x="86" y="774"/>
      <point x="50" y="737"/>
      <point x="50" y="660" type="curve"/>
    </contour>
    <contour>
      <point x="75" y="667" type="line"/>
      <point x="75" y="722"/>
      <point x="98" y="752"/>
      <point x="148" y="752" type="curve" smooth="yes"/>
      <point x="202" y="752"/>
      <point x="250" y="712"/>
      <point x="282" y="667" type="curve"/>
    </contour>
  </outline>
</glyph>
<glyph name="saraUe-thai" format="2">
  <unicode hex="0E36"/>
  <anchor x="340" y="548" name="_topright"/>
  <anchor x="352" y="780" name="topright"/>
  <outline>
    <contour>
      <point x="52" y="645" type="line"/>
      <point x="302" y="645" type="line" smooth="yes"/>
      <point x="338" y="645"/>
      <point x="355" y="678"/>
      <point x="355" y="715" type="curve" smooth="yes"/>
      <point x="355" y="752"/>
      <point x="338" y="785"/>
      <point x="302" y="785" type="curve" smooth="yes"/>
      <point x="264" y="785"/>
      <point x="248" y="750"/>
      <point x="248" y="711" type="curve"/>
      <point x="255" y="713" type="line"/>
      <point x="223" y="752"/>
      <point x="187" y="774"/>
      <point x="142" y="774" type="curve" smooth="yes"/>
      <point x="88" y="774"/>
      <point x="50" y="737"/>
      <point x="50" y="660" type="curve"/>
    </contour>
    <contour>
      <point x="75" y="667" type="line"/>
      <point x="75" y="722"/>
      <point x="99" y="752"/>
      <point x="141" y="752" type="curve" smooth="yes"/>
      <point x="194" y="752"/>
      <point x="233" y="710"/>
      <point x="260" y="667" type="curve"/>
    </contour>
    <contour>
      <point x="302" y="667" type="curve" smooth="yes"/>
      <point x="281" y="667"/>
      <point x="271" y="686"/>
      <point x="271" y="715" type="curve" smooth="yes"/>
      <point x="271" y="745"/>
      <point x="281" y="764"/>
      <point x="302" y="764" type="curve" smooth="yes"/>
      <point x="323" y="764"/>
      <point x="333" y="745"/>
      <point x="333" y="715" type="curve" smooth="yes"/>
      <point x="333" y="686"/>
      <point x="323" y="667"/>
    </contour>
  </outline>
</glyph>
<glyph name="saraUee-thai" format="2">
  <unicode hex="0E37"/>
  <anchor x="349" y="548" name="_topright"/>
  <anchor x="349" y="776" name="topright"/>
  <outline>
    <contour>
      <point x="52" y="645" type="line"/>
      <point x="349" y="645" type="line"/>
      <point x="349" y="774" type="line"/>
      <point x="324" y="774" type="line"/>
      <point x="324" y="669" type="line"/>
      <point x="297" y="669" type="line"/>
      <point x="297" y="774" type="line"/>
      <point x="273" y="774" type="line"/>
      <point x="273" y="687" type="line"/>
      <point x="282" y="694" type="line"/>
      <point x="250" y="737"/>
      <point x="202" y="774"/>
      <point x="147" y="774" type="curve" smooth="yes"/>
      <point x="85" y="774"/>
      <point x="50" y="737"/>
      <point x="50" y="660" type="curve"/>
    </contour>
    <contour>
      <point x="75" y="667" type="line"/>
      <point x="75" y="722"/>
      <point x="98" y="752"/>
      <point x="147" y="752" type="curve" smooth="yes"/>
      <point x="204" y="752"/>
      <point x="249" y="702"/>
      <point x="272" y="667" type="curve"/>
    </contour>
  </outline>
</glyph>
<glyph name="saraU-thai" format="2">
  <unicode hex="0E38"/>
  <anchor x="157" y="0" name="_bottomright"/>
  <anchor x="157" y="-297" name="bottomright"/>
  <outline>
    <contour>
      <point x="133" y="-297" type="line"/>
      <point x="157" y="-297" type="line"/>
      <point x="157" y="-140" type="line" smooth="yes"/>
      <point x="157" y="-85"/>
      <point x="140" y="-55"/>
      <point x="102" y="-55" type="curve" smooth="yes"/>
      <point x="68" y="-55"/>
      <point x="50" y="-85"/>
      <point x="50" y="-126" type="curve" smooth="yes"/>
      <point x="50" y="-167"/>
      <point x="71" y="-194"/>
      <point x="101" y="-194" type="curve" smooth="yes"/>
      <point x="135" y="-194"/>
      <point x="150" y="-168"/>
      <point x="150" y="-125" type="curve"/>
      <point x="143" y="-125" type="line"/>
      <point x="143" y="-141"/>
      <point x="142" y="-161"/>
      <point x="133" y="-161" type="curve"/>
    </contour>
    <contour>
      <point x="102" y="-173" type="curve" smooth="yes"/>
      <point x="83" y="-173"/>
      <point x="72" y="-154"/>
      <point x="72" y="-125" type="curve" smooth="yes"/>
      <point x="72" y="-96"/>
      <point x="83" y="-76"/>
      <point x="102" y="-76" type="curve" smooth="yes"/>
      <point x="123" y="-76"/>
      <point x="132" y="-96"/>
      <point x="132" y="-125" type="curve" smooth="yes"/>
      <point x="132" y="-154"/>
      <point x="123" y="-173"/>
    </contour>
  </outline>
</glyph>
<glyph name="saraUu-thai" format="2">
  <unicode hex="0E39"/>
  <anchor x="270" y="0" name="_bottomright"/>
  <anchor x="267" y="-287" name="bottomright"/>
  <outline>
    <contour>
      <point x="201" y="-287" type="curve" smooth="yes"/>
      <point x="243" y="-287"/>
      <point x="270" y="-261"/>
      <point x="270" y="-205" type="curve" smooth="yes"/>
      <point x="270" y="-60" type="line"/>
      <point x="247" y="-60" type="line"/>
      <point x="247" y="-199" type="line" smooth="yes"/>
      <point x="247" y="-245"/>
      <point x="232" y="-265"/>
      <point x="201" y="-265" type="curve" smooth="yes"/>
      <point x="170" y="-265"/>
      <point x="154" y="-245"/>
      <point x="154" y="-199" type="curve" smooth="yes"/>
      <point x="154" y="-139" type="line" smooth="yes"/>
      <point x="154" y="-84"/>
      <point x="139" y="-55"/>
      <point x="100" y="-55" type="curve" smooth="yes"/>
      <point x="66" y="-55"/>
      <point x="50" y="-84"/>
      <point x="50" y="-124" type="curve" smooth="yes"/>
      <point x="50" y="-164"/>
      <point x="69" y="-192"/>
      <point x="100" y="-192" type="curve" smooth="yes"/>
      <point x="134" y="-192"/>
      <point x="146" y="-163"/>
      <point x="146" y="-124" type="curve"/>
      <point x="141" y="-124" type="line"/>
      <point x="141" y="-143"/>
      <point x="137" y="-163"/>
      <point x="131" y="-163" type="curve"/>
      <point x="131" y="-205" type="line" smooth="yes"/>
      <point x="131" y="-261"/>
      <point x="160" y="-287"/>
    </contour>
    <contour>
      <point x="100" y="-170" type="curve" smooth="yes"/>
      <point x="81" y="-170"/>
      <point x="72" y="-152"/>
      <point x="72" y="-124" type="curve" smooth="yes"/>
      <point x="72" y="-96"/>
      <point x="80" y="-76"/>
      <point x="100" y="-76" type="curve" smooth="yes"/>
      <point x="121" y="-76"/>
      <point x="129" y="-96"/>
      <point x="129" y="-124" type="curve" smooth="yes"/>
      <point x="129" y="-152"/>
      <point x="121" y="-170"/>
    </contour>
  </outline>
</glyph>
<glyph name="phinthu-thai" format="2">
  <unicode hex="0E3A"/>
  <anchor x="144" y="0" name="_bottomright"/>
  <anchor x="144" y="-151" name="bottomright"/>
  <outline>
    <contour>
      <point x="103" y="-149" type="curve" smooth="yes"/>
      <point x="130" y="-149"/>
      <point x="144" y="-128"/>
      <point x="144" y="-102" type="curve" smooth="yes"/>
      <point x="144" y="-75"/>
      <point x="130" y="-55"/>
      <point x="103" y="-55" type="curve" smooth="yes"/>
      <point x="76" y="-55"/>
      <point x="62" y="-75"/>
      <point x="62" y="-102" type="curve" smooth="yes"/>
      <point x="62" y="-128"/>
      <point x="76" y="-149"/>
    </contour>
  </outline>
</glyph>
<glyph name="saraE-thai" format="2">
  <advance width="236"/>
  <unicode hex="0E40"/>
  <anchor x="189" y="0" name="bottomright"/>
  <anchor x="144" y="548" name="topright"/>
  <outline>
    <contour>
      <point x="104" y="548" type="line"/>
      <point x="80" y="548" type="line"/>
      <point x="80" y="77" type="line" smooth="yes"/>
      <point x="80" y="27"/>
      <point x="104" y="-5"/>
      <point x="141" y="-5" type="curve" smooth="yes"/>
      <point x="179" y="-5"/>
      <point x="203" y="26"/>
      <point x="203" y="74" type="curve" smooth="yes"/>
      <point x="203" y="122"/>
      <point x="179" y="153"/>
      <point x="145" y="153" type="curve" smooth="yes"/>
      <point x="109" y="153"/>
      <point x="87" y="122"/>
      <point x="87" y="74" type="curve"/>
      <point x="92" y="74" type="line"/>
      <point x="92" y="93"/>
      <point x="99" y="114"/>
      <point x="104" y="114" type="curve"/>
    </contour>
    <contour>
      <point x="143" y="132" type="curve" smooth="yes"/>
      <point x="166" y="132"/>
      <point x="181" y="112"/>
      <point x="181" y="74" type="curve" smooth="yes"/>
      <point x="181" y="36"/>
      <point x="166" y="16"/>
      <point x="142" y="16" type="curve" smooth="yes"/>
      <point x="119" y="16"/>
      <point x="104" y="36"/>
      <point x="104" y="74" type="curve" smooth="yes"/>
      <point x="104" y="112"/>
      <point x="119" y="132"/>
    </contour>
  </outline>
</glyph>
<glyph name="saraAe-thai" format="2">
  <advance width="423"/>
  <unicode hex="0E41"/>
  <anchor x="284" y="0" name="bottomright"/>
  <anchor x="200" y="548" name="topright"/>
  <outline>
    <contour>
      <point x="141" y="-5" type="curve" smooth="yes"/>
      <point x="179" y="-5"/>
      <point x="203" y="26"/>
      <point x="203" y="74" type="curve" smooth="yes"/>
      <point x="203" y="122"/>
      <point x="179" y="153"/>
      <point x="145" y="153" type="curve" smooth="yes"/>
      <point x="109" y="153"/>
      <point x="87" y="122"/>
      <point x="87" y="74" type="curve"/>
      <point x="92" y="74" type="line"/>
      <point x="92" y="93"/>
      <point x="99" y="114"/>
      <point x="104" y="114" type="curve"/>
      <point x="104" y="548" type="line"/>
      <point x="80" y="548" type="line"/>
      <point x="80" y="77" type="line"/>
      <point x="80" y="27"/>
      <point x="104" y="-5"/>
    </contour>
    <contour>
      <point x="142" y="16" type="curve" smooth="yes"/>
      <point x="119" y="16"/>
      <point x="104" y="36"/>
      <point x="104" y="74" type="curve" smooth="yes"/>
      <point x="104" y="112"/>
      <point x="119" y="132"/>
      <point x="143" y="132" type="curve" smooth="yes"/>
      <point x="166" y="132"/>
      <point x="181" y="112"/>
      <point x="181" y="74" type="curve" smooth="yes"/>
      <point x="181" y="36"/>
      <point x="166" y="16"/>
    </contour>
    <contour>
      <point x="328" y="-7" type="curve" smooth="yes"/>
      <point x="366" y="-7"/>
      <point x="390" y="24"/>
      <point x="390" y="72" type="curve" smooth="yes"/>
      <point x="390" y="120"/>
      <point x="366" y="151"/>
      <point x="332" y="151" type="curve" smooth="yes"/>
      <point x="296" y="151"/>
      <point x="274" y="120"/>
      <point x="274" y="72" type="curve"/>
      <point x="279" y="72" type="line"/>
      <point x="279" y="91"/>
      <point x="286" y="112"/>
      <point x="291" y="112" type="curve"/>
      <point x="291" y="548" type="line"/>
      <point x="267" y="548" type="line"/>
      <point x="267" y="75" type="line"/>
      <point x="267" y="25"/>
      <point x="291" y="-7"/>
    </contour>
    <contour>
      <point x="329" y="14" type="curve" smooth="yes"/>
      <point x="306" y="14"/>
      <point x="291" y="34"/>
      <point x="291" y="72" type="curve" smooth="yes"/>
      <point x="291" y="110"/>
      <point x="306" y="130"/>
      <point x="330" y="130" type="curve" smooth="yes"/>
      <point x="353" y="130"/>
      <point x="368" y="110"/>
      <point x="368" y="72" type="curve" smooth="yes"/>
      <point x="368" y="34"/>
      <point x="353" y="14"/>
    </contour>
  </outline>
</glyph>
<glyph name="saraO-thai" format="2">
  <advance width="281"/>
  <unicode hex="0E42"/>
  <anchor x="255" y="0" name="bottomright"/>
  <anchor x="203" y="907" name="topright"/>
  <outline>
    <contour>
      <point x="253" y="907" type="line"/>
      <point x="238" y="902"/>
      <point x="226" y="901"/>
      <point x="212" y="901" type="curve" smooth="yes"/>
      <point x="180" y="901"/>
      <point x="151" y="912"/>
      <point x="114" y="912" type="curve" smooth="yes"/>
      <point x="50" y="912"/>
      <point x="10" y="876"/>
      <point x="10" y="786" type="curve" smooth="yes"/>
      <point x="10" y="705" type="line"/>
      <point x="115" y="705"/>
      <point x="146" y="656"/>
      <point x="146" y="566" type="curve" smooth="yes"/>
      <point x="146" y="77" type="line" smooth="yes"/>
      <point x="146" y="27"/>
      <point x="170" y="-5"/>
      <point x="207" y="-5" type="curve" smooth="yes"/>
      <point x="245" y="-5"/>
      <point x="269" y="26"/>
      <point x="269" y="74" type="curve" smooth="yes"/>
      <point x="269" y="122"/>
      <point x="245" y="153"/>
      <point x="211" y="153" type="curve" smooth="yes"/>
      <point x="175" y="153"/>
      <point x="153" y="122"/>
      <point x="153" y="74" type="curve"/>
      <point x="158" y="74" type="line"/>
      <point x="158" y="93"/>
      <point x="165" y="114"/>
      <point x="170" y="114" type="curve"/>
      <point x="170" y="563" type="line" smooth="yes"/>
      <point x="170" y="675"/>
      <point x="128" y="723"/>
      <point x="34" y="727" type="curve"/>
      <point x="34" y="779" type="line" smooth="yes"/>
      <point x="34" y="855"/>
      <point x="55" y="889"/>
      <point x="119" y="889" type="curve" smooth="yes"/>
      <point x="149" y="889"/>
      <point x="182" y="878"/>
      <point x="214" y="878" type="curve" smooth="yes"/>
      <point x="230" y="878"/>
      <point x="243" y="880"/>
      <point x="256" y="884" type="curve"/>
    </contour>
    <contour>
      <point x="209" y="132" type="curve" smooth="yes"/>
      <point x="232" y="132"/>
      <point x="247" y="112"/>
      <point x="247" y="74" type="curve" smooth="yes"/>
      <point x="247" y="36"/>
      <point x="232" y="16"/>
      <point x="208" y="16" type="curve" smooth="yes"/>
      <point x="185" y="16"/>
      <point x="170" y="36"/>
      <point x="170" y="74" type="curve" smooth="yes"/>
      <point x="170" y="112"/>
      <point x="185" y="132"/>
    </contour>
  </outline>
</glyph>
<glyph name="saraAiMaimuan-thai" format="2">
  <advance width="254"/>
  <unicode hex="0E43"/>
  <anchor x="215" y="0" name="bottomright"/>
  <anchor x="181" y="907" name="topright"/>
  <outline>
    <contour>
      <point x="118" y="915" type="curve" smooth="yes"/>
      <point x="52" y="915"/>
      <point x="9" y="867"/>
      <point x="9" y="769" type="curve" smooth="yes"/>
      <point x="9" y="699"/>
      <point x="32" y="657"/>
      <point x="74" y="657" type="curve" smooth="yes"/>
      <point x="111" y="657"/>
      <point x="133" y="690"/>
      <point x="133" y="737" type="curve" smooth="yes"/>
      <point x="133" y="787"/>
      <point x="108" y="816"/>
      <point x="75" y="816" type="curve" smooth="yes"/>
      <point x="54" y="816"/>
      <point x="36" y="803"/>
      <point x="27" y="785" type="curve"/>
      <point x="33" y="780" type="line"/>
      <point x="33" y="852"/>
      <point x="65" y="892"/>
      <point x="118" y="892" type="curve" smooth="yes"/>
      <point x="172" y="892"/>
      <point x="202" y="849"/>
      <point x="202" y="765" type="curve" smooth="yes"/>
      <point x="202" y="680"/>
      <point x="165" y="620"/>
      <point x="106" y="580" type="curve"/>
      <point x="106" y="77" type="line" smooth="yes"/>
      <point x="106" y="27"/>
      <point x="130" y="-5"/>
      <point x="167" y="-5" type="curve" smooth="yes"/>
      <point x="205" y="-5"/>
      <point x="229" y="26"/>
      <point x="229" y="74" type="curve" smooth="yes"/>
      <point x="229" y="122"/>
      <point x="205" y="153"/>
      <point x="171" y="153" type="curve" smooth="yes"/>
      <point x="135" y="153"/>
      <point x="113" y="122"/>
      <point x="113" y="74" type="curve"/>
      <point x="118" y="74" type="line"/>
      <point x="118" y="93"/>
      <point x="125" y="114"/>
      <point x="130" y="114" type="curve"/>
      <point x="130" y="566" type="line"/>
      <point x="185" y="612"/>
      <point x="226" y="669"/>
      <point x="226" y="768" type="curve" smooth="yes"/>
      <point x="226" y="861"/>
      <point x="185" y="915"/>
    </contour>
    <contour>
      <point x="169" y="132" type="curve" smooth="yes"/>
      <point x="192" y="132"/>
      <point x="207" y="112"/>
      <point x="207" y="74" type="curve" smooth="yes"/>
      <point x="207" y="36"/>
      <point x="192" y="16"/>
      <point x="168" y="16" type="curve" smooth="yes"/>
      <point x="145" y="16"/>
      <point x="130" y="36"/>
      <point x="130" y="74" type="curve" smooth="yes"/>
      <point x="130" y="112"/>
      <point x="145" y="132"/>
    </contour>
    <contour>
      <point x="74" y="679" type="curve" smooth="yes"/>
      <point x="48" y="679"/>
      <point x="35" y="704"/>
      <point x="35" y="736" type="curve" smooth="yes"/>
      <point x="35" y="768"/>
      <point x="48" y="794"/>
      <point x="74" y="794" type="curve" smooth="yes"/>
      <point x="100" y="794"/>
      <point x="110" y="768"/>
      <point x="110" y="736" type="curve" smooth="yes"/>
      <point x="110" y="704"/>
      <point x="100" y="679"/>
    </contour>
  </outline>
</glyph>
<glyph name="saraAiMaimalai-thai" format="2">
  <advance width="242"/>
  <unicode hex="0E44"/>
  <anchor x="195" y="0" name="bottomright"/>
  <anchor x="172" y="907" name="topright"/>
  <outline>
    <contour>
      <point x="217" y="764" type="curve" smooth="yes"/>
      <point x="217" y="846"/>
      <point x="182" y="912"/>
      <point x="130" y="912" type="curve"/>
      <point x="43" y="741" type="line"/>
      <point x="54" y="741" type="line"/>
      <point x="40" y="799"/>
      <point x="18" y="858"/>
      <point x="-19" y="912" type="curve"/>
      <point x="-39" y="897" type="line"/>
      <point x="-7" y="848"/>
      <point x="21" y="784"/>
      <point x="39" y="720" type="curve"/>
      <point x="57" y="720" type="line"/>
      <point x="149" y="898" type="line"/>
      <point x="124" y="889" type="line"/>
      <point x="169" y="889"/>
      <point x="193" y="830"/>
      <point x="193" y="760" type="curve" smooth="yes"/>
      <point x="193" y="671"/>
      <point x="145" y="611"/>
      <point x="86" y="573" type="curve"/>
      <point x="86" y="77" type="line" smooth="yes"/>
      <point x="86" y="27"/>
      <point x="110" y="-5"/>
      <point x="147" y="-5" type="curve" smooth="yes"/>
      <point x="185" y="-5"/>
      <point x="209" y="26"/>
      <point x="209" y="74" type="curve" smooth="yes"/>
      <point x="209" y="122"/>
      <point x="185" y="153"/>
      <point x="151" y="153" type="curve" smooth="yes"/>
      <point x="115" y="153"/>
      <point x="93" y="122"/>
      <point x="93" y="74" type="curve"/>
      <point x="98" y="74" type="line"/>
      <point x="98" y="93"/>
      <point x="105" y="114"/>
      <point x="110" y="114" type="curve"/>
      <point x="110" y="559" type="line"/>
      <point x="176" y="611"/>
      <point x="217" y="659"/>
    </contour>
    <contour>
      <point x="149" y="132" type="curve" smooth="yes"/>
      <point x="172" y="132"/>
      <point x="187" y="112"/>
      <point x="187" y="74" type="curve" smooth="yes"/>
      <point x="187" y="36"/>
      <point x="172" y="16"/>
      <point x="148" y="16" type="curve" smooth="yes"/>
      <point x="125" y="16"/>
      <point x="110" y="36"/>
      <point x="110" y="74" type="curve" smooth="yes"/>
      <point x="110" y="112"/>
      <point x="125" y="132"/>
    </contour>
    <contour>
      <point x="39" y="759" type="line"/>
      <point x="39" y="747" type="line"/>
      <point x="63" y="747" type="line"/>
      <point x="63" y="759" type="line"/>
    </contour>
  </outline>
</glyph>
<glyph name="lakkhangyao-thai" format="2">
  <advance width="320"/>
  <unicode hex="0E45"/>
  <anchor x="175" y="0" name="bottomright"/>
  <anchor x="239" y="548" name="topright"/>
  <outline>
    <contour>
      <point x="23" y="504" type="line"/>
      <point x="50" y="521"/>
      <point x="82" y="533"/>
      <point x="123" y="533" type="curve" smooth="yes"/>
      <point x="202" y="533"/>
      <point x="220" y="473"/>
      <point x="220" y="392" type="curve" smooth="yes"/>
      <point x="220" y="-259" type="line"/>
      <point x="244" y="-259" type="line"/>
      <point x="244" y="397" type="line" smooth="yes"/>
      <point x="244" y="511"/>
      <point x="199" y="556"/>
      <point x="122" y="556" type="curve" smooth="yes"/>
      <point x="79" y="556"/>
      <point x="44" y="541"/>
      <point x="17" y="527" type="curve"/>
    </contour>
  </outline>
</glyph>
<glyph name="maiyamok-thai" format="2">
  <advance width="374"/>
  <unicode hex="0E46"/>
  <outline>
    <contour>
      <point x="226" y="-88" type="line"/>
      <point x="288" y="-20"/>
      <point x="297" y="31"/>
      <point x="297" y="130" type="curve" smooth="yes"/>
      <point x="297" y="426" type="line" smooth="yes"/>
      <point x="297" y="489"/>
      <point x="280" y="524"/>
      <point x="236" y="556" type="curve"/>
      <point x="172" y="477" type="line"/>
      <point x="100" y="556" type="line"/>
      <point x="51" y="508"/>
      <point x="31" y="459"/>
      <point x="31" y="360" type="curve" smooth="yes"/>
      <point x="31" y="299"/>
      <point x="52" y="260"/>
      <point x="93" y="260" type="curve" smooth="yes"/>
      <point x="130" y="260"/>
      <point x="152" y="297"/>
      <point x="152" y="340" type="curve" smooth="yes"/>
      <point x="152" y="382"/>
      <point x="130" y="419"/>
      <point x="94" y="419" type="curve" smooth="yes"/>
      <point x="65" y="419"/>
      <point x="39" y="399"/>
      <point x="39" y="340" type="curve"/>
      <point x="56" y="382" type="line"/>
      <point x="56" y="448"/>
      <point x="71" y="489"/>
      <point x="103" y="521" type="curve"/>
      <point x="168" y="447" type="line"/>
      <point x="176" y="447" type="line"/>
      <point x="237" y="520" type="line"/>
      <point x="263" y="498"/>
      <point x="273" y="474"/>
      <point x="273" y="421" type="curve" smooth="yes"/>
      <point x="273" y="130" type="line" smooth="yes"/>
      <point x="273" y="53"/>
      <point x="271" y="-2"/>
      <point x="210" y="-67" type="curve"/>
    </contour>
    <contour>
      <point x="93" y="281" type="curve" smooth="yes"/>
      <point x="66" y="281"/>
      <point x="56" y="306"/>
      <point x="56" y="340" type="curve" smooth="yes"/>
      <point x="56" y="373"/>
      <point x="66" y="399"/>
      <point x="93" y="399" type="curve" smooth="yes"/>
      <point x="118" y="399"/>
      <point x="130" y="373"/>
      <point x="130" y="340" type="curve" smooth="yes"/>
      <point x="130" y="306"/>
      <point x="118" y="281"/>
    </contour>
  </outline>
</glyph>
<glyph name="maitaikhu-thai" format="2">
  <unicode hex="0E47"/>
  <anchor x="290" y="548" name="_topright"/>
  <anchor x="278" y="892" name="topright"/>
  <outline>
    <contour>
      <point x="225" y="640" type="curve" smooth="yes"/>
      <point x="273" y="640"/>
      <point x="294" y="691"/>
      <point x="294" y="738" type="curve" smooth="yes"/>
      <point x="294" y="774"/>
      <point x="278" y="805"/>
      <point x="246" y="805" type="curve" smooth="yes"/>
      <point x="216" y="805"/>
      <point x="196" y="780"/>
      <point x="196" y="742" type="curve" smooth="yes"/>
      <point x="196" y="704"/>
      <point x="217" y="680"/>
      <point x="245" y="680" type="curve" smooth="yes"/>
      <point x="262" y="680"/>
      <point x="271" y="690"/>
      <point x="279" y="699" type="curve"/>
      <point x="266" y="708" type="line"/>
      <point x="266" y="679"/>
      <point x="250" y="662"/>
      <point x="224" y="662" type="curve" smooth="yes"/>
      <point x="188" y="662"/>
      <point x="161" y="700"/>
      <point x="161" y="772" type="curve"/>
      <point x="143" y="772" type="line"/>
      <point x="97" y="663" type="line"/>
      <point x="110" y="672" type="line"/>
      <point x="96" y="672"/>
      <point x="72" y="716"/>
      <point x="72" y="761" type="curve" smooth="yes"/>
      <point x="72" y="827"/>
      <point x="99" y="853"/>
      <point x="154" y="853" type="curve" smooth="yes"/>
      <point x="210" y="853"/>
      <point x="248" y="856"/>
      <point x="278" y="870" type="curve"/>
      <point x="272" y="892" type="line"/>
      <point x="241" y="875"/>
      <point x="203" y="875"/>
      <point x="152" y="875" type="curve" smooth="yes"/>
      <point x="87" y="875"/>
      <point x="50" y="840"/>
      <point x="50" y="761" type="curve" smooth="yes"/>
      <point x="50" y="707"/>
      <point x="72" y="675"/>
      <point x="99" y="645" type="curve"/>
      <point x="112" y="645" type="line"/>
      <point x="154" y="745" type="line"/>
      <point x="143" y="745" type="line"/>
      <point x="143" y="687"/>
      <point x="178" y="640"/>
    </contour>
    <contour>
      <point x="246" y="701" type="curve" smooth="yes"/>
      <point x="226" y="701"/>
      <point x="218" y="717"/>
      <point x="218" y="742" type="curve" smooth="yes"/>
      <point x="218" y="767"/>
      <point x="226" y="784"/>
      <point x="246" y="784" type="curve" smooth="yes"/>
      <point x="264" y="784"/>
      <point x="272" y="767"/>
      <point x="272" y="742" type="curve" smooth="yes"/>
      <point x="272" y="717"/>
      <point x="264" y="701"/>
    </contour>
  </outline>
</glyph>
<glyph name="maiTri-thai" format="2">
  <unicode hex="0E4A"/>
  <anchor x="288" y="548" name="_topright"/>
  <anchor x="288" y="854" name="topright"/>
  <outline>
    <contour>
      <point x="101" y="744" type="curve" smooth="yes"/>
      <point x="83" y="744"/>
      <point x="75" y="728"/>
      <point x="75" y="703" type="curve" smooth="yes"/>
      <point x="75" y="678"/>
      <point x="83" y="661"/>
      <point x="101" y="661" type="curve" smooth="yes"/>
      <point x="119" y="661"/>
      <point x="126" y="678"/>
      <point x="126" y="703" type="curve" smooth="yes"/>
      <point x="126" y="728"/>
      <point x="119" y="744"/>
    </contour>
    <contour>
      <point x="360" y="850" type="line"/>
      <point x="360" y="732"/>
      <point x="336" y="643"/>
      <point x="257" y="643" type="curve" smooth="yes"/>
      <point x="247" y="643"/>
      <point x="233" y="644"/>
      <point x="223" y="645" type="curve"/>
      <point x="223" y="664" type="line"/>
      <point x="232" y="691"/>
      <point x="238" y="722"/>
      <point x="238" y="750" type="curve" smooth="yes"/>
      <point x="238" y="779"/>
      <point x="234" y="802"/>
      <point x="223" y="822" type="curve"/>
      <point x="165" y="768" type="line"/>
      <point x="158" y="768" type="line"/>
      <point x="100" y="822" type="line"/>
      <point x="83" y="803"/>
      <point x="73" y="779"/>
      <point x="73" y="745" type="curve" smooth="yes"/>
      <point x="73" y="741"/>
      <point x="73" y="737"/>
      <point x="74" y="733" type="curve"/>
      <point x="64" y="739" type="line"/>
      <point x="74" y="757"/>
      <point x="86" y="765"/>
      <point x="102" y="765" type="curve" smooth="yes"/>
      <point x="127" y="765"/>
      <point x="148" y="743"/>
      <point x="148" y="702" type="curve" smooth="yes"/>
      <point x="148" y="665"/>
      <point x="131" y="640"/>
      <point x="101" y="640" type="curve" smooth="yes"/>
      <point x="68" y="640"/>
      <point x="50" y="669"/>
      <point x="50" y="732" type="curve" smooth="yes"/>
      <point x="50" y="779"/>
      <point x="59" y="817"/>
      <point x="98" y="853" type="curve"/>
      <point x="162" y="792" type="line"/>
      <point x="228" y="854" type="line"/>
      <point x="253" y="826"/>
      <point x="261" y="782"/>
      <point x="261" y="751" type="curve" smooth="yes"/>
      <point x="261" y="718"/>
      <point x="253" y="681"/>
      <point x="244" y="656" type="curve"/>
      <point x="240" y="666" type="line"/>
      <point x="245" y="665"/>
      <point x="250" y="665"/>
      <point x="254" y="665" type="curve" smooth="yes"/>
      <point x="321" y="665"/>
      <point x="337" y="741"/>
      <point x="337" y="852" type="curve"/>
    </contour>
  </outline>
</glyph>
<glyph name="maiChattawa-thai" format="2">
  <unicode hex="0E4B"/>
  <anchor x="224" y="548" name="_topright"/>
  <anchor x="224" y="829" name="topright"/>
  <outline>
    <contour>
      <point x="125" y="829" type="line"/>
      <point x="126" y="737" type="line"/>
      <point x="125" y="645" type="line"/>
      <point x="149" y="645" type="line"/>
      <point x="149" y="737" type="line"/>
      <point x="149" y="829" type="line"/>
    </contour>
    <contour>
      <point x="50" y="748" type="line"/>
      <point x="50" y="725" type="line"/>
      <point x="138" y="726" type="line"/>
      <point x="224" y="725" type="line"/>
      <point x="224" y="748" type="line"/>
      <point x="138" y="747" type="line"/>
    </contour>
  </outline>
</glyph>
<glyph name="thanthakhat-thai" format="2">
  <unicode hex="0E4C"/>
  <anchor x="161" y="548" name="_topright"/>
  <anchor x="184" y="910" name="topright"/>
  <outline>
    <contour>
      <point x="102" y="640" type="curve" smooth="yes"/>
      <point x="133" y="640"/>
      <point x="154" y="668"/>
      <point x="154" y="710" type="curve" smooth="yes"/>
      <point x="154" y="749"/>
      <point x="135" y="779"/>
      <point x="103" y="779" type="curve" smooth="yes"/>
      <point x="92" y="779"/>
      <point x="83" y="775"/>
      <point x="75" y="769" type="curve"/>
      <point x="85" y="761" type="line"/>
      <point x="91" y="814"/>
      <point x="149" y="833"/>
      <point x="184" y="898" type="curve"/>
      <point x="165" y="910" type="line"/>
      <point x="131" y="844"/>
      <point x="50" y="819"/>
      <point x="50" y="710" type="curve" smooth="yes"/>
      <point x="50" y="668"/>
      <point x="71" y="640"/>
    </contour>
    <contour>
      <point x="102" y="661" type="curve" smooth="yes"/>
      <point x="81" y="661"/>
      <point x="71" y="681"/>
      <point x="71" y="710" type="curve" smooth="yes"/>
      <point x="71" y="738"/>
      <point x="81" y="757"/>
      <point x="102" y="757" type="curve" smooth="yes"/>
      <point x="123" y="757"/>
      <point x="132" y="738"/>
      <point x="132" y="710" type="curve" smooth="yes"/>
      <point x="132" y="681"/>
      <point x="123" y="661"/>
    </contour>
  </outline>
</glyph>
<glyph name="nikhahit-thai" format="2">
  <unicode hex="0E4D"/>
  <anchor x="133" y="548" name="_topright"/>
  <anchor x="128" y="821" name="topright"/>
  <outline>
    <contour>
      <point x="120" y="640" type="curve" smooth="yes"/>
      <point x="166" y="640"/>
      <point x="190" y="681"/>
      <point x="190" y="733" type="curve" smooth="yes"/>
      <point x="190" y="785"/>
      <point x="166" y="826"/>
      <point x="120" y="826" type="curve" smooth="yes"/>
      <point x="75" y="826"/>
      <point x="50" y="785"/>
      <point x="50" y="733" type="curve" smooth="yes"/>
      <point x="50" y="681"/>
      <point x="75" y="640"/>
    </contour>
    <contour>
      <point x="120" y="662" type="curve" smooth="yes"/>
      <point x="89" y="662"/>
      <point x="73" y="691"/>
      <point x="73" y="733" type="curve" smooth="yes"/>
      <point x="73" y="775"/>
      <point x="89" y="804"/>
      <point x="120" y="804" type="curve" smooth="yes"/>
      <point x="152" y="804"/>
      <point x="167" y="775"/>
      <point x="167" y="733" type="curve" smooth="yes"/>
      <point x="167" y="691"/>
      <point x="152" y="662"/>
    </contour>
  </outline>
</glyph>
<glyph name="yamakkan-thai" format="2">
  <unicode hex="0E4E"/>
  <anchor x="145" y="548" name="_topright"/>
  <anchor x="167" y="904" name="topright"/>
  <outline>
    <contour>
      <point x="114" y="640" type="curve" smooth="yes"/>
      <point x="126" y="640"/>
      <point x="135" y="642"/>
      <point x="145" y="647" type="curve"/>
      <point x="141" y="669" type="line"/>
      <point x="132" y="664"/>
      <point x="126" y="662"/>
      <point x="113" y="662" type="curve" smooth="yes"/>
      <point x="88" y="662"/>
      <point x="73" y="681"/>
      <point x="73" y="710" type="curve" smooth="yes"/>
      <point x="73" y="745"/>
      <point x="90" y="764"/>
      <point x="117" y="764" type="curve" smooth="yes"/>
      <point x="128" y="764"/>
      <point x="137" y="763"/>
      <point x="143" y="762" type="curve"/>
      <point x="143" y="784" type="line"/>
      <point x="119" y="784"/>
      <point x="100" y="803"/>
      <point x="100" y="836" type="curve" smooth="yes"/>
      <point x="100" y="865"/>
      <point x="111" y="882"/>
      <point x="132" y="882" type="curve" smooth="yes"/>
      <point x="145" y="882"/>
      <point x="154" y="879"/>
      <point x="164" y="874" type="curve"/>
      <point x="167" y="894" type="line"/>
      <point x="157" y="900"/>
      <point x="146" y="904"/>
      <point x="132" y="904" type="curve" smooth="yes"/>
      <point x="98" y="904"/>
      <point x="77" y="878"/>
      <point x="77" y="840" type="curve" smooth="yes"/>
      <point x="77" y="810"/>
      <point x="91" y="774"/>
      <point x="123" y="774" type="curve"/>
      <point x="123" y="781" type="line"/>
      <point x="119" y="782"/>
      <point x="114" y="783"/>
      <point x="110" y="783" type="curve" smooth="yes"/>
      <point x="74" y="783"/>
      <point x="50" y="754"/>
      <point x="50" y="711" type="curve" smooth="yes"/>
      <point x="50" y="667"/>
      <point x="75" y="640"/>
    </contour>
  </outline>
</glyph>
<glyph name="fongman-thai" format="2">
  <advance width="413"/>
  <unicode hex="0E4F"/>
  <outline>
    <contour>
      <point x="206" y="30" type="curve" smooth="yes"/>
      <point x="303" y="30"/>
      <point x="367" y="133"/>
      <point x="367" y="261" type="curve" smooth="yes"/>
      <point x="367" y="389"/>
      <point x="303" y="492"/>
      <point x="206" y="492" type="curve" smooth="yes"/>
      <point x="110" y="492"/>
      <point x="46" y="389"/>
      <point x="46" y="261" type="curve" smooth="yes"/>
      <point x="46" y="133"/>
      <point x="110" y="30"/>
    </contour>
    <contour>
      <point x="206" y="48" type="curve" smooth="yes"/>
      <point x="119" y="48"/>
      <point x="63" y="144"/>
      <point x="63" y="261" type="curve" smooth="yes"/>
      <point x="63" y="378"/>
      <point x="119" y="474"/>
      <point x="206" y="474" type="curve" smooth="yes"/>
      <point x="295" y="474"/>
      <point x="350" y="377"/>
      <point x="350" y="261" type="curve" smooth="yes"/>
      <point x="350" y="144"/>
      <point x="294" y="48"/>
    </contour>
    <contour>
      <point x="206" y="133" type="curve" smooth="yes"/>
      <point x="260" y="133"/>
      <point x="291" y="190"/>
      <point x="291" y="261" type="curve" smooth="yes"/>
      <point x="291" y="332"/>
      <point x="260" y="389"/>
      <point x="206" y="389" type="curve" smooth="yes"/>
      <point x="153" y="389"/>
      <point x="122" y="332"/>
      <point x="122" y="261" type="curve" smooth="yes"/>
      <point x="122" y="190"/>
      <point x="153" y="133"/>
    </contour>
  </outline>
</glyph>
<glyph name="zero-thai" format="2">
  <advance width="438"/>
  <unicode hex="0E50"/>
  <outline>
    <contour>
      <point x="219" y="-8" type="curve" smooth="yes"/>
      <point x="335" y="-8"/>
      <point x="394" y="97"/>
      <point x="394" y="254" type="curve" smooth="yes"/>
      <point x="394" y="411"/>
      <point x="335" y="516"/>
      <point x="219" y="516" type="curve" smooth="yes"/>
      <point x="103" y="516"/>
      <point x="44" y="411"/>
      <point x="44" y="254" type="curve" smooth="yes"/>
      <point x="44" y="97"/>
      <point x="103" y="-8"/>
    </contour>
    <contour>
      <point x="219" y="15" type="curve" smooth="yes"/>
      <point x="120" y="15"/>
      <point x="68" y="110"/>
      <point x="68" y="254" type="curve" smooth="yes"/>
      <point x="68" y="398"/>
      <point x="120" y="493"/>
      <point x="219" y="493" type="curve" smooth="yes"/>
      <point x="318" y="493"/>
      <point x="370" y="398"/>
      <point x="370" y="254" type="curve" smooth="yes"/>
      <point x="370" y="110"/>
      <point x="318" y="15"/>
    </contour>
  </outline>
</glyph>
<glyph name="one-thai" format="2">
  <advance width="398"/>
  <unicode hex="0E51"/>
  <outline>
    <contour>
      <point x="161" y="-88" type="line"/>
      <point x="292" y="-24"/>
      <point x="371" y="68"/>
      <point x="371" y="265" type="curve" smooth="yes"/>
      <point x="371" y="419"/>
      <point x="309" y="516"/>
      <point x="197" y="516" type="curve" smooth="yes"/>
      <point x="94" y="516"/>
      <point x="33" y="434"/>
      <point x="33" y="301" type="curve" smooth="yes"/>
      <point x="33" y="169"/>
      <point x="98" y="102"/>
      <point x="164" y="102" type="curve" smooth="yes"/>
      <point x="207" y="102"/>
      <point x="228" y="138"/>
      <point x="228" y="180" type="curve" smooth="yes"/>
      <point x="228" y="223"/>
      <point x="209" y="259"/>
      <point x="170" y="259" type="curve" smooth="yes"/>
      <point x="137" y="259"/>
      <point x="111" y="232"/>
      <point x="111" y="181" type="curve" smooth="yes"/>
      <point x="111" y="166"/>
      <point x="113" y="144"/>
      <point x="124" y="127" type="curve"/>
      <point x="131" y="132" type="line"/>
      <point x="86" y="151"/>
      <point x="57" y="205"/>
      <point x="57" y="301" type="curve" smooth="yes"/>
      <point x="57" y="422"/>
      <point x="107" y="493"/>
      <point x="197" y="493" type="curve" smooth="yes"/>
      <point x="295" y="493"/>
      <point x="347" y="404"/>
      <point x="347" y="262" type="curve" smooth="yes"/>
      <point x="347" y="81"/>
      <point x="272" y="-9"/>
      <point x="154" y="-64" type="curve"/>
    </contour>
    <contour>
      <point x="169" y="123" type="curve" smooth="yes"/>
      <point x="143" y="123"/>
      <point x="133" y="150"/>
      <point x="133" y="180" type="curve" smooth="yes"/>
      <point x="133" y="214"/>
      <point x="143" y="238"/>
      <point x="169" y="238" type="curve" smooth="yes"/>
      <point x="195" y="238"/>
      <point x="206" y="214"/>
      <point x="206" y="180" type="curve" smooth="yes"/>
      <point x="206" y="147"/>
      <point x="195" y="123"/>
    </contour>
  </outline>
</glyph>
<glyph name="two-thai" format="2">
  <advance width="512"/>
  <unicode hex="0E52"/>
  <outline>
    <contour>
      <point x="60" y="0" type="line"/>
      <point x="366" y="0" type="line" smooth="yes"/>
      <point x="433" y="0"/>
      <point x="459" y="42"/>
      <point x="459" y="118" type="curve" smooth="yes"/>
      <point x="459" y="380" type="line" smooth="yes"/>
      <point x="459" y="461"/>
      <point x="438" y="496"/>
      <point x="390" y="516" type="curve"/>
      <point x="318" y="441" type="line"/>
      <point x="233" y="516" type="line"/>
      <point x="191" y="481"/>
      <point x="164" y="430"/>
      <point x="164" y="332" type="curve" smooth="yes"/>
      <point x="164" y="255"/>
      <point x="185" y="194"/>
      <point x="232" y="194" type="curve" smooth="yes"/>
      <point x="270" y="194"/>
      <point x="291" y="231"/>
      <point x="291" y="273" type="curve" smooth="yes"/>
      <point x="291" y="315"/>
      <point x="270" y="352"/>
      <point x="233" y="352" type="curve" smooth="yes"/>
      <point x="196" y="352"/>
      <point x="175" y="316"/>
      <point x="175" y="272" type="curve"/>
      <point x="189" y="297" type="line"/>
      <point x="188" y="308"/>
      <point x="187" y="322"/>
      <point x="187" y="330" type="curve" smooth="yes"/>
      <point x="187" y="413"/>
      <point x="207" y="456"/>
      <point x="235" y="485" type="curve"/>
      <point x="315" y="412" type="line"/>
      <point x="320" y="412" type="line"/>
      <point x="394" y="485" type="line"/>
      <point x="425" y="467"/>
      <point x="435" y="438"/>
      <point x="435" y="376" type="curve" smooth="yes"/>
      <point x="435" y="121" type="line" smooth="yes"/>
      <point x="435" y="39"/>
      <point x="411" y="23"/>
      <point x="363" y="23" type="curve" smooth="yes"/>
      <point x="84" y="23" type="line"/>
      <point x="84" y="456" type="line" smooth="yes"/>
      <point x="84" y="526"/>
      <point x="80" y="565"/>
      <point x="67" y="622" type="curve"/>
      <point x="42" y="615" type="line"/>
      <point x="56" y="554"/>
      <point x="60" y="515"/>
      <point x="60" y="450" type="curve" smooth="yes"/>
    </contour>
    <contour>
      <point x="232" y="215" type="curve" smooth="yes"/>
      <point x="205" y="215"/>
      <point x="195" y="243"/>
      <point x="195" y="273" type="curve" smooth="yes"/>
      <point x="195" y="306"/>
      <point x="205" y="331"/>
      <point x="232" y="331" type="curve" smooth="yes"/>
      <point x="257" y="331"/>
      <point x="269" y="306"/>
      <point x="269" y="273" type="curve" smooth="yes"/>
      <point x="269" y="240"/>
      <point x="257" y="215"/>
    </contour>
  </outline>
</glyph>
<glyph name="three-thai" format="2">
  <advance width="531"/>
  <unicode hex="0E53"/>
  <outline>
    <contour>
      <point x="118" y="-5" type="curve" smooth="yes"/>
      <point x="156" y="-5"/>
      <point x="180" y="26"/>
      <point x="180" y="74" type="curve" smooth="yes"/>
      <point x="180" y="121"/>
      <point x="156" y="152"/>
      <point x="122" y="152" type="curve" smooth="yes"/>
      <point x="86" y="152"/>
      <point x="64" y="122"/>
      <point x="64" y="74" type="curve"/>
      <point x="69" y="74" type="line"/>
      <point x="69" y="93"/>
      <point x="76" y="114"/>
      <point x="81" y="114" type="curve"/>
      <point x="81" y="342" type="line" smooth="yes"/>
      <point x="81" y="430"/>
      <point x="98" y="493"/>
      <point x="169" y="493" type="curve" smooth="yes"/>
      <point x="228" y="493"/>
      <point x="259" y="435"/>
      <point x="259" y="352" type="curve" smooth="yes"/>
      <point x="259" y="0" type="line"/>
      <point x="283" y="0" type="line"/>
      <point x="283" y="352" type="line" smooth="yes"/>
      <point x="283" y="435"/>
      <point x="318" y="493"/>
      <point x="372" y="493" type="curve" smooth="yes"/>
      <point x="435" y="493"/>
      <point x="450" y="433"/>
      <point x="450" y="352" type="curve" smooth="yes"/>
      <point x="450" y="0" type="line"/>
      <point x="474" y="0" type="line"/>
      <point x="474" y="357" type="line" smooth="yes"/>
      <point x="474" y="463"/>
      <point x="439" y="516"/>
      <point x="372" y="516" type="curve" smooth="yes"/>
      <point x="308" y="516"/>
      <point x="273" y="457"/>
      <point x="268" y="397" type="curve"/>
      <point x="275" y="397" type="line"/>
      <point x="272" y="456"/>
      <point x="236" y="516"/>
      <point x="169" y="516" type="curve" smooth="yes"/>
      <point x="90" y="516"/>
      <point x="57" y="456"/>
      <point x="57" y="347" type="curve" smooth="yes"/>
      <point x="57" y="77" type="line" smooth="yes"/>
      <point x="57" y="27"/>
      <point x="81" y="-5"/>
    </contour>
    <contour>
      <point x="119" y="16" type="curve" smooth="yes"/>
      <point x="96" y="16"/>
      <point x="81" y="36"/>
      <point x="81" y="74" type="curve" smooth="yes"/>
      <point x="81" y="111"/>
      <point x="96" y="132"/>
      <point x="120" y="132" type="curve" smooth="yes"/>
      <point x="143" y="132"/>
      <point x="158" y="111"/>
      <point x="158" y="74" type="curve" smooth="yes"/>
      <point x="158" y="36"/>
      <point x="143" y="16"/>
    </contour>
    <contour>
      <point x="265" y="425" type="line"/>
      <point x="265" y="414" type="line"/>
      <point x="280" y="414" type="line"/>
      <point x="280" y="425" type="line"/>
    </contour>
  </outline>
</glyph>
<glyph name="four-thai" format="2">
  <advance width="435"/>
  <unicode hex="0E54"/>
  <outline>
    <contour>
      <point x="210" y="0" type="curve" smooth="yes"/>
      <point x="420" y="0" type="line"/>
      <point x="420" y="19" type="line"/>
      <point x="374" y="22" type="line" smooth="yes"/>
      <point x="334" y="25"/>
      <point x="265" y="103"/>
      <point x="265" y="203" type="curve" smooth="yes"/>
      <point x="265" y="208" type="line"/>
      <point x="260" y="208"/>
      <point x="253" y="228"/>
      <point x="253" y="255" type="curve"/>
      <point x="247" y="255" type="line"/>
      <point x="247" y="210"/>
      <point x="265" y="176"/>
      <point x="303" y="176" type="curve" smooth="yes"/>
      <point x="340" y="176"/>
      <point x="359" y="214"/>
      <point x="359" y="255" type="curve" smooth="yes"/>
      <point x="359" y="301"/>
      <point x="336" y="334"/>
      <point x="301" y="334" type="curve" smooth="yes"/>
      <point x="260" y="334"/>
      <point x="240" y="294"/>
      <point x="240" y="225" type="curve" smooth="yes"/>
      <point x="240" y="113"/>
      <point x="284" y="47"/>
      <point x="340" y="9" type="curve"/>
      <point x="340" y="23" type="line"/>
      <point x="205" y="23" type="line" smooth="yes"/>
      <point x="106" y="23"/>
      <point x="63" y="118"/>
      <point x="63" y="263" type="curve" smooth="yes"/>
      <point x="63" y="425"/>
      <point x="122" y="485"/>
      <point x="207" y="485" type="curve" smooth="yes"/>
      <point x="320" y="485" type="line" smooth="yes"/>
      <point x="390" y="485"/>
      <point x="413" y="537"/>
      <point x="423" y="617" type="curve"/>
      <point x="400" y="622" type="line"/>
      <point x="392" y="549"/>
      <point x="373" y="508"/>
      <point x="320" y="508" type="curve" smooth="yes"/>
      <point x="202" y="508" type="line" smooth="yes"/>
      <point x="109" y="508"/>
      <point x="39" y="437"/>
      <point x="39" y="263" type="curve" smooth="yes"/>
      <point x="39" y="106"/>
      <point x="90" y="0"/>
    </contour>
    <contour>
      <point x="301" y="197" type="curve" smooth="yes"/>
      <point x="274" y="197"/>
      <point x="265" y="222"/>
      <point x="265" y="255" type="curve" smooth="yes"/>
      <point x="265" y="289"/>
      <point x="274" y="313"/>
      <point x="301" y="313" type="curve" smooth="yes"/>
      <point x="326" y="313"/>
      <point x="337" y="289"/>
      <point x="337" y="255" type="curve" smooth="yes"/>
      <point x="337" y="222"/>
      <point x="326" y="197"/>
    </contour>
  </outline>
</glyph>
<glyph name="five-thai" format="2">
  <advance width="435"/>
  <unicode hex="0E55"/>
  <outline>
    <contour>
      <point x="210" y="0" type="curve" smooth="yes"/>
      <point x="420" y="0" type="line"/>
      <point x="420" y="19" type="line"/>
      <point x="374" y="22" type="line" smooth="yes"/>
      <point x="334" y="25"/>
      <point x="264" y="103"/>
      <point x="264" y="203" type="curve" smooth="yes"/>
      <point x="264" y="208" type="line"/>
      <point x="260" y="208"/>
      <point x="253" y="228"/>
      <point x="253" y="255" type="curve"/>
      <point x="247" y="255" type="line"/>
      <point x="247" y="210"/>
      <point x="265" y="176"/>
      <point x="303" y="176" type="curve" smooth="yes"/>
      <point x="340" y="176"/>
      <point x="359" y="214"/>
      <point x="359" y="255" type="curve" smooth="yes"/>
      <point x="359" y="301"/>
      <point x="336" y="334"/>
      <point x="301" y="334" type="curve" smooth="yes"/>
      <point x="260" y="334"/>
      <point x="240" y="294"/>
      <point x="240" y="225" type="curve" smooth="yes"/>
      <point x="240" y="113"/>
      <point x="284" y="47"/>
      <point x="340" y="9" type="curve"/>
      <point x="340" y="23" type="line"/>
      <point x="205" y="23" type="line" smooth="yes"/>
      <point x="106" y="23"/>
      <point x="63" y="118"/>
      <point x="63" y="263" type="curve" smooth="yes"/>
      <point x="63" y="425"/>
      <point x="122" y="485"/>
      <point x="207" y="485" type="curve" smooth="yes"/>
      <point x="320" y="485" type="line" smooth="yes"/>
      <point x="386" y="485"/>
      <point x="415" y="537"/>
      <point x="423" y="617" type="curve"/>
      <point x="400" y="622" type="line"/>
      <point x="394" y="551"/>
      <point x="372" y="508"/>
      <point x="320" y="508" type="curve" smooth="yes"/>
      <point x="270" y="508" type="line"/>
      <point x="276" y="504" type="line"/>
      <point x="290" y="518"/>
      <point x="297" y="538"/>
      <point x="297" y="565" type="curve" smooth="yes"/>
      <point x="297" y="611"/>
      <point x="273" y="642"/>
      <point x="238" y="642" type="curve" smooth="yes"/>
      <point x="200" y="642"/>
      <point x="176" y="608"/>
      <point x="176" y="561" type="curve" smooth="yes"/>
      <point x="176" y="537"/>
      <point x="181" y="519"/>
      <point x="188" y="501" type="curve"/>
      <point x="196" y="507" type="line"/>
      <point x="92" y="500"/>
      <point x="39" y="424"/>
      <point x="39" y="263" type="curve" smooth="yes"/>
      <point x="39" y="106"/>
      <point x="90" y="0"/>
    </contour>
    <contour>
      <point x="301" y="197" type="curve" smooth="yes"/>
      <point x="274" y="197"/>
      <point x="265" y="222"/>
      <point x="265" y="255" type="curve" smooth="yes"/>
      <point x="265" y="289"/>
      <point x="274" y="313"/>
      <point x="301" y="313" type="curve" smooth="yes"/>
      <point x="326" y="313"/>
      <point x="337" y="289"/>
      <point x="337" y="255" type="curve" smooth="yes"/>
      <point x="337" y="222"/>
      <point x="326" y="197"/>
    </contour>
    <contour>
      <point x="236" y="508" type="curve" smooth="yes"/>
      <point x="223" y="508"/>
      <point x="209" y="511"/>
      <point x="207" y="511" type="curve"/>
      <point x="201" y="526"/>
      <point x="198" y="540"/>
      <point x="198" y="560" type="curve" smooth="yes"/>
      <point x="198" y="596"/>
      <point x="209" y="621"/>
      <point x="238" y="621" type="curve" smooth="yes"/>
      <point x="263" y="621"/>
      <point x="275" y="600"/>
      <point x="275" y="565" type="curve" smooth="yes"/>
      <point x="275" y="528"/>
      <point x="262" y="508"/>
    </contour>
  </outline>
</glyph>
<glyph name="six-thai" format="2">
  <advance width="406"/>
  <unicode hex="0E56"/>
  <outline>
    <contour>
      <point x="205" y="-8" type="curve" smooth="yes"/>
      <point x="325" y="-8"/>
      <point x="368" y="111"/>
      <point x="368" y="264" type="curve" smooth="yes"/>
      <point x="368" y="410"/>
      <point x="325" y="516"/>
      <point x="218" y="516" type="curve" smooth="yes"/>
      <point x="145" y="516"/>
      <point x="103" y="469"/>
      <point x="82" y="408" type="curve"/>
      <point x="88" y="408" type="line"/>
      <point x="89" y="417"/>
      <point x="90" y="426"/>
      <point x="90" y="435" type="curve" smooth="yes"/>
      <point x="90" y="491"/>
      <point x="73" y="567"/>
      <point x="43" y="622" type="curve"/>
      <point x="21" y="613" type="line"/>
      <point x="55" y="547"/>
      <point x="73" y="468"/>
      <point x="73" y="367" type="curve"/>
      <point x="91" y="367" type="line"/>
      <point x="107" y="442"/>
      <point x="151" y="493"/>
      <point x="215" y="493" type="curve" smooth="yes"/>
      <point x="312" y="493"/>
      <point x="344" y="396"/>
      <point x="344" y="264" type="curve" smooth="yes"/>
      <point x="344" y="127"/>
      <point x="310" y="15"/>
      <point x="204" y="15" type="curve" smooth="yes"/>
      <point x="154" y="15"/>
      <point x="125" y="32"/>
      <point x="99" y="70" type="curve"/>
      <point x="92" y="59" type="line"/>
      <point x="104" y="48"/>
      <point x="117" y="41"/>
      <point x="133" y="41" type="curve" smooth="yes"/>
      <point x="161" y="41"/>
      <point x="189" y="65"/>
      <point x="189" y="120" type="curve" smooth="yes"/>
      <point x="189" y="162"/>
      <point x="169" y="198"/>
      <point x="131" y="198" type="curve" smooth="yes"/>
      <point x="92" y="198"/>
      <point x="72" y="164"/>
      <point x="72" y="118" type="curve" smooth="yes"/>
      <point x="72" y="55"/>
      <point x="112" y="-8"/>
    </contour>
    <contour>
      <point x="131" y="62" type="curve" smooth="yes"/>
      <point x="104" y="62"/>
      <point x="94" y="86"/>
      <point x="94" y="120" type="curve" smooth="yes"/>
      <point x="94" y="153"/>
      <point x="104" y="177"/>
      <point x="131" y="177" type="curve" smooth="yes"/>
      <point x="156" y="177"/>
      <point x="167" y="153"/>
      <point x="167" y="120" type="curve" smooth="yes"/>
      <point x="167" y="86"/>
      <point x="156" y="62"/>
    </contour>
    <contour>
      <point x="84" y="433" type="line"/>
      <point x="84" y="423" type="line"/>
      <point x="101" y="420" type="line"/>
      <point x="101" y="430" type="line"/>
    </contour>
  </outline>
</glyph>
